roundedultracondensed-thin.ufo
<glyph name="exclam" format="2">
  <advance height="1920" width="275"/>
  <unicode hex="0021"/>
  <outline>
    <contour>
      <point x="140.0" y="-3.0" type="curve" smooth="yes"/>
      <point x="136.0" y="-3.0" type="line" smooth="yes"/>
      <point x="123.0" y="-3.0"/>
      <point x="114.0" y="6.0"/>
      <point x="114.0" y="18.0" type="curve" smooth="yes"/>
      <point x="114.0" y="192.0" type="line" smooth="yes"/>
      <point x="114.0" y="204.0"/>
      <point x="123.0" y="213.0"/>
      <point x="136.0" y="213.0" type="curve" smooth="yes"/>
      <point x="140.0" y="213.0" type="line" smooth="yes"/>
      <point x="153.0" y="213.0"/>
      <point x="160.0" y="204.0"/>
      <point x="160.0" y="192.0" type="curve" smooth="yes"/>
      <point x="160.0" y="18.0" type="line" smooth="yes"/>
      <point x="160.0" y="6.0"/>
      <point x="153.0" y="-3.0"/>
    </contour>
    <contour>
      <point x="122.0" y="950.0" type="curve" smooth="yes"/>
      <point x="122.0" y="1435.0" type="line" smooth="yes"/>
      <point x="122.0" y="1444.0"/>
      <point x="126.0" y="1453.0"/>
      <point x="136.0" y="1453.0" type="curve" smooth="yes"/>
      <point x="138.0" y="1453.0" type="line" smooth="yes"/>
      <point x="148.0" y="1453.0"/>
      <point x="152.0" y="1444.0"/>
      <point x="152.0" y="1435.0" type="curve" smooth="yes"/>
      <point x="152.0" y="950.0" type="line" smooth="yes"/>
      <point x="152.0" y="943.0"/>
      <point x="152.068359375" y="857.008789062"/>
      <point x="152.0" y="850.0" type="curve" smooth="yes"/>
      <point x="148.0" y="440.0" type="line" smooth="yes"/>
      <point x="148.0" y="433.0"/>
      <point x="144.0" y="427.0"/>
      <point x="137.0" y="427.0" type="curve" smooth="yes"/>
      <point x="136.0" y="427.0" type="line" smooth="yes"/>
      <point x="129.0" y="427.0"/>
      <point x="126.0" y="433.0"/>
      <point x="126.0" y="440.0" type="curve" smooth="yes"/>
      <point x="124.0" y="850.0" type="line" smooth="yes"/>
      <point x="123.965820312" y="857.0"/>
      <point x="122.0" y="943.0"/>
    </contour>
  </outline>
</glyph>
<glyph name="numbersign" format="2">
  <advance height="1920" width="502"/>
  <unicode hex="0023"/>
  <outline>
    <contour>
      <point x="76.0" y="485.0" type="curve" smooth="yes"/>
      <point x="391.0" y="485.0" type="line" smooth="yes"/>
      <point x="400.0" y="485.0"/>
      <point x="406.0" y="479.0"/>
      <point x="406.0" y="471.0" type="curve" smooth="yes"/>
      <point x="406.0" y="469.0" type="line" smooth="yes"/>
      <point x="406.0" y="461.0"/>
      <point x="400.0" y="455.0"/>
      <point x="391.0" y="455.0" type="curve" smooth="yes"/>
      <point x="76.0" y="455.0" type="line" smooth="yes"/>
      <point x="62.0" y="455.0"/>
      <point x="56.0" y="460.0"/>
      <point x="56.0" y="469.0" type="curve" smooth="yes"/>
      <point x="56.0" y="471.0" type="line" smooth="yes"/>
      <point x="56.0" y="480.0"/>
      <point x="62.0" y="485.0"/>
    </contour>
    <contour>
      <point x="111.0" y="1025.0" type="curve" smooth="yes"/>
      <point x="431.0" y="1025.0" type="line" smooth="yes"/>
      <point x="440.0" y="1025.0"/>
      <point x="446.0" y="1019.0"/>
      <point x="446.0" y="1011.0" type="curve" smooth="yes"/>
      <point x="446.0" y="1009.0" type="line" smooth="yes"/>
      <point x="446.0" y="1001.0"/>
      <point x="440.0" y="995.0"/>
      <point x="431.0" y="995.0" type="curve" smooth="yes"/>
      <point x="111.0" y="995.0" type="line" smooth="yes"/>
      <point x="97.0" y="995.0"/>
      <point x="93.0" y="1002.0"/>
      <point x="93.0" y="1009.0" type="curve" smooth="yes"/>
      <point x="93.0" y="1011.0" type="line" smooth="yes"/>
      <point x="93.0" y="1018.0"/>
      <point x="97.0" y="1025.0"/>
    </contour>
    <contour>
      <point x="390.0" y="1403.0" type="curve" smooth="yes"/>
      <point x="392.0" y="1403.0" type="line" smooth="yes"/>
      <point x="403.0" y="1403.0"/>
      <point x="404.939931814" y="1393.00704414"/>
      <point x="404.0" y="1385.0" type="curve" smooth="yes"/>
      <point x="244.0" y="22.0" type="line" smooth="yes"/>
      <point x="242.365303331" y="8.07442774891"/>
      <point x="237.0" y="-3.0"/>
      <point x="227.0" y="-3.0" type="curve" smooth="yes"/>
      <point x="225.0" y="-3.0" type="line" smooth="yes"/>
      <point x="215.0" y="-3.0"/>
      <point x="212.365303331" y="8.07442774891"/>
      <point x="214.0" y="22.0" type="curve" smooth="yes"/>
      <point x="374.0" y="1385.0" type="line" smooth="yes"/>
      <point x="374.939931814" y="1393.00704414"/>
      <point x="379.0" y="1403.0"/>
    </contour>
    <contour>
      <point x="265.0" y="1403.0" type="curve" smooth="yes"/>
      <point x="267.0" y="1403.0" type="line" smooth="yes"/>
      <point x="276.0" y="1403.0"/>
      <point x="280.506339799" y="1396.82271754"/>
      <point x="279.0" y="1384.0" type="curve" smooth="yes"/>
      <point x="119.0" y="22.0" type="line" smooth="yes"/>
      <point x="117.364117724" y="8.07455212358"/>
      <point x="111.0" y="-3.0"/>
      <point x="102.0" y="-3.0" type="curve" smooth="yes"/>
      <point x="100.0" y="-3.0" type="line" smooth="yes"/>
      <point x="91.0" y="-3.0"/>
      <point x="87.3641177238" y="8.07455212358"/>
      <point x="89.0" y="22.0" type="curve" smooth="yes"/>
      <point x="249.0" y="1384.0" type="line" smooth="yes"/>
      <point x="250.506339799" y="1396.82271754"/>
      <point x="256.0" y="1403.0"/>
    </contour>
  </outline>
</glyph>
<glyph name="dollar" format="2">
  <advance height="960" width="374"/>
  <unicode hex="0024"/>
  <outline>
    <contour>
      <point x="69.0" y="527.0" type="curve" smooth="yes"/>
      <point x="71.0" y="527.0" type="line" smooth="yes"/>
      <point x="80.0" y="527.0"/>
      <point x="84.9642860306" y="518.999920282"/>
      <point x="85.0" y="510.0" type="curve" smooth="yes"/>
      <point x="86.0" y="258.0" type="line" smooth="yes"/>
      <point x="86.6526622478" y="87.0024910773"/>
      <point x="124.0" y="25.0"/>
      <point x="180.0" y="25.0" type="curve" smooth="yes"/>
      <point x="233.0" y="25.0"/>
      <point x="297.0" y="88.0"/>
      <point x="297.0" y="294.0" type="curve" smooth="yes"/>
      <point x="297.0" y="439.0"/>
      <point x="224.0" y="595.0"/>
      <point x="171.0" y="712.0" type="curve" smooth="yes"/>
      <point x="106.0" y="855.0"/>
      <point x="75.0" y="971.0"/>
      <point x="75.0" y="1166.0" type="curve" smooth="yes"/>
      <point x="75.0" y="1336.0"/>
      <point x="103.0" y="1405.0"/>
      <point x="192.0" y="1405.0" type="curve" smooth="yes"/>
      <point x="285.0" y="1405.0"/>
      <point x="301.0" y="1328.0"/>
      <point x="301.0" y="1150.0" type="curve" smooth="yes"/>
      <point x="301.0" y="917.0" type="line" smooth="yes"/>
      <point x="301.0" y="910.0"/>
      <point x="298.0" y="902.0"/>
      <point x="287.0" y="902.0" type="curve" smooth="yes"/>
      <point x="285.0" y="902.0" type="line" smooth="yes"/>
      <point x="274.0" y="902.0"/>
      <point x="271.0" y="911.0"/>
      <point x="271.0" y="917.0" type="curve" smooth="yes"/>
      <point x="271.0" y="1146.0" type="line" smooth="yes"/>
      <point x="271.0" y="1324.0"/>
      <point x="251.0" y="1375.0"/>
      <point x="192.0" y="1375.0" type="curve" smooth="yes"/>
      <point x="121.0" y="1375.0"/>
      <point x="105.0" y="1311.0"/>
      <point x="105.0" y="1166.0" type="curve" smooth="yes"/>
      <point x="105.0" y="976.0"/>
      <point x="133.0" y="869.0"/>
      <point x="198.0" y="732.0" type="curve" smooth="yes"/>
      <point x="255.0" y="611.0"/>
      <point x="327.0" y="472.0"/>
      <point x="327.0" y="294.0" type="curve" smooth="yes"/>
      <point x="327.0" y="71.0"/>
      <point x="255.0" y="-5.0"/>
      <point x="180.0" y="-5.0" type="curve" smooth="yes"/>
      <point x="109.0" y="-5.0"/>
      <point x="55.0" y="55.0"/>
      <point x="55.0" y="234.0" type="curve" smooth="yes"/>
      <point x="55.0" y="510.0" type="line" smooth="yes"/>
      <point x="55.0" y="519.0"/>
      <point x="60.0" y="527.0"/>
    </contour>
    <contour>
      <point x="183.0" y="1590.0" type="curve" smooth="yes"/>
      <point x="185.0" y="1590.0" type="line" smooth="yes"/>
      <point x="191.0" y="1590.0"/>
      <point x="194.0" y="1585.0"/>
      <point x="194.0" y="1574.0" type="curve" smooth="yes"/>
      <point x="194.0" y="-176.0" type="line" smooth="yes"/>
      <point x="194.0" y="-184.0"/>
      <point x="191.0" y="-190.0"/>
      <point x="185.0" y="-190.0" type="curve" smooth="yes"/>
      <point x="183.0" y="-190.0" type="line" smooth="yes"/>
      <point x="177.0" y="-190.0"/>
      <point x="174.0" y="-184.0"/>
      <point x="174.0" y="-176.0" type="curve" smooth="yes"/>
      <point x="174.0" y="1574.0" type="line" smooth="yes"/>
      <point x="174.0" y="1585.0"/>
      <point x="177.0" y="1590.0"/>
    </contour>
  </outline>
</glyph>
<glyph name="ampersand" format="2">
  <advance height="1920" width="555"/>
  <unicode hex="0026"/>
  <outline>
    <contour>
      <point x="469.0" y="21.0" type="curve" smooth="yes"/>
      <point x="215.0" y="1036.0" type="line" smooth="yes"/>
      <point x="192.507743636" y="1125.88047327"/>
      <point x="174.0" y="1175.0"/>
      <point x="174.0" y="1241.0" type="curve" smooth="yes"/>
      <point x="174.0" y="1331.0"/>
      <point x="214.0" y="1405.0"/>
      <point x="318.0" y="1405.0" type="curve" smooth="yes"/>
      <point x="422.0" y="1405.0"/>
      <point x="466.0" y="1336.0"/>
      <point x="466.0" y="1231.0" type="curve" smooth="yes"/>
      <point x="466.0" y="1094.0"/>
      <point x="392.0" y="1013.0"/>
      <point x="244.0" y="948.0" type="curve" smooth="yes"/>
      <point x="116.0" y="892.0"/>
      <point x="73.0" y="826.0"/>
      <point x="73.0" y="704.0" type="curve" smooth="yes"/>
      <point x="73.0" y="665.0"/>
      <point x="92.0" y="570.0"/>
      <point x="110.0" y="503.0" type="curve" smooth="yes"/>
      <point x="181.0" y="236.0" type="line" smooth="yes"/>
      <point x="215.0" y="107.0"/>
      <point x="221.0" y="25.0"/>
      <point x="291.0" y="25.0" type="curve" smooth="yes"/>
      <point x="407.0" y="25.0"/>
      <point x="488.0" y="353.913745493"/>
      <point x="492.0" y="638.0" type="curve" smooth="yes"/>
      <point x="492.112630681" y="645.999207106"/>
      <point x="497.0" y="651.0"/>
      <point x="503.0" y="651.0" type="curve" smooth="yes"/>
      <point x="504.0" y="651.0" type="line" smooth="yes"/>
      <point x="510.0" y="651.0"/>
      <point x="514.121952647" y="644.999173715"/>
      <point x="514.0" y="636.0" type="curve" smooth="yes"/>
      <point x="510.0" y="340.830557137"/>
      <point x="435.0" y="-5.0"/>
      <point x="291.0" y="-5.0" type="curve" smooth="yes"/>
      <point x="203.0" y="-5.0"/>
      <point x="191.0" y="75.0"/>
      <point x="146.0" y="249.0" type="curve" smooth="yes"/>
      <point x="84.0" y="489.0" type="line" smooth="yes"/>
      <point x="61.0" y="578.0"/>
      <point x="43.0" y="646.0"/>
      <point x="43.0" y="704.0" type="curve" smooth="yes"/>
      <point x="43.0" y="858.0"/>
      <point x="117.0" y="916.0"/>
      <point x="240.0" y="975.0" type="curve" smooth="yes"/>
      <point x="377.0" y="1041.0"/>
      <point x="436.0" y="1099.0"/>
      <point x="436.0" y="1226.0" type="curve" smooth="yes"/>
      <point x="436.0" y="1326.0"/>
      <point x="401.0" y="1375.0"/>
      <point x="318.0" y="1375.0" type="curve" smooth="yes"/>
      <point x="240.0" y="1375.0"/>
      <point x="204.0" y="1316.0"/>
      <point x="204.0" y="1241.0" type="curve" smooth="yes"/>
      <point x="204.0" y="1181.0"/>
      <point x="233.315238109" y="1086.82840526"/>
      <point x="241.0" y="1056.0" type="curve" smooth="yes"/>
      <point x="499.0" y="21.0" type="line" smooth="yes"/>
      <point x="503.048267297" y="4.75985793499"/>
      <point x="497.0" y="-3.0"/>
      <point x="489.0" y="-3.0" type="curve" smooth="yes"/>
      <point x="487.0" y="-3.0" type="line" smooth="yes"/>
      <point x="479.0" y="-3.0"/>
      <point x="473.121341943" y="4.53085798376"/>
    </contour>
  </outline>
</glyph>
<glyph name="quotesingle" format="2">
  <advance height="1920" width="275"/>
  <unicode hex="0027"/>
  <outline>
    <contour>
      <point x="139.0" y="927.0" type="curve" smooth="yes"/>
      <point x="137.0" y="927.0" type="line" smooth="yes"/>
      <point x="130.0" y="927.0"/>
      <point x="126.066751315" y="932.991111917"/>
      <point x="126.0" y="940.0" type="curve" smooth="yes"/>
      <point x="124.0" y="1150.0" type="line" smooth="yes"/>
      <point x="124.0" y="1187.0"/>
      <point x="122.0" y="1203.0"/>
      <point x="122.0" y="1230.0" type="curve" smooth="yes"/>
      <point x="122.0" y="1405.0" type="line" smooth="yes"/>
      <point x="122.0" y="1414.0"/>
      <point x="126.0" y="1423.0"/>
      <point x="136.0" y="1423.0" type="curve" smooth="yes"/>
      <point x="138.0" y="1423.0" type="line" smooth="yes"/>
      <point x="148.0" y="1423.0"/>
      <point x="152.0" y="1414.0"/>
      <point x="152.0" y="1405.0" type="curve" smooth="yes"/>
      <point x="152.0" y="1230.0" type="line" smooth="yes"/>
      <point x="152.0" y="1203.0"/>
      <point x="152.0" y="1187.0"/>
      <point x="152.0" y="1150.0" type="curve" smooth="yes"/>
      <point x="150.0" y="940.0" type="line" smooth="yes"/>
      <point x="149.93333938" y="933.000634863"/>
      <point x="146.0" y="927.0"/>
    </contour>
  </outline>
</glyph>
<glyph name="parenleft" format="2">
  <advance height="2048" width="295"/>
  <unicode hex="0028"/>
  <outline>
    <contour>
      <point x="75.0" y="1219.0" type="line" smooth="yes"/>
      <point x="75.0" y="1421.0"/>
      <point x="105.0" y="1581.0"/>
      <point x="245.0" y="1609.0" type="curve" smooth="yes"/>
      <point x="249.0" y="1610.0"/>
      <point x="253.0" y="1607.0"/>
      <point x="253.0" y="1603.0" type="curve" smooth="yes"/>
      <point x="253.0" y="1602.0" type="line" smooth="yes"/>
      <point x="253.0" y="1596.0"/>
      <point x="248.0" y="1594.0"/>
      <point x="245.0" y="1593.0" type="curve" smooth="yes"/>
      <point x="136.0" y="1562.0"/>
      <point x="105.0" y="1429.0"/>
      <point x="105.0" y="1229.0" type="curve" smooth="yes"/>
      <point x="105.0" y="16.0" type="line" smooth="yes"/>
      <point x="105.0" y="-184.0"/>
      <point x="136.0" y="-317.0"/>
      <point x="245.0" y="-348.0" type="curve" smooth="yes"/>
      <point x="248.0" y="-349.0"/>
      <point x="253.0" y="-351.0"/>
      <point x="253.0" y="-357.0" type="curve" smooth="yes"/>
      <point x="253.0" y="-358.0" type="line" smooth="yes"/>
      <point x="253.0" y="-364.0"/>
      <point x="249.0" y="-365.0"/>
      <point x="245.0" y="-364.0" type="curve" smooth="yes"/>
      <point x="105.0" y="-336.0"/>
      <point x="75.0" y="-176.0"/>
      <point x="75.0" y="26.0" type="curve" smooth="yes"/>
    </contour>
  </outline>
</glyph>
<glyph name="parenright" format="2">
  <advance height="2048" width="294"/>
  <unicode hex="0029"/>
  <outline>
    <contour>
      <point x="259.0" y="26.0" type="line" smooth="yes"/>
      <point x="259.0" y="-176.0"/>
      <point x="229.0" y="-336.0"/>
      <point x="89.0" y="-364.0" type="curve" smooth="yes"/>
      <point x="85.0" y="-365.0"/>
      <point x="81.0" y="-362.0"/>
      <point x="81.0" y="-358.0" type="curve" smooth="yes"/>
      <point x="81.0" y="-357.0" type="line" smooth="yes"/>
      <point x="81.0" y="-351.0"/>
      <point x="86.0" y="-349.0"/>
      <point x="89.0" y="-348.0" type="curve" smooth="yes"/>
      <point x="198.0" y="-317.0"/>
      <point x="229.0" y="-184.0"/>
      <point x="229.0" y="16.0" type="curve" smooth="yes"/>
      <point x="229.0" y="1229.0" type="line" smooth="yes"/>
      <point x="229.0" y="1429.0"/>
      <point x="198.0" y="1562.0"/>
      <point x="89.0" y="1593.0" type="curve" smooth="yes"/>
      <point x="86.0" y="1594.0"/>
      <point x="81.0" y="1596.0"/>
      <point x="81.0" y="1602.0" type="curve" smooth="yes"/>
      <point x="81.0" y="1603.0" type="line" smooth="yes"/>
      <point x="81.0" y="1609.0"/>
      <point x="85.0" y="1610.0"/>
      <point x="89.0" y="1609.0" type="curve" smooth="yes"/>
      <point x="229.0" y="1581.0"/>
      <point x="259.0" y="1421.0"/>
      <point x="259.0" y="1219.0" type="curve" smooth="yes"/>
    </contour>
  </outline>
</glyph>
<glyph name="asterisk" format="2">
  <advance height="2048" width="500"/>
  <unicode hex="002A"/>
  <outline>
    <contour>
      <point x="251.0" y="1205.0" type="line"/>
      <point x="248.0" y="1215.0" type="line"/>
      <point x="401.0" y="1279.0" type="line" smooth="yes"/>
      <point x="409.0" y="1282.0"/>
      <point x="419.0" y="1285.0"/>
      <point x="424.0" y="1286.0" type="curve" smooth="yes"/>
      <point x="437.0" y="1288.0" type="line" smooth="yes"/>
      <point x="446.0" y="1289.0"/>
      <point x="455.0" y="1285.0"/>
      <point x="457.0" y="1278.0" type="curve" smooth="yes"/>
      <point x="457.0" y="1277.0" type="line" smooth="yes"/>
      <point x="459.0" y="1270.0"/>
      <point x="455.0" y="1262.0"/>
      <point x="447.0" y="1258.0" type="curve" smooth="yes"/>
      <point x="436.0" y="1252.0" type="line" smooth="yes"/>
      <point x="432.0" y="1250.0"/>
      <point x="421.0" y="1246.0"/>
      <point x="412.0" y="1244.0" type="curve" smooth="yes"/>
    </contour>
    <contour>
      <point x="245.0" y="1207.0" type="line"/>
      <point x="254.0" y="1213.0" type="line"/>
      <point x="361.0" y="1087.0" type="line" smooth="yes"/>
      <point x="367.0" y="1080.0"/>
      <point x="374.0" y="1071.0"/>
      <point x="376.0" y="1067.0" type="curve" smooth="yes"/>
      <point x="382.0" y="1055.0" type="line" smooth="yes"/>
      <point x="386.0" y="1047.0"/>
      <point x="384.0" y="1038.0"/>
      <point x="378.0" y="1034.0" type="curve" smooth="yes"/>
      <point x="377.0" y="1033.0" type="line" smooth="yes"/>
      <point x="371.0" y="1029.0"/>
      <point x="362.0" y="1031.0"/>
      <point x="356.0" y="1037.0" type="curve" smooth="yes"/>
      <point x="347.0" y="1046.0" type="line" smooth="yes"/>
      <point x="344.0" y="1050.0"/>
      <point x="337.0" y="1058.0"/>
      <point x="332.0" y="1066.0" type="curve" smooth="yes"/>
    </contour>
    <contour>
      <point x="245.0" y="1213.0" type="line"/>
      <point x="254.0" y="1207.0" type="line"/>
      <point x="167.0" y="1066.0" type="line" smooth="yes"/>
      <point x="162.0" y="1058.0"/>
      <point x="156.0" y="1049.0"/>
      <point x="153.0" y="1045.0" type="curve" smooth="yes"/>
      <point x="144.0" y="1036.0" type="line" smooth="yes"/>
      <point x="138.0" y="1030.0"/>
      <point x="128.0" y="1029.0"/>
      <point x="122.0" y="1033.0" type="curve" smooth="yes"/>
      <point x="121.0" y="1034.0" type="line" smooth="yes"/>
      <point x="115.0" y="1038.0"/>
      <point x="114.0" y="1047.0"/>
      <point x="118.0" y="1055.0" type="curve" smooth="yes"/>
      <point x="124.0" y="1067.0" type="line" smooth="yes"/>
      <point x="126.0" y="1071.0"/>
      <point x="132.0" y="1080.0"/>
      <point x="138.0" y="1087.0" type="curve" smooth="yes"/>
    </contour>
    <contour>
      <point x="251.0" y="1215.0" type="line"/>
      <point x="248.0" y="1205.0" type="line"/>
      <point x="87.0" y="1243.0" type="line" smooth="yes"/>
      <point x="78.0" y="1245.0"/>
      <point x="67.0" y="1249.0"/>
      <point x="63.0" y="1251.0" type="curve" smooth="yes"/>
      <point x="51.0" y="1257.0" type="line" smooth="yes"/>
      <point x="43.0" y="1261.0"/>
      <point x="40.0" y="1270.0"/>
      <point x="42.0" y="1277.0" type="curve" smooth="yes"/>
      <point x="42.0" y="1278.0" type="line" smooth="yes"/>
      <point x="44.0" y="1285.0"/>
      <point x="52.0" y="1288.0"/>
      <point x="61.0" y="1287.0" type="curve" smooth="yes"/>
      <point x="74.0" y="1285.0" type="line" smooth="yes"/>
      <point x="79.0" y="1284.0"/>
      <point x="90.0" y="1281.0"/>
      <point x="98.0" y="1278.0" type="curve" smooth="yes"/>
    </contour>
    <contour>
      <point x="255.0" y="1210.0" type="line"/>
      <point x="244.0" y="1210.0" type="line"/>
      <point x="231.0" y="1375.0" type="line" smooth="yes"/>
      <point x="230.0" y="1384.0"/>
      <point x="230.0" y="1395.0"/>
      <point x="231.0" y="1400.0" type="curve" smooth="yes"/>
      <point x="233.0" y="1413.0" type="line" smooth="yes"/>
      <point x="234.0" y="1422.0"/>
      <point x="242.0" y="1428.0"/>
      <point x="249.0" y="1428.0" type="curve" smooth="yes"/>
      <point x="250.0" y="1428.0" type="line" smooth="yes"/>
      <point x="257.0" y="1428.0"/>
      <point x="264.0" y="1422.0"/>
      <point x="265.0" y="1413.0" type="curve" smooth="yes"/>
      <point x="267.0" y="1400.0" type="line" smooth="yes"/>
      <point x="268.0" y="1395.0"/>
      <point x="268.0" y="1384.0"/>
      <point x="267.0" y="1375.0" type="curve" smooth="yes"/>
    </contour>
  </outline>
</glyph>
<glyph name="plus" format="2">
  <advance height="1920" width="540"/>
  <unicode hex="002B"/>
  <outline>
    <contour>
      <point x="42.0" y="685.0" type="curve" smooth="yes"/>
      <point x="42.0" y="687.0" type="line" smooth="yes"/>
      <point x="42.0" y="696.0"/>
      <point x="47.0" y="702.0"/>
      <point x="56.0" y="702.0" type="curve" smooth="yes"/>
      <point x="479.0" y="702.0" type="line" smooth="yes"/>
      <point x="493.0" y="702.0"/>
      <point x="498.0" y="696.0"/>
      <point x="498.0" y="687.0" type="curve" smooth="yes"/>
      <point x="498.0" y="685.0" type="line" smooth="yes"/>
      <point x="498.0" y="676.0"/>
      <point x="493.0" y="671.0"/>
      <point x="479.0" y="671.0" type="curve" smooth="yes"/>
      <point x="56.0" y="671.0" type="line" smooth="yes"/>
      <point x="47.0" y="671.0"/>
      <point x="42.0" y="676.0"/>
    </contour>
    <contour>
      <point x="269.0" y="938.0" type="curve" smooth="yes"/>
      <point x="271.0" y="938.0" type="line" smooth="yes"/>
      <point x="280.0" y="938.0"/>
      <point x="285.0" y="929.0"/>
      <point x="285.0" y="920.0" type="curve" smooth="yes"/>
      <point x="285.0" y="440.0" type="line" smooth="yes"/>
      <point x="285.0" y="431.0"/>
      <point x="280.0" y="422.0"/>
      <point x="271.0" y="422.0" type="curve" smooth="yes"/>
      <point x="269.0" y="422.0" type="line" smooth="yes"/>
      <point x="260.0" y="422.0"/>
      <point x="255.0" y="431.0"/>
      <point x="255.0" y="440.0" type="curve" smooth="yes"/>
      <point x="255.0" y="920.0" type="line" smooth="yes"/>
      <point x="255.0" y="929.0"/>
      <point x="260.0" y="938.0"/>
    </contour>
  </outline>
</glyph>
<glyph name="comma" format="2">
  <advance height="1920" width="275"/>
  <unicode hex="002C"/>
  <outline>
    <contour>
      <point x="108.0" y="-211.0" type="curve" smooth="yes"/>
      <point x="107.0" y="-211.0" type="line" smooth="yes"/>
      <point x="99.0" y="-211.0"/>
      <point x="97.0" y="-203.0"/>
      <point x="99.0" y="-193.0" type="curve" smooth="yes"/>
      <point x="135.0" y="0.0" type="line"/>
      <point x="133.0" y="0.0" type="line" smooth="yes"/>
      <point x="120.0" y="0.0"/>
      <point x="116.0" y="5.0"/>
      <point x="116.0" y="19.0" type="curve" smooth="yes"/>
      <point x="116.0" y="193.0" type="line" smooth="yes"/>
      <point x="116.0" y="205.0"/>
      <point x="123.0" y="213.0"/>
      <point x="136.0" y="213.0" type="curve" smooth="yes"/>
      <point x="140.0" y="213.0" type="line" smooth="yes"/>
      <point x="153.0" y="213.0"/>
      <point x="161.0" y="205.0"/>
      <point x="161.0" y="193.0" type="curve" smooth="yes"/>
      <point x="161.0" y="38.0" type="line" smooth="yes"/>
      <point x="161.0" y="27.0"/>
      <point x="156.0" y="8.0"/>
      <point x="154.0" y="-3.0" type="curve" smooth="yes"/>
      <point x="122.0" y="-191.0" type="line" smooth="yes"/>
      <point x="119.0" y="-206.0"/>
      <point x="115.0" y="-211.0"/>
    </contour>
  </outline>
</glyph>
<glyph name="hyphen" format="2">
  <advance height="1920" width="329"/>
  <unicode hex="002D"/>
  <outline>
    <contour>
      <point x="39.0" y="612.0" type="curve" smooth="yes"/>
      <point x="39.0" y="613.0" type="line" smooth="yes"/>
      <point x="39.0" y="622.0"/>
      <point x="44.0" y="627.0"/>
      <point x="58.0" y="627.0" type="curve" smooth="yes"/>
      <point x="272.0" y="627.0" type="line" smooth="yes"/>
      <point x="286.0" y="627.0"/>
      <point x="291.0" y="622.0"/>
      <point x="291.0" y="613.0" type="curve" smooth="yes"/>
      <point x="291.0" y="612.0" type="line" smooth="yes"/>
      <point x="291.0" y="603.0"/>
      <point x="286.0" y="598.0"/>
      <point x="272.0" y="598.0" type="curve" smooth="yes"/>
      <point x="58.0" y="598.0" type="line" smooth="yes"/>
      <point x="44.0" y="598.0"/>
      <point x="39.0" y="603.0"/>
    </contour>
  </outline>
</glyph>
<glyph name="period" format="2">
  <advance height="1920" width="275"/>
  <unicode hex="002E"/>
  <outline>
    <contour>
      <point x="140.0" y="-3.0" type="curve" smooth="yes"/>
      <point x="136.0" y="-3.0" type="line" smooth="yes"/>
      <point x="123.0" y="-3.0"/>
      <point x="114.0" y="6.0"/>
      <point x="114.0" y="18.0" type="curve" smooth="yes"/>
      <point x="114.0" y="192.0" type="line" smooth="yes"/>
      <point x="114.0" y="204.0"/>
      <point x="123.0" y="213.0"/>
      <point x="136.0" y="213.0" type="curve" smooth="yes"/>
      <point x="140.0" y="213.0" type="line" smooth="yes"/>
      <point x="153.0" y="213.0"/>
      <point x="160.0" y="204.0"/>
      <point x="160.0" y="192.0" type="curve" smooth="yes"/>
      <point x="160.0" y="18.0" type="line" smooth="yes"/>
      <point x="160.0" y="6.0"/>
      <point x="153.0" y="-3.0"/>
    </contour>
  </outline>
</glyph>
<glyph name="slash" format="2">
  <advance height="2048" width="380"/>
  <unicode hex="002F"/>
  <outline>
    <contour>
      <point x="360.0" y="1386.0" type="curve" smooth="yes"/>
      <point x="56.0" y="-82.0" type="line" smooth="yes"/>
      <point x="53.1375867932" y="-95.8224427223"/>
      <point x="47.0" y="-103.0"/>
      <point x="38.0" y="-103.0" type="curve" smooth="yes"/>
      <point x="36.0" y="-103.0" type="line" smooth="yes"/>
      <point x="29.0" y="-103.0"/>
      <point x="23.1788722113" y="-95.6230776114"/>
      <point x="26.0" y="-82.0" type="curve" smooth="yes"/>
      <point x="330.0" y="1386.0" type="line" smooth="yes"/>
      <point x="332.423889211" y="1397.70483343"/>
      <point x="340.0" y="1403.0"/>
      <point x="347.0" y="1403.0" type="curve" smooth="yes"/>
      <point x="349.0" y="1403.0" type="line" smooth="yes"/>
      <point x="356.0" y="1403.0"/>
      <point x="362.423889211" y="1397.70483343"/>
    </contour>
  </outline>
</glyph>
<glyph name="one" format="2">
  <advance height="1920" width="232"/>
  <unicode hex="0031"/>
  <outline>
    <contour>
      <point x="107.0" y="1400.0" type="curve" smooth="yes"/>
      <point x="110.0" y="1408.0"/>
      <point x="112.0" y="1420.0"/>
      <point x="114.0" y="1438.0" type="curve" smooth="yes"/>
      <point x="115.0" y="1446.0"/>
      <point x="117.0" y="1450.0"/>
      <point x="122.0" y="1450.0" type="curve" smooth="yes"/>
      <point x="123.0" y="1450.0" type="line" smooth="yes"/>
      <point x="129.0" y="1450.0"/>
      <point x="131.0" y="1445.0"/>
      <point x="131.0" y="1436.0" type="curve" smooth="yes"/>
      <point x="131.0" y="16.0" type="line" smooth="yes"/>
      <point x="131.0" y="3.0"/>
      <point x="128.0" y="-3.0"/>
      <point x="117.0" y="-3.0" type="curve" smooth="yes"/>
      <point x="116.0" y="-3.0" type="line" smooth="yes"/>
      <point x="105.0" y="-3.0"/>
      <point x="101.0" y="3.0"/>
      <point x="101.0" y="16.0" type="curve" smooth="yes"/>
      <point x="101.0" y="1377.0" type="line" smooth="yes"/>
      <point x="101.0" y="1388.0"/>
      <point x="105.0" y="1395.0"/>
    </contour>
  </outline>
</glyph>
<glyph name="two" format="2">
  <advance height="1920" width="357"/>
  <unicode hex="0032"/>
  <outline>
    <contour>
      <point x="60.0" y="130.0" type="line" smooth="yes"/>
      <point x="60.0" y="482.0"/>
      <point x="258.0" y="668.0"/>
      <point x="258.0" y="967.0" type="curve" smooth="yes"/>
      <point x="258.0" y="1138.0" type="line" smooth="yes"/>
      <point x="258.0" y="1323.0"/>
      <point x="247.0" y="1375.0"/>
      <point x="185.0" y="1375.0" type="curve" smooth="yes"/>
      <point x="115.0" y="1375.0"/>
      <point x="102.0" y="1270.0"/>
      <point x="102.0" y="1140.0" type="curve" smooth="yes"/>
      <point x="102.0" y="827.0" type="line" smooth="yes"/>
      <point x="102.0" y="814.0"/>
      <point x="96.0" y="809.0"/>
      <point x="89.0" y="809.0" type="curve" smooth="yes"/>
      <point x="87.0" y="809.0" type="line" smooth="yes"/>
      <point x="80.0" y="809.0"/>
      <point x="72.0" y="814.0"/>
      <point x="72.0" y="827.0" type="curve" smooth="yes"/>
      <point x="72.0" y="1140.0" type="line" smooth="yes"/>
      <point x="72.0" y="1321.0"/>
      <point x="101.0" y="1405.0"/>
      <point x="185.0" y="1405.0" type="curve" smooth="yes"/>
      <point x="274.0" y="1405.0"/>
      <point x="288.0" y="1340.0"/>
      <point x="288.0" y="1135.0" type="curve" smooth="yes"/>
      <point x="288.0" y="1005.0" type="line" smooth="yes"/>
      <point x="288.0" y="647.0"/>
      <point x="90.0" y="460.0"/>
      <point x="90.0" y="150.0" type="curve" smooth="yes"/>
      <point x="90.0" y="30.0" type="line"/>
      <point x="291.0" y="30.0" type="line" smooth="yes"/>
      <point x="301.0" y="30.0"/>
      <point x="308.0" y="25.0"/>
      <point x="308.0" y="16.0" type="curve" smooth="yes"/>
      <point x="308.0" y="14.0" type="line" smooth="yes"/>
      <point x="308.0" y="5.0"/>
      <point x="301.0" y="-1.22464679915e-15"/>
      <point x="291.0" y="0.0" type="curve" smooth="yes"/>
      <point x="85.0" y="0.0" type="line" smooth="yes"/>
      <point x="66.0" y="0.0"/>
      <point x="60.0" y="6.0"/>
      <point x="60.0" y="25.0" type="curve" smooth="yes"/>
    </contour>
  </outline>
</glyph>
<glyph name="three" format="2">
  <advance height="1920" width="408"/>
  <unicode hex="0033"/>
  <outline>
    <contour>
      <point x="74.0" y="410.0" type="curve" smooth="yes"/>
      <point x="76.0" y="410.0" type="line" smooth="yes"/>
      <point x="86.0" y="410.0"/>
      <point x="90.0" y="402.0"/>
      <point x="90.0" y="392.0" type="curve" smooth="yes"/>
      <point x="90.0" y="164.0" type="line" smooth="yes"/>
      <point x="90.0" y="74.0"/>
      <point x="125.0" y="25.0"/>
      <point x="205.0" y="25.0" type="curve" smooth="yes"/>
      <point x="280.0" y="25.0"/>
      <point x="318.0" y="71.0"/>
      <point x="318.0" y="176.0" type="curve" smooth="yes"/>
      <point x="318.0" y="564.0" type="line" smooth="yes"/>
      <point x="318.0" y="649.0"/>
      <point x="298.0" y="700.0"/>
      <point x="195.0" y="700.0" type="curve" smooth="yes"/>
      <point x="175.0" y="700.0" type="line" smooth="yes"/>
      <point x="155.0" y="700.0"/>
      <point x="147.0" y="704.0"/>
      <point x="147.0" y="714.0" type="curve" smooth="yes"/>
      <point x="147.0" y="716.0" type="line" smooth="yes"/>
      <point x="147.0" y="725.0"/>
      <point x="155.0" y="730.0"/>
      <point x="175.0" y="730.0" type="curve" smooth="yes"/>
      <point x="185.0" y="730.0" type="line" smooth="yes"/>
      <point x="273.0" y="730.0"/>
      <point x="292.0" y="772.0"/>
      <point x="292.0" y="852.0" type="curve" smooth="yes"/>
      <point x="292.0" y="1243.0" type="line" smooth="yes"/>
      <point x="292.0" y="1328.0"/>
      <point x="273.0" y="1375.0"/>
      <point x="200.0" y="1375.0" type="curve" smooth="yes"/>
      <point x="130.0" y="1375.0"/>
      <point x="108.0" y="1321.0"/>
      <point x="108.0" y="1225.0" type="curve" smooth="yes"/>
      <point x="108.0" y="966.0" type="line" smooth="yes"/>
      <point x="108.0" y="954.0"/>
      <point x="102.0" y="949.0"/>
      <point x="93.0" y="949.0" type="curve" smooth="yes"/>
      <point x="91.0" y="949.0" type="line" smooth="yes"/>
      <point x="82.0" y="949.0"/>
      <point x="78.0" y="954.0"/>
      <point x="78.0" y="966.0" type="curve" smooth="yes"/>
      <point x="78.0" y="1225.0" type="line" smooth="yes"/>
      <point x="78.0" y="1342.0"/>
      <point x="106.0" y="1405.0"/>
      <point x="200.0" y="1405.0" type="curve" smooth="yes"/>
      <point x="294.0" y="1405.0"/>
      <point x="322.0" y="1356.0"/>
      <point x="322.0" y="1241.0" type="curve" smooth="yes"/>
      <point x="322.0" y="869.0" type="line" smooth="yes"/>
      <point x="322.0" y="744.0"/>
      <point x="283.0" y="710.0"/>
      <point x="185.0" y="710.0" type="curve"/>
      <point x="195.0" y="723.0" type="line"/>
      <point x="318.0" y="723.0"/>
      <point x="348.0" y="676.0"/>
      <point x="348.0" y="551.0" type="curve" smooth="yes"/>
      <point x="348.0" y="174.0" type="line" smooth="yes"/>
      <point x="348.0" y="54.0"/>
      <point x="309.0" y="-5.0"/>
      <point x="205.0" y="-5.0" type="curve" smooth="yes"/>
      <point x="104.0" y="-5.0"/>
      <point x="60.0" y="50.0"/>
      <point x="60.0" y="164.0" type="curve" smooth="yes"/>
      <point x="60.0" y="392.0" type="line" smooth="yes"/>
      <point x="60.0" y="402.0"/>
      <point x="64.0" y="410.0"/>
    </contour>
  </outline>
</glyph>
<glyph name="four" format="2">
  <advance height="1920" width="425"/>
  <unicode hex="0034"/>
  <outline>
    <contour>
      <point x="387.0" y="421.0" type="curve" smooth="yes"/>
      <point x="387.0" y="419.0" type="line" smooth="yes"/>
      <point x="387.0" y="409.0"/>
      <point x="378.0" y="405.0"/>
      <point x="369.0" y="405.0" type="curve" smooth="yes"/>
      <point x="289.0" y="405.0" type="line"/>
      <point x="289.0" y="15.0" type="line" smooth="yes"/>
      <point x="289.0" y="4.0"/>
      <point x="283.0" y="-3.0"/>
      <point x="275.0" y="-3.0" type="curve" smooth="yes"/>
      <point x="273.0" y="-3.0" type="line" smooth="yes"/>
      <point x="265.0" y="-3.0"/>
      <point x="259.0" y="4.0"/>
      <point x="259.0" y="15.0" type="curve" smooth="yes"/>
      <point x="259.0" y="405.0" type="line"/>
      <point x="34.0" y="405.0" type="line" smooth="yes"/>
      <point x="25.0" y="405.0"/>
      <point x="19.0" y="409.0"/>
      <point x="19.0" y="418.0" type="curve" smooth="yes"/>
      <point x="19.0" y="420.0" type="line" smooth="yes"/>
      <point x="19.0" y="424.0"/>
      <point x="21.0" y="431.0"/>
      <point x="22.0" y="435.0" type="curve" smooth="yes"/>
      <point x="270.0" y="1395.0" type="line" smooth="yes"/>
      <point x="271.031247966" y="1398.99192761"/>
      <point x="273.0" y="1403.0"/>
      <point x="279.0" y="1403.0" type="curve" smooth="yes"/>
      <point x="280.0" y="1403.0" type="line" smooth="yes"/>
      <point x="285.0" y="1403.0"/>
      <point x="289.0" y="1399.0"/>
      <point x="289.0" y="1391.0" type="curve" smooth="yes"/>
      <point x="289.0" y="435.0" type="line"/>
      <point x="369.0" y="435.0" type="line" smooth="yes"/>
      <point x="378.0" y="435.0"/>
      <point x="387.0" y="431.0"/>
    </contour>
    <contour>
      <point x="259.0" y="435.0" type="line"/>
      <point x="259.0" y="1260.0" type="line"/>
      <point x="46.0" y="435.0" type="line"/>
    </contour>
  </outline>
</glyph>
<glyph name="five" format="2">
  <advance height="1920" width="366"/>
  <unicode hex="0035"/>
  <outline>
    <contour>
      <point x="85.0" y="367.0" type="curve" smooth="yes"/>
      <point x="87.0" y="367.0" type="line" smooth="yes"/>
      <point x="95.0" y="367.0"/>
      <point x="101.0" y="358.0"/>
      <point x="101.0" y="350.0" type="curve" smooth="yes"/>
      <point x="101.0" y="81.0"/>
      <point x="126.0" y="25.0"/>
      <point x="178.0" y="25.0" type="curve" smooth="yes"/>
      <point x="242.0" y="25.0"/>
      <point x="256.0" y="133.0"/>
      <point x="256.0" y="319.0" type="curve" smooth="yes"/>
      <point x="256.0" y="612.0" type="line" smooth="yes"/>
      <point x="256.0" y="832.0"/>
      <point x="238.0" y="908.0"/>
      <point x="196.0" y="908.0" type="curve" smooth="yes"/>
      <point x="151.0" y="908.0"/>
      <point x="132.0" y="833.0"/>
      <point x="121.0" y="673.0" type="curve" smooth="yes"/>
      <point x="120.036528227" y="658.985865125"/>
      <point x="116.0" y="650.0"/>
      <point x="101.0" y="650.0" type="curve" smooth="yes"/>
      <point x="100.0" y="650.0" type="line" smooth="yes"/>
      <point x="88.0" y="650.0"/>
      <point x="81.129288351" y="656.945537867"/>
      <point x="82.0" y="675.0" type="curve" smooth="yes"/>
      <point x="116.0" y="1380.0" type="line" smooth="yes"/>
      <point x="116.673643921" y="1393.96820483"/>
      <point x="121.0" y="1400.0"/>
      <point x="132.0" y="1400.0" type="curve" smooth="yes"/>
      <point x="312.0" y="1400.0" type="line" smooth="yes"/>
      <point x="329.0" y="1400.0"/>
      <point x="336.0" y="1399.0"/>
      <point x="336.0" y="1390.0" type="curve" smooth="yes"/>
      <point x="336.0" y="1389.0" type="line" smooth="yes"/>
      <point x="336.0" y="1380.0"/>
      <point x="321.0" y="1370.0"/>
      <point x="236.0" y="1370.0" type="curve" smooth="yes"/>
      <point x="145.0" y="1370.0" type="line"/>
      <point x="113.0" y="690.0" type="line"/>
      <point x="105.0" y="690.0" type="line"/>
      <point x="112.0" y="802.0"/>
      <point x="126.0" y="938.0"/>
      <point x="196.0" y="938.0" type="curve" smooth="yes"/>
      <point x="271.0" y="938.0"/>
      <point x="286.0" y="854.0"/>
      <point x="286.0" y="596.0" type="curve" smooth="yes"/>
      <point x="286.0" y="294.0" type="line" smooth="yes"/>
      <point x="286.0" y="76.0"/>
      <point x="259.0" y="-5.0"/>
      <point x="178.0" y="-5.0" type="curve" smooth="yes"/>
      <point x="101.0" y="-5.0"/>
      <point x="71.0" y="40.9740270691"/>
      <point x="71.0" y="349.0" type="curve" smooth="yes"/>
      <point x="71.0" y="358.0"/>
      <point x="76.0" y="367.0"/>
    </contour>
  </outline>
</glyph>
<glyph name="six" format="2">
  <advance height="1920" width="421"/>
  <unicode hex="0036"/>
  <outline>
    <contour>
      <point x="224.0" y="764.0" type="curve" smooth="yes"/>
      <point x="144.0" y="764.0"/>
      <point x="106.0" y="687.0"/>
      <point x="106.0" y="595.0" type="curve" smooth="yes"/>
      <point x="106.0" y="560.0" type="line"/>
      <point x="98.0" y="610.0" type="line"/>
      <point x="98.0" y="722.0"/>
      <point x="136.0" y="794.0"/>
      <point x="224.0" y="794.0" type="curve" smooth="yes"/>
      <point x="312.0" y="794.0"/>
      <point x="344.0" y="734.0"/>
      <point x="344.0" y="577.0" type="curve" smooth="yes"/>
      <point x="344.0" y="204.0" type="line" smooth="yes"/>
      <point x="344.0" y="65.0"/>
      <point x="320.0" y="-5.0"/>
      <point x="214.0" y="-5.0" type="curve" smooth="yes"/>
      <point x="76.0" y="-5.0"/>
      <point x="76.0" y="84.0"/>
      <point x="76.0" y="264.0" type="curve" smooth="yes"/>
      <point x="76.0" y="1121.0" type="line" smooth="yes"/>
      <point x="76.0" y="1321.0"/>
      <point x="92.0" y="1405.0"/>
      <point x="200.0" y="1405.0" type="curve" smooth="yes"/>
      <point x="308.0" y="1405.0"/>
      <point x="316.0" y="1322.0"/>
      <point x="316.0" y="1190.0" type="curve" smooth="yes"/>
      <point x="316.0" y="975.0" type="line" smooth="yes"/>
      <point x="316.0" y="961.0"/>
      <point x="315.0" y="947.0"/>
      <point x="303.0" y="947.0" type="curve" smooth="yes"/>
      <point x="301.0" y="947.0" type="line" smooth="yes"/>
      <point x="289.0" y="947.0"/>
      <point x="286.0" y="961.0"/>
      <point x="286.0" y="975.0" type="curve" smooth="yes"/>
      <point x="286.0" y="1190.0" type="line" smooth="yes"/>
      <point x="286.0" y="1311.0"/>
      <point x="279.0" y="1375.0"/>
      <point x="200.0" y="1375.0" type="curve" smooth="yes"/>
      <point x="123.0" y="1375.0"/>
      <point x="106.0" y="1308.0"/>
      <point x="106.0" y="1118.0" type="curve" smooth="yes"/>
      <point x="106.0" y="211.0" type="line" smooth="yes"/>
      <point x="106.0" y="86.0"/>
      <point x="120.0" y="25.0"/>
      <point x="214.0" y="25.0" type="curve" smooth="yes"/>
      <point x="294.0" y="25.0"/>
      <point x="314.0" y="88.0"/>
      <point x="314.0" y="208.0" type="curve" smooth="yes"/>
      <point x="314.0" y="577.0" type="line" smooth="yes"/>
      <point x="314.0" y="719.0"/>
      <point x="286.0" y="764.0"/>
    </contour>
  </outline>
</glyph>
<glyph name="seven" format="2">
  <advance height="1920" width="334"/>
  <unicode hex="0037"/>
  <outline>
    <contour>
      <point x="302.0" y="1381.0" type="curve" smooth="yes"/>
      <point x="119.0" y="14.0" type="line" smooth="yes"/>
      <point x="117.649701116" y="3.91334112144"/>
      <point x="111.0" y="-3.0"/>
      <point x="102.0" y="-3.0" type="curve" smooth="yes"/>
      <point x="100.0" y="-3.0" type="line" smooth="yes"/>
      <point x="91.0" y="-3.0"/>
      <point x="87.7446871306" y="4.89730347093"/>
      <point x="89.0" y="14.0" type="curve" smooth="yes"/>
      <point x="276.0" y="1370.0" type="line"/>
      <point x="42.0" y="1370.0" type="line" smooth="yes"/>
      <point x="30.0" y="1370.0"/>
      <point x="23.0" y="1375.0"/>
      <point x="23.0" y="1384.0" type="curve" smooth="yes"/>
      <point x="23.0" y="1386.0" type="line" smooth="yes"/>
      <point x="23.0" y="1395.0"/>
      <point x="30.0" y="1400.0"/>
      <point x="42.0" y="1400.0" type="curve" smooth="yes"/>
      <point x="285.0" y="1400.0" type="line" smooth="yes"/>
      <point x="296.0" y="1400.0"/>
      <point x="304.007903653" y="1395.99893057"/>
    </contour>
  </outline>
</glyph>
<glyph name="eight" format="2">
  <advance height="1920" width="396"/>
  <unicode hex="0038"/>
  <outline>
    <contour>
      <point x="197.0" y="25.0" type="curve" smooth="yes"/>
      <point x="272.0" y="25.0"/>
      <point x="291.0" y="68.0"/>
      <point x="291.0" y="171.0" type="curve" smooth="yes"/>
      <point x="291.0" y="554.0" type="line" smooth="yes"/>
      <point x="291.0" y="638.0"/>
      <point x="282.0" y="692.0"/>
      <point x="197.0" y="692.0" type="curve" smooth="yes"/>
      <point x="112.0" y="692.0"/>
      <point x="105.0" y="638.0"/>
      <point x="105.0" y="554.0" type="curve" smooth="yes"/>
      <point x="105.0" y="171.0" type="line" smooth="yes"/>
      <point x="105.0" y="68.0"/>
      <point x="122.0" y="25.0"/>
    </contour>
    <contour>
      <point x="197.0" y="722.0" type="curve" smooth="yes"/>
      <point x="252.0" y="722.0"/>
      <point x="280.0" y="764.0"/>
      <point x="280.0" y="852.0" type="curve" smooth="yes"/>
      <point x="280.0" y="1243.0" type="line" smooth="yes"/>
      <point x="280.0" y="1336.0"/>
      <point x="251.0" y="1375.0"/>
      <point x="197.0" y="1375.0" type="curve" smooth="yes"/>
      <point x="143.0" y="1375.0"/>
      <point x="114.0" y="1336.0"/>
      <point x="114.0" y="1243.0" type="curve" smooth="yes"/>
      <point x="114.0" y="852.0" type="line" smooth="yes"/>
      <point x="114.0" y="764.0"/>
      <point x="142.0" y="722.0"/>
    </contour>
    <contour>
      <point x="213.0" y="712.0" type="line"/>
      <point x="303.0" y="712.0"/>
      <point x="321.0" y="652.0"/>
      <point x="321.0" y="536.0" type="curve" smooth="yes"/>
      <point x="321.0" y="174.0" type="line" smooth="yes"/>
      <point x="321.0" y="50.0"/>
      <point x="301.0" y="-5.0"/>
      <point x="197.0" y="-5.0" type="curve" smooth="yes"/>
      <point x="93.0" y="-5.0"/>
      <point x="75.0" y="50.0"/>
      <point x="75.0" y="174.0" type="curve" smooth="yes"/>
      <point x="75.0" y="536.0" type="line" smooth="yes"/>
      <point x="75.0" y="652.0"/>
      <point x="92.0" y="712.0"/>
      <point x="182.0" y="712.0" type="curve"/>
      <point x="183.0" y="702.0" type="line"/>
      <point x="120.0" y="705.0"/>
      <point x="84.0" y="749.0"/>
      <point x="84.0" y="869.0" type="curve" smooth="yes"/>
      <point x="84.0" y="1241.0" type="line" smooth="yes"/>
      <point x="84.0" y="1352.0"/>
      <point x="113.0" y="1405.0"/>
      <point x="197.0" y="1405.0" type="curve" smooth="yes"/>
      <point x="281.0" y="1405.0"/>
      <point x="310.0" y="1352.0"/>
      <point x="310.0" y="1241.0" type="curve" smooth="yes"/>
      <point x="310.0" y="869.0" type="line" smooth="yes"/>
      <point x="310.0" y="749.0"/>
      <point x="275.0" y="705.0"/>
      <point x="212.0" y="702.0" type="curve"/>
    </contour>
  </outline>
</glyph>
<glyph name="nine" format="2">
  <advance height="1920" width="406"/>
  <unicode hex="0039"/>
  <outline>
    <contour>
      <point x="190.0" y="636.0" type="curve" smooth="yes"/>
      <point x="270.0" y="636.0"/>
      <point x="308.0" y="713.0"/>
      <point x="308.0" y="805.0" type="curve" smooth="yes"/>
      <point x="308.0" y="840.0" type="line"/>
      <point x="316.0" y="790.0" type="line"/>
      <point x="316.0" y="678.0"/>
      <point x="278.0" y="606.0"/>
      <point x="190.0" y="606.0" type="curve" smooth="yes"/>
      <point x="102.0" y="606.0"/>
      <point x="70.0" y="666.0"/>
      <point x="70.0" y="823.0" type="curve" smooth="yes"/>
      <point x="70.0" y="1196.0" type="line" smooth="yes"/>
      <point x="70.0" y="1335.0"/>
      <point x="94.0" y="1405.0"/>
      <point x="200.0" y="1405.0" type="curve" smooth="yes"/>
      <point x="338.0" y="1405.0"/>
      <point x="338.0" y="1316.0"/>
      <point x="338.0" y="1136.0" type="curve" smooth="yes"/>
      <point x="338.0" y="279.0" type="line" smooth="yes"/>
      <point x="338.0" y="79.0"/>
      <point x="314.0" y="-5.0"/>
      <point x="206.0" y="-5.0" type="curve" smooth="yes"/>
      <point x="98.0" y="-5.0"/>
      <point x="74.0" y="78.0"/>
      <point x="74.0" y="210.0" type="curve" smooth="yes"/>
      <point x="74.0" y="425.0" type="line" smooth="yes"/>
      <point x="74.0" y="439.0"/>
      <point x="77.0" y="453.0"/>
      <point x="88.0" y="453.0" type="curve" smooth="yes"/>
      <point x="90.0" y="453.0" type="line" smooth="yes"/>
      <point x="101.0" y="453.0"/>
      <point x="104.0" y="439.0"/>
      <point x="104.0" y="425.0" type="curve" smooth="yes"/>
      <point x="104.0" y="210.0" type="line" smooth="yes"/>
      <point x="104.0" y="89.0"/>
      <point x="127.0" y="25.0"/>
      <point x="206.0" y="25.0" type="curve" smooth="yes"/>
      <point x="283.0" y="25.0"/>
      <point x="308.0" y="92.0"/>
      <point x="308.0" y="282.0" type="curve" smooth="yes"/>
      <point x="308.0" y="1189.0" type="line" smooth="yes"/>
      <point x="308.0" y="1314.0"/>
      <point x="294.0" y="1375.0"/>
      <point x="200.0" y="1375.0" type="curve" smooth="yes"/>
      <point x="120.0" y="1375.0"/>
      <point x="100.0" y="1312.0"/>
      <point x="100.0" y="1192.0" type="curve" smooth="yes"/>
      <point x="100.0" y="823.0" type="line" smooth="yes"/>
      <point x="100.0" y="681.0"/>
      <point x="128.0" y="636.0"/>
    </contour>
  </outline>
</glyph>
<glyph name="less" format="2">
  <advance height="1920" width="489"/>
  <unicode hex="003C"/>
  <outline>
    <contour>
      <point x="416.0" y="373.0" type="curve" smooth="yes"/>
      <point x="49.0" y="591.0" type="line" smooth="yes"/>
      <point x="45.9044050539" y="592.838800268"/>
      <point x="43.0" y="595.0"/>
      <point x="43.0" y="599.0" type="curve" smooth="yes"/>
      <point x="43.0" y="601.0" type="line" smooth="yes"/>
      <point x="43.0" y="605.0"/>
      <point x="45.9032834976" y="607.163383564"/>
      <point x="49.0" y="609.0" type="curve" smooth="yes"/>
      <point x="425.0" y="832.0" type="line" smooth="yes"/>
      <point x="433.851803982" y="837.249873106"/>
      <point x="442.0" y="832.0"/>
      <point x="442.0" y="823.0" type="curve" smooth="yes"/>
      <point x="442.0" y="822.0" type="line" smooth="yes"/>
      <point x="442.0" y="815.0"/>
      <point x="436.810731707" y="811.016585366"/>
      <point x="430.0" y="807.0" type="curve" smooth="yes"/>
      <point x="79.0" y="600.0" type="line"/>
      <point x="425.0" y="396.0" type="line" smooth="yes"/>
      <point x="435.52163241" y="389.796494186"/>
      <point x="442.0" y="385.0"/>
      <point x="442.0" y="379.0" type="curve" smooth="yes"/>
      <point x="442.0" y="378.0" type="line" smooth="yes"/>
      <point x="442.0" y="367.0"/>
      <point x="428.382848644" y="365.644520424"/>
    </contour>
  </outline>
</glyph>
<glyph name="equal" format="2">
  <advance height="1920" width="530"/>
  <unicode hex="003D"/>
  <outline>
    <contour>
      <point x="42.0" y="428.0" type="curve" smooth="yes"/>
      <point x="42.0" y="430.0" type="line" smooth="yes"/>
      <point x="42.0" y="439.0"/>
      <point x="47.0" y="444.0"/>
      <point x="58.0" y="444.0" type="curve" smooth="yes"/>
      <point x="472.0" y="444.0" type="line" smooth="yes"/>
      <point x="483.0" y="444.0"/>
      <point x="488.0" y="437.0"/>
      <point x="488.0" y="430.0" type="curve" smooth="yes"/>
      <point x="488.0" y="428.0" type="line" smooth="yes"/>
      <point x="488.0" y="421.0"/>
      <point x="483.0" y="414.0"/>
      <point x="472.0" y="414.0" type="curve" smooth="yes"/>
      <point x="58.0" y="414.0" type="line" smooth="yes"/>
      <point x="47.0" y="414.0"/>
      <point x="42.0" y="419.0"/>
    </contour>
    <contour>
      <point x="42.0" y="565.0" type="curve" smooth="yes"/>
      <point x="42.0" y="567.0" type="line" smooth="yes"/>
      <point x="42.0" y="576.0"/>
      <point x="47.0" y="581.0"/>
      <point x="58.0" y="581.0" type="curve" smooth="yes"/>
      <point x="472.0" y="581.0" type="line" smooth="yes"/>
      <point x="483.0" y="581.0"/>
      <point x="488.0" y="574.0"/>
      <point x="488.0" y="567.0" type="curve" smooth="yes"/>
      <point x="488.0" y="565.0" type="line" smooth="yes"/>
      <point x="488.0" y="558.0"/>
      <point x="483.0" y="551.0"/>
      <point x="472.0" y="551.0" type="curve" smooth="yes"/>
      <point x="58.0" y="551.0" type="line" smooth="yes"/>
      <point x="47.0" y="551.0"/>
      <point x="42.0" y="556.0"/>
    </contour>
  </outline>
</glyph>
<glyph name="greater" format="2">
  <advance height="1920" width="489"/>
  <unicode hex="003E"/>
  <outline>
    <contour>
      <point x="73.0" y="827.0" type="curve" smooth="yes"/>
      <point x="440.0" y="609.0" type="line" smooth="yes"/>
      <point x="443.095703125" y="607.161132812"/>
      <point x="446.0" y="605.0"/>
      <point x="446.0" y="601.0" type="curve" smooth="yes"/>
      <point x="446.0" y="599.0" type="line" smooth="yes"/>
      <point x="446.0" y="595.0"/>
      <point x="443.096679688" y="592.836914062"/>
      <point x="440.0" y="591.0" type="curve" smooth="yes"/>
      <point x="64.0" y="368.0" type="line" smooth="yes"/>
      <point x="55.1484375" y="362.75"/>
      <point x="47.0" y="368.0"/>
      <point x="47.0" y="377.0" type="curve" smooth="yes"/>
      <point x="47.0" y="378.0" type="line" smooth="yes"/>
      <point x="47.0" y="385.0"/>
      <point x="52.189453125" y="388.983398438"/>
      <point x="59.0" y="393.0" type="curve" smooth="yes"/>
      <point x="410.0" y="600.0" type="line"/>
      <point x="64.0" y="804.0" type="line" smooth="yes"/>
      <point x="53.478515625" y="810.203125"/>
      <point x="47.0" y="815.0"/>
      <point x="47.0" y="821.0" type="curve" smooth="yes"/>
      <point x="47.0" y="822.0" type="line" smooth="yes"/>
      <point x="47.0" y="833.0"/>
      <point x="60.6171875" y="834.35546875"/>
    </contour>
  </outline>
</glyph>
<glyph name="question" format="2">
  <advance height="1920" width="396"/>
  <unicode hex="003F"/>
  <outline>
    <contour>
      <point x="191.0" y="-3.0" type="curve" smooth="yes"/>
      <point x="187.0" y="-3.0" type="line" smooth="yes"/>
      <point x="174.0" y="-3.0"/>
      <point x="165.0" y="6.0"/>
      <point x="165.0" y="18.0" type="curve" smooth="yes"/>
      <point x="165.0" y="192.0" type="line" smooth="yes"/>
      <point x="165.0" y="204.0"/>
      <point x="174.0" y="213.0"/>
      <point x="187.0" y="213.0" type="curve" smooth="yes"/>
      <point x="191.0" y="213.0" type="line" smooth="yes"/>
      <point x="204.0" y="213.0"/>
      <point x="211.0" y="204.0"/>
      <point x="211.0" y="192.0" type="curve" smooth="yes"/>
      <point x="211.0" y="18.0" type="line" smooth="yes"/>
      <point x="211.0" y="6.0"/>
      <point x="204.0" y="-3.0"/>
    </contour>
    <contour>
      <point x="190.0" y="397.0" type="curve" smooth="yes"/>
      <point x="189.0" y="397.0" type="line" smooth="yes"/>
      <point x="183.0" y="397.0"/>
      <point x="182.0" y="401.0"/>
      <point x="182.0" y="404.0" type="curve" smooth="yes"/>
      <point x="181.0" y="585.0"/>
      <point x="276.0" y="645.0"/>
      <point x="276.0" y="982.0" type="curve" smooth="yes"/>
      <point x="276.0" y="1233.0" type="line" smooth="yes"/>
      <point x="276.0" y="1333.0"/>
      <point x="256.0" y="1437.0"/>
      <point x="198.0" y="1437.0" type="curve" smooth="yes"/>
      <point x="128.0" y="1437.0"/>
      <point x="120.0" y="1321.0"/>
      <point x="120.0" y="1225.0" type="curve" smooth="yes"/>
      <point x="120.0" y="967.0" type="line" smooth="yes"/>
      <point x="120.0" y="955.0"/>
      <point x="117.0" y="948.0"/>
      <point x="107.0" y="948.0" type="curve" smooth="yes"/>
      <point x="105.0" y="948.0" type="line" smooth="yes"/>
      <point x="95.0" y="948.0"/>
      <point x="90.0" y="955.0"/>
      <point x="90.0" y="967.0" type="curve" smooth="yes"/>
      <point x="90.0" y="1225.0" type="line" smooth="yes"/>
      <point x="90.0" y="1337.0"/>
      <point x="104.0" y="1467.0"/>
      <point x="198.0" y="1467.0" type="curve" smooth="yes"/>
      <point x="286.0" y="1467.0"/>
      <point x="306.0" y="1345.0"/>
      <point x="306.0" y="1235.0" type="curve" smooth="yes"/>
      <point x="306.0" y="994.0" type="line" smooth="yes"/>
      <point x="306.0" y="687.0"/>
      <point x="195.0" y="557.0"/>
      <point x="196.0" y="404.0" type="curve" smooth="yes"/>
      <point x="196.0" y="401.0"/>
      <point x="195.0" y="397.0"/>
    </contour>
  </outline>
</glyph>
<glyph name="at" format="2">
  <advance height="1920" width="770"/>
  <unicode hex="0040"/>
  <outline>
    <contour>
      <point x="473.0" y="199.0" type="line"/>
      <point x="473.0" y="84.0"/>
      <point x="448.0" y="-5.0"/>
      <point x="370.0" y="-5.0" type="curve" smooth="yes"/>
      <point x="306.0" y="-5.0"/>
      <point x="278.0" y="61.0"/>
      <point x="278.0" y="211.0" type="curve" smooth="yes"/>
      <point x="278.0" y="838.0" type="line" smooth="yes"/>
      <point x="278.0" y="998.0"/>
      <point x="301.0" y="1055.0"/>
      <point x="365.0" y="1055.0" type="curve" smooth="yes"/>
      <point x="434.0" y="1055.0"/>
      <point x="479.0" y="966.0"/>
      <point x="479.0" y="851.0" type="curve"/>
      <point x="462.0" y="841.0" type="line"/>
      <point x="462.0" y="946.0"/>
      <point x="418.0" y="1025.0"/>
      <point x="370.0" y="1025.0" type="curve" smooth="yes"/>
      <point x="316.0" y="1025.0"/>
      <point x="308.0" y="956.0"/>
      <point x="308.0" y="851.0" type="curve" smooth="yes"/>
      <point x="308.0" y="199.0" type="line" smooth="yes"/>
      <point x="308.0" y="94.0"/>
      <point x="331.0" y="25.0"/>
      <point x="375.0" y="25.0" type="curve" smooth="yes"/>
      <point x="433.0" y="25.0"/>
      <point x="462.0" y="104.0"/>
      <point x="462.0" y="209.0" type="curve"/>
    </contour>
    <contour>
      <point x="566.0" y="-312.0" type="curve" smooth="yes"/>
      <point x="532.0" y="-342.0"/>
      <point x="472.0" y="-365.0"/>
      <point x="392.0" y="-365.0" type="curve" smooth="yes"/>
      <point x="148.0" y="-365.0"/>
      <point x="90.0" y="-191.0"/>
      <point x="90.0" y="49.0" type="curve" smooth="yes"/>
      <point x="90.0" y="990.0" type="line" smooth="yes"/>
      <point x="90.0" y="1245.0"/>
      <point x="168.0" y="1405.0"/>
      <point x="392.0" y="1405.0" type="curve" smooth="yes"/>
      <point x="640.0" y="1405.0"/>
      <point x="680.0" y="1232.0"/>
      <point x="680.0" y="1016.0" type="curve" smooth="yes"/>
      <point x="680.0" y="235.0" type="line" smooth="yes"/>
      <point x="680.0" y="55.0"/>
      <point x="652.0" y="-5.0"/>
      <point x="574.0" y="-5.0" type="curve" smooth="yes"/>
      <point x="496.0" y="-5.0"/>
      <point x="462.0" y="55.0"/>
      <point x="462.0" y="165.0" type="curve" smooth="yes"/>
      <point x="462.0" y="941.0" type="line"/>
      <point x="473.0" y="1054.0" type="line" smooth="yes"/>
      <point x="474.175950349" y="1066.08021722"/>
      <point x="478.0" y="1070.0"/>
      <point x="483.0" y="1070.0" type="curve" smooth="yes"/>
      <point x="484.0" y="1070.0" type="line" smooth="yes"/>
      <point x="489.0" y="1070.0"/>
      <point x="492.0" y="1066.0"/>
      <point x="492.0" y="1056.0" type="curve" smooth="yes"/>
      <point x="492.0" y="185.0" type="line" smooth="yes"/>
      <point x="492.0" y="88.0"/>
      <point x="510.0" y="25.0"/>
      <point x="574.0" y="25.0" type="curve" smooth="yes"/>
      <point x="628.0" y="25.0"/>
      <point x="650.0" y="95.0"/>
      <point x="650.0" y="235.0" type="curve" smooth="yes"/>
      <point x="650.0" y="1016.0" type="line" smooth="yes"/>
      <point x="650.0" y="1226.0"/>
      <point x="600.0" y="1375.0"/>
      <point x="392.0" y="1375.0" type="curve" smooth="yes"/>
      <point x="194.0" y="1375.0"/>
      <point x="120.0" y="1226.0"/>
      <point x="120.0" y="996.0" type="curve" smooth="yes"/>
      <point x="120.0" y="45.0" type="line" smooth="yes"/>
      <point x="120.0" y="-165.0"/>
      <point x="168.0" y="-335.0"/>
      <point x="392.0" y="-335.0" type="curve" smooth="yes"/>
      <point x="468.0" y="-335.0"/>
      <point x="514.514386397" y="-311.364210202"/>
      <point x="551.0" y="-284.0" type="curve" smooth="yes"/>
      <point x="555.0" y="-281.0"/>
      <point x="563.518554688" y="-280.27734375"/>
      <point x="568.0" y="-287.0" type="curve" smooth="yes"/>
      <point x="570.0" y="-290.0" type="line" smooth="yes"/>
      <point x="576.127929688" y="-299.192382812"/>
      <point x="569.181292594" y="-309.192977123"/>
    </contour>
  </outline>
</glyph>
<glyph name="A" format="2">
  <advance height="960" width="393"/>
  <unicode hex="0041"/>
  <anchor x="187.0" y="0.0" name="bottom"/>
  <anchor x="330.0" y="0.0" name="ogonek"/>
  <anchor x="191.0" y="1400.0" name="top"/>
  <outline>
    <contour>
      <point x="91.0" y="475.0" type="line"/>
      <point x="288.0" y="475.0" type="line"/>
      <point x="288.0" y="445.0" type="line"/>
      <point x="91.0" y="445.0" type="line"/>
    </contour>
    <contour>
      <point x="190.0" y="1345.0" type="line"/>
      <point x="66.0" y="15.0" type="line" smooth="yes"/>
      <point x="64.8822267407" y="3.01098036402"/>
      <point x="60.0" y="-4.0"/>
      <point x="51.0" y="-4.0" type="curve" smooth="yes"/>
      <point x="50.0" y="-4.0" type="line" smooth="yes"/>
      <point x="41.0" y="-4.0"/>
      <point x="37.8815158039" y="3.01124752339"/>
      <point x="39.0" y="15.0" type="curve" smooth="yes"/>
      <point x="167.0" y="1387.0" type="line" smooth="yes"/>
      <point x="167.841034228" y="1396.01483564"/>
      <point x="175.0" y="1404.0"/>
      <point x="187.0" y="1404.0" type="curve" smooth="yes"/>
      <point x="194.0" y="1404.0" type="line" smooth="yes"/>
      <point x="206.0" y="1404.0"/>
      <point x="212.160208005" y="1396.11996062"/>
      <point x="213.0" y="1388.0" type="curve" smooth="yes"/>
      <point x="355.0" y="15.0" type="line" smooth="yes"/>
      <point x="356.340925858" y="2.03456899463"/>
      <point x="353.0" y="-4.0"/>
      <point x="339.0" y="-4.0" type="curve" smooth="yes"/>
      <point x="338.0" y="-4.0" type="line" smooth="yes"/>
      <point x="324.0" y="-4.0"/>
      <point x="320.354559206" y="1.03438957716"/>
      <point x="319.0" y="15.0" type="curve" smooth="yes"/>
    </contour>
  </outline>
</glyph>
<glyph name="B" format="2">
  <advance height="960" width="389"/>
  <unicode hex="0042"/>
  <anchor x="192.0" y="0.0" name="bottom"/>
  <anchor x="192.0" y="1400.0" name="top"/>
  <outline>
    <contour>
      <point x="106.0" y="725.0" type="line"/>
      <point x="187.0" y="725.0" type="line" smooth="yes"/>
      <point x="256.0" y="725.0"/>
      <point x="290.0" y="802.0"/>
      <point x="290.0" y="942.0" type="curve" smooth="yes"/>
      <point x="290.0" y="1134.0" type="line" smooth="yes"/>
      <point x="290.0" y="1294.0"/>
      <point x="266.0" y="1370.0"/>
      <point x="187.0" y="1370.0" type="curve" smooth="yes"/>
      <point x="106.0" y="1370.0" type="line"/>
    </contour>
    <contour>
      <point x="202.0" y="715.0" type="line"/>
      <point x="291.0" y="715.0"/>
      <point x="341.0" y="655.0"/>
      <point x="341.0" y="481.0" type="curve" smooth="yes"/>
      <point x="341.0" y="264.0" type="line" smooth="yes"/>
      <point x="341.0" y="64.0"/>
      <point x="296.0" y="0.0"/>
      <point x="202.0" y="0.0" type="curve" smooth="yes"/>
      <point x="101.0" y="0.0" type="line" smooth="yes"/>
      <point x="86.0" y="0.0"/>
      <point x="76.0" y="10.0"/>
      <point x="76.0" y="25.0" type="curve" smooth="yes"/>
      <point x="76.0" y="1375.0" type="line" smooth="yes"/>
      <point x="76.0" y="1390.0"/>
      <point x="86.0" y="1400.0"/>
      <point x="101.0" y="1400.0" type="curve" smooth="yes"/>
      <point x="192.0" y="1400.0" type="line" smooth="yes"/>
      <point x="286.0" y="1400.0"/>
      <point x="320.0" y="1317.0"/>
      <point x="320.0" y="1132.0" type="curve" smooth="yes"/>
      <point x="320.0" y="939.0" type="line" smooth="yes"/>
      <point x="320.0" y="794.0"/>
      <point x="281.0" y="710.0"/>
      <point x="192.0" y="710.0" type="curve"/>
    </contour>
    <contour>
      <point x="192.0" y="695.0" type="curve" smooth="yes"/>
      <point x="106.0" y="695.0" type="line"/>
      <point x="106.0" y="30.0" type="line"/>
      <point x="192.0" y="30.0" type="line" smooth="yes"/>
      <point x="286.0" y="30.0"/>
      <point x="311.0" y="96.0"/>
      <point x="311.0" y="271.0" type="curve" smooth="yes"/>
      <point x="311.0" y="468.0" type="line" smooth="yes"/>
      <point x="311.0" y="623.0"/>
      <point x="277.0" y="695.0"/>
    </contour>
  </outline>
</glyph>
<glyph name="C" format="2">
  <advance height="960" width="420"/>
  <unicode hex="0043"/>
  <anchor x="226.0" y="0.0" name="bottom"/>
  <anchor x="216.0" y="1400.0" name="top"/>
  <outline>
    <contour>
      <point x="362.0" y="593.0" type="curve" smooth="yes"/>
      <point x="362.0" y="553.0"/>
      <point x="362.0" y="525.0"/>
      <point x="362.0" y="490.0" type="curve" smooth="yes"/>
      <point x="360.0" y="95.0"/>
      <point x="343.0" y="-5.0"/>
      <point x="199.0" y="-5.0" type="curve" smooth="yes"/>
      <point x="60.0" y="-5.0"/>
      <point x="55.0" y="129.0"/>
      <point x="55.0" y="359.0" type="curve" smooth="yes"/>
      <point x="55.0" y="1042.0" type="line" smooth="yes"/>
      <point x="55.0" y="1292.0"/>
      <point x="90.0" y="1405.0"/>
      <point x="214.0" y="1405.0" type="curve" smooth="yes"/>
      <point x="337.0" y="1405.0"/>
      <point x="356.0" y="1266.0"/>
      <point x="357.0" y="940.0" type="curve" smooth="yes"/>
      <point x="357.0" y="916.0"/>
      <point x="357.0" y="912.0"/>
      <point x="357.0" y="886.0" type="curve" smooth="yes"/>
      <point x="357.0" y="872.0"/>
      <point x="354.0" y="859.0"/>
      <point x="343.0" y="859.0" type="curve" smooth="yes"/>
      <point x="341.0" y="859.0" type="line" smooth="yes"/>
      <point x="330.0" y="859.0"/>
      <point x="327.104951397" y="872.000441962"/>
      <point x="327.0" y="886.0" type="curve" smooth="yes"/>
      <point x="324.428569446" y="1229.00535487"/>
      <point x="313.0" y="1375.0"/>
      <point x="214.0" y="1375.0" type="curve" smooth="yes"/>
      <point x="95.0" y="1375.0"/>
      <point x="85.0" y="1241.0"/>
      <point x="85.0" y="1046.0" type="curve" smooth="yes"/>
      <point x="85.0" y="354.0" type="line" smooth="yes"/>
      <point x="85.0" y="169.0"/>
      <point x="87.0" y="25.0"/>
      <point x="199.0" y="25.0" type="curve" smooth="yes"/>
      <point x="326.0" y="25.0"/>
      <point x="332.0" y="135.990343448"/>
      <point x="332.0" y="593.0" type="curve" smooth="yes"/>
      <point x="332.0" y="605.0"/>
      <point x="337.0" y="611.0"/>
      <point x="346.0" y="611.0" type="curve" smooth="yes"/>
      <point x="348.0" y="611.0" type="line" smooth="yes"/>
      <point x="357.0" y="611.0"/>
      <point x="362.0" y="605.0"/>
    </contour>
  </outline>
</glyph>
<glyph name="D" format="2">
  <advance height="960" width="406"/>
  <unicode hex="0044"/>
  <anchor x="162.0" y="0.0" name="bottom"/>
  <anchor x="177.0" y="1400.0" name="top"/>
  <outline>
    <contour>
      <point x="173.0" y="0.0" type="curve" smooth="yes"/>
      <point x="101.0" y="0.0" type="line" smooth="yes"/>
      <point x="86.0" y="0.0"/>
      <point x="76.0" y="10.0"/>
      <point x="76.0" y="25.0" type="curve" smooth="yes"/>
      <point x="76.0" y="1375.0" type="line" smooth="yes"/>
      <point x="76.0" y="1390.0"/>
      <point x="86.0" y="1400.0"/>
      <point x="101.0" y="1400.0" type="curve" smooth="yes"/>
      <point x="173.0" y="1400.0" type="line" smooth="yes"/>
      <point x="296.0" y="1400.0"/>
      <point x="353.0" y="1275.0"/>
      <point x="353.0" y="1022.0" type="curve" smooth="yes"/>
      <point x="353.0" y="369.0" type="line" smooth="yes"/>
      <point x="353.0" y="116.0"/>
      <point x="316.0" y="0.0"/>
    </contour>
    <contour>
      <point x="173.0" y="30.0" type="line" smooth="yes"/>
      <point x="297.0" y="30.0"/>
      <point x="323.0" y="155.0"/>
      <point x="323.0" y="364.0" type="curve" smooth="yes"/>
      <point x="323.0" y="1026.0" type="line" smooth="yes"/>
      <point x="323.0" y="1235.0"/>
      <point x="276.0" y="1370.0"/>
      <point x="173.0" y="1370.0" type="curve" smooth="yes"/>
      <point x="106.0" y="1370.0" type="line"/>
      <point x="106.0" y="30.0" type="line"/>
    </contour>
  </outline>
</glyph>
<glyph name="E" format="2">
  <advance height="960" width="370"/>
  <unicode hex="0045"/>
  <anchor x="192.0" y="0.0" name="bottom"/>
  <anchor x="300.0" y="0.0" name="ogonek"/>
  <anchor x="192.0" y="1400.0" name="top"/>
  <outline>
    <contour>
      <point x="106.0" y="720.0" type="line"/>
      <point x="241.0" y="720.0" type="line" smooth="yes"/>
      <point x="253.0" y="720.0"/>
      <point x="259.0" y="716.0"/>
      <point x="259.0" y="708.0" type="curve" smooth="yes"/>
      <point x="259.0" y="707.0" type="line" smooth="yes"/>
      <point x="259.0" y="699.0"/>
      <point x="253.0" y="695.0"/>
      <point x="241.0" y="695.0" type="curve" smooth="yes"/>
      <point x="106.0" y="695.0" type="line"/>
      <point x="106.0" y="30.0" type="line"/>
      <point x="326.0" y="30.0" type="line" smooth="yes"/>
      <point x="337.0" y="30.0"/>
      <point x="344.0" y="24.0"/>
      <point x="344.0" y="16.0" type="curve" smooth="yes"/>
      <point x="344.0" y="14.0" type="line" smooth="yes"/>
      <point x="344.0" y="6.0"/>
      <point x="337.0" y="-1.34711147906e-15"/>
      <point x="326.0" y="0.0" type="curve" smooth="yes"/>
      <point x="101.0" y="0.0" type="line" smooth="yes"/>
      <point x="86.0" y="0.0"/>
      <point x="76.0" y="10.0"/>
      <point x="76.0" y="25.0" type="curve" smooth="yes"/>
      <point x="76.0" y="1375.0" type="line" smooth="yes"/>
      <point x="76.0" y="1390.0"/>
      <point x="86.0" y="1400.0"/>
      <point x="101.0" y="1400.0" type="curve" smooth="yes"/>
      <point x="314.0" y="1400.0" type="line" smooth="yes"/>
      <point x="326.0" y="1400.0"/>
      <point x="334.0" y="1395.0"/>
      <point x="334.0" y="1386.0" type="curve" smooth="yes"/>
      <point x="334.0" y="1384.0" type="line" smooth="yes"/>
      <point x="334.0" y="1374.0"/>
      <point x="326.0" y="1370.0"/>
      <point x="314.0" y="1370.0" type="curve" smooth="yes"/>
      <point x="106.0" y="1370.0" type="line"/>
    </contour>
  </outline>
</glyph>
<glyph name="F" format="2">
  <advance height="960" width="326"/>
  <unicode hex="0046"/>
  <anchor x="172.0" y="0.0" name="bottom"/>
  <anchor x="172.0" y="1400.0" name="top"/>
  <outline>
    <contour>
      <point x="106.0" y="720.0" type="line"/>
      <point x="246.0" y="720.0" type="line" smooth="yes"/>
      <point x="258.0" y="720.0"/>
      <point x="264.0" y="716.0"/>
      <point x="264.0" y="708.0" type="curve" smooth="yes"/>
      <point x="264.0" y="707.0" type="line" smooth="yes"/>
      <point x="264.0" y="699.0"/>
      <point x="258.0" y="695.0"/>
      <point x="246.0" y="695.0" type="curve" smooth="yes"/>
      <point x="106.0" y="695.0" type="line"/>
      <point x="106.0" y="15.0" type="line" smooth="yes"/>
      <point x="106.0" y="4.0"/>
      <point x="102.0" y="-3.0"/>
      <point x="92.0" y="-3.0" type="curve" smooth="yes"/>
      <point x="90.0" y="-3.0" type="line" smooth="yes"/>
      <point x="80.0" y="-3.0"/>
      <point x="76.0" y="4.0"/>
      <point x="76.0" y="15.0" type="curve" smooth="yes"/>
      <point x="76.0" y="1375.0" type="line" smooth="yes"/>
      <point x="76.0" y="1390.0"/>
      <point x="86.0" y="1400.0"/>
      <point x="101.0" y="1400.0" type="curve" smooth="yes"/>
      <point x="288.0" y="1400.0" type="line" smooth="yes"/>
      <point x="302.0" y="1400.0"/>
      <point x="309.0" y="1395.0"/>
      <point x="309.0" y="1386.0" type="curve" smooth="yes"/>
      <point x="309.0" y="1384.0" type="line" smooth="yes"/>
      <point x="309.0" y="1375.0"/>
      <point x="302.0" y="1370.0"/>
      <point x="288.0" y="1370.0" type="curve" smooth="yes"/>
      <point x="106.0" y="1370.0" type="line"/>
    </contour>
  </outline>
</glyph>
<glyph name="G" format="2">
  <advance height="960" width="420"/>
  <unicode hex="0047"/>
  <anchor x="212.0" y="0.0" name="bottom"/>
  <anchor x="211.0" y="1400.0" name="top"/>
  <outline>
    <contour>
      <point x="238.0" y="645.0" type="curve" smooth="yes"/>
      <point x="238.0" y="646.0" type="line" smooth="yes"/>
      <point x="238.0" y="653.0"/>
      <point x="242.0" y="660.0"/>
      <point x="256.0" y="660.0" type="curve" smooth="yes"/>
      <point x="337.0" y="660.0" type="line" smooth="yes"/>
      <point x="352.0" y="660.0"/>
      <point x="362.0" y="649.0"/>
      <point x="362.0" y="635.0" type="curve" smooth="yes"/>
      <point x="362.0" y="13.0" type="line" smooth="yes"/>
      <point x="362.0" y="0.0"/>
      <point x="358.0" y="-3.0"/>
      <point x="354.0" y="-3.0" type="curve" smooth="yes"/>
      <point x="353.0" y="-3.0" type="line" smooth="yes"/>
      <point x="349.0" y="-3.0"/>
      <point x="346.359462769" y="-0.0176874186087"/>
      <point x="346.0" y="13.0" type="curve" smooth="yes"/>
      <point x="332.0" y="520.0" type="line"/>
      <point x="352.0" y="640.0" type="line"/>
      <point x="342.0" y="165.0"/>
      <point x="313.0" y="-5.0"/>
      <point x="184.0" y="-5.0" type="curve" smooth="yes"/>
      <point x="79.0" y="-5.0"/>
      <point x="55.0" y="89.0"/>
      <point x="55.0" y="379.0" type="curve" smooth="yes"/>
      <point x="55.0" y="1022.0" type="line" smooth="yes"/>
      <point x="55.0" y="1272.0"/>
      <point x="79.0" y="1405.0"/>
      <point x="204.0" y="1405.0" type="curve" smooth="yes"/>
      <point x="323.0" y="1405.0"/>
      <point x="344.0" y="1310.0"/>
      <point x="345.0" y="1124.0" type="curve" smooth="yes"/>
      <point x="345.0" y="1040.0"/>
      <point x="347.0" y="961.02380615"/>
      <point x="347.0" y="877.0" type="curve" smooth="yes"/>
      <point x="347.0" y="865.0"/>
      <point x="340.0" y="860.0"/>
      <point x="333.0" y="860.0" type="curve" smooth="yes"/>
      <point x="331.0" y="860.0" type="line" smooth="yes"/>
      <point x="324.0" y="860.0"/>
      <point x="317.032083612" y="865.00004289"/>
      <point x="317.0" y="877.0" type="curve" smooth="yes"/>
      <point x="316.0" y="1251.02138976"/>
      <point x="323.0" y="1375.0"/>
      <point x="204.0" y="1375.0" type="curve" smooth="yes"/>
      <point x="98.0" y="1375.0"/>
      <point x="85.0" y="1221.0"/>
      <point x="85.0" y="1026.0" type="curve" smooth="yes"/>
      <point x="85.0" y="374.0" type="line" smooth="yes"/>
      <point x="85.0" y="139.0"/>
      <point x="99.0" y="25.0"/>
      <point x="184.0" y="25.0" type="curve" smooth="yes"/>
      <point x="288.0" y="25.0"/>
      <point x="320.0" y="176.0"/>
      <point x="332.0" y="638.0" type="curve"/>
      <point x="338.0" y="630.0" type="line"/>
      <point x="256.0" y="630.0" type="line" smooth="yes"/>
      <point x="242.0" y="630.0"/>
      <point x="238.0" y="638.0"/>
    </contour>
  </outline>
</glyph>
<glyph name="H" format="2">
  <advance height="960" width="400"/>
  <unicode hex="0048"/>
  <anchor x="182.0" y="0.0" name="bottom"/>
  <anchor x="181.0" y="1400.0" name="top"/>
  <outline>
    <contour>
      <point x="316.0" y="1403.0" type="curve" smooth="yes"/>
      <point x="318.0" y="1403.0" type="line" smooth="yes"/>
      <point x="329.0" y="1403.0"/>
      <point x="332.0" y="1393.0"/>
      <point x="332.0" y="1379.0" type="curve" smooth="yes"/>
      <point x="332.0" y="17.0" type="line" smooth="yes"/>
      <point x="332.0" y="3.0"/>
      <point x="325.0" y="-3.0"/>
      <point x="318.0" y="-3.0" type="curve" smooth="yes"/>
      <point x="316.0" y="-3.0" type="line" smooth="yes"/>
      <point x="309.0" y="-3.0"/>
      <point x="302.0" y="3.0"/>
      <point x="302.0" y="17.0" type="curve" smooth="yes"/>
      <point x="302.0" y="695.0" type="line"/>
      <point x="100.0" y="695.0" type="line"/>
      <point x="100.0" y="17.0" type="line" smooth="yes"/>
      <point x="100.0" y="3.0"/>
      <point x="94.0" y="-3.0"/>
      <point x="86.0" y="-3.0" type="curve" smooth="yes"/>
      <point x="84.0" y="-3.0" type="line" smooth="yes"/>
      <point x="76.0" y="-3.0"/>
      <point x="70.0" y="3.0"/>
      <point x="70.0" y="17.0" type="curve" smooth="yes"/>
      <point x="70.0" y="1379.0" type="line" smooth="yes"/>
      <point x="70.0" y="1393.0"/>
      <point x="73.0" y="1403.0"/>
      <point x="84.0" y="1403.0" type="curve" smooth="yes"/>
      <point x="86.0" y="1403.0" type="line" smooth="yes"/>
      <point x="97.0" y="1403.0"/>
      <point x="100.0" y="1393.0"/>
      <point x="100.0" y="1379.0" type="curve" smooth="yes"/>
      <point x="100.0" y="720.0" type="line"/>
      <point x="302.0" y="720.0" type="line"/>
      <point x="302.0" y="1379.0" type="line" smooth="yes"/>
      <point x="302.0" y="1393.0"/>
      <point x="305.0" y="1403.0"/>
    </contour>
  </outline>
</glyph>
<glyph name="I" format="2">
  <advance height="960" width="177"/>
  <unicode hex="0049"/>
  <anchor x="69.0" y="0.0" name="bottom"/>
  <anchor x="69.0" y="0.0" name="ogonek"/>
  <anchor x="70.0" y="1400.0" name="top"/>
  <outline>
    <contour>
      <point x="69.0" y="1403.0" type="curve" smooth="yes"/>
      <point x="71.0" y="1403.0" type="line" smooth="yes"/>
      <point x="82.0" y="1403.0"/>
      <point x="85.0" y="1389.0"/>
      <point x="85.0" y="1375.0" type="curve" smooth="yes"/>
      <point x="85.0" y="25.0" type="line" smooth="yes"/>
      <point x="85.0" y="5.0"/>
      <point x="81.0" y="-3.0"/>
      <point x="71.0" y="-3.0" type="curve" smooth="yes"/>
      <point x="69.0" y="-3.0" type="line" smooth="yes"/>
      <point x="59.0" y="-3.0"/>
      <point x="55.0" y="5.0"/>
      <point x="55.0" y="25.0" type="curve" smooth="yes"/>
      <point x="55.0" y="1375.0" type="line" smooth="yes"/>
      <point x="55.0" y="1389.0"/>
      <point x="58.0" y="1403.0"/>
    </contour>
  </outline>
</glyph>
<glyph name="J" format="2">
  <advance height="960" width="315"/>
  <unicode hex="004A"/>
  <anchor x="129.0" y="0.0" name="bottom"/>
  <anchor x="228.0" y="1400.0" name="top"/>
  <outline>
    <contour>
      <point x="220.0" y="1403.0" type="curve" smooth="yes"/>
      <point x="222.0" y="1403.0" type="line" smooth="yes"/>
      <point x="234.0" y="1403.0"/>
      <point x="237.0" y="1389.0"/>
      <point x="237.0" y="1375.0" type="curve" smooth="yes"/>
      <point x="237.0" y="269.0" type="line" smooth="yes"/>
      <point x="237.0" y="56.0"/>
      <point x="226.0" y="-5.0"/>
      <point x="137.0" y="-5.0" type="curve" smooth="yes"/>
      <point x="53.0" y="-5.0"/>
      <point x="40.0" y="57.0"/>
      <point x="40.0" y="239.0" type="curve" smooth="yes"/>
      <point x="40.0" y="647.0" type="line" smooth="yes"/>
      <point x="40.0" y="661.0"/>
      <point x="45.0" y="667.0"/>
      <point x="52.0" y="667.0" type="curve" smooth="yes"/>
      <point x="54.0" y="667.0" type="line" smooth="yes"/>
      <point x="61.0" y="667.0"/>
      <point x="66.0" y="661.0"/>
      <point x="66.0" y="647.0" type="curve" smooth="yes"/>
      <point x="66.0" y="244.0" type="line" smooth="yes"/>
      <point x="66.0" y="88.0"/>
      <point x="76.0" y="25.0"/>
      <point x="137.0" y="25.0" type="curve" smooth="yes"/>
      <point x="202.0" y="25.0"/>
      <point x="207.0" y="84.0"/>
      <point x="207.0" y="254.0" type="curve" smooth="yes"/>
      <point x="207.0" y="1375.0" type="line" smooth="yes"/>
      <point x="207.0" y="1389.0"/>
      <point x="208.0" y="1403.0"/>
    </contour>
  </outline>
</glyph>
<glyph name="K" format="2">
  <advance height="960" width="375"/>
  <unicode hex="004B"/>
  <anchor x="166.0" y="0.0" name="bottom"/>
  <anchor x="166.0" y="1400.0" name="top"/>
  <outline>
    <contour>
      <point x="84.0" y="1403.0" type="curve" smooth="yes"/>
      <point x="86.0" y="1403.0" type="line" smooth="yes"/>
      <point x="95.0" y="1403.0"/>
      <point x="100.0" y="1394.0"/>
      <point x="100.0" y="1380.0" type="curve" smooth="yes"/>
      <point x="100.0" y="15.0" type="line" smooth="yes"/>
      <point x="100.0" y="3.0"/>
      <point x="95.0" y="-3.0"/>
      <point x="86.0" y="-3.0" type="curve" smooth="yes"/>
      <point x="84.0" y="-3.0" type="line" smooth="yes"/>
      <point x="75.0" y="-3.0"/>
      <point x="70.0" y="3.0"/>
      <point x="70.0" y="15.0" type="curve" smooth="yes"/>
      <point x="70.0" y="1380.0" type="line" smooth="yes"/>
      <point x="70.0" y="1394.0"/>
      <point x="75.0" y="1403.0"/>
    </contour>
    <contour>
      <point x="151.0" y="757.0" type="line"/>
      <point x="170.0" y="815.0" type="line"/>
      <point x="340.0" y="19.0" type="line" smooth="yes"/>
      <point x="342.786136486" y="5.95432563138"/>
      <point x="337.0" y="-3.0"/>
      <point x="326.0" y="-3.0" type="curve" smooth="yes"/>
      <point x="325.0" y="-3.0" type="line" smooth="yes"/>
      <point x="311.0" y="-3.0"/>
      <point x="307.641269618" y="6.34248715603"/>
      <point x="305.0" y="19.0" type="curve" smooth="yes"/>
    </contour>
    <contour>
      <point x="305.0" y="1386.0" type="line" smooth="yes"/>
      <point x="307.981691081" y="1398.00454757"/>
      <point x="314.0" y="1403.0"/>
      <point x="321.0" y="1403.0" type="curve" smooth="yes"/>
      <point x="322.0" y="1403.0" type="line" smooth="yes"/>
      <point x="332.0" y="1403.0"/>
      <point x="336.83984757" y="1394.29177486"/>
      <point x="334.0" y="1383.0" type="curve" smooth="yes"/>
      <point x="166.0" y="715.0" type="line"/>
      <point x="164.0" y="723.0" type="line"/>
      <point x="78.0" y="385.0" type="line"/>
      <point x="75.0" y="460.0" type="line"/>
    </contour>
  </outline>
</glyph>
<glyph name="L" format="2">
  <advance height="960" width="273"/>
  <unicode hex="004C"/>
  <anchor x="166.0" y="0.0" name="bottom"/>
  <anchor x="86.0" y="1400.0" name="top"/>
  <outline>
    <contour>
      <point x="84.0" y="1403.0" type="curve" smooth="yes"/>
      <point x="86.0" y="1403.0" type="line" smooth="yes"/>
      <point x="97.0" y="1403.0"/>
      <point x="100.0" y="1392.0"/>
      <point x="100.0" y="1385.0" type="curve" smooth="yes"/>
      <point x="100.0" y="30.0" type="line"/>
      <point x="240.0" y="30.0" type="line" smooth="yes"/>
      <point x="251.0" y="30.0"/>
      <point x="258.0" y="26.0"/>
      <point x="258.0" y="16.0" type="curve" smooth="yes"/>
      <point x="258.0" y="14.0" type="line" smooth="yes"/>
      <point x="258.0" y="4.0"/>
      <point x="251.0" y="-1.34711147906e-15"/>
      <point x="240.0" y="0.0" type="curve" smooth="yes"/>
      <point x="95.0" y="0.0" type="line" smooth="yes"/>
      <point x="81.0" y="0.0"/>
      <point x="70.0" y="11.0"/>
      <point x="70.0" y="25.0" type="curve" smooth="yes"/>
      <point x="70.0" y="1385.0" type="line" smooth="yes"/>
      <point x="70.0" y="1392.0"/>
      <point x="73.0" y="1403.0"/>
    </contour>
  </outline>
</glyph>
<glyph name="M" format="2">
  <advance height="960" width="511"/>
  <unicode hex="004D"/>
  <anchor x="254.0" y="0.0" name="bottom"/>
  <anchor x="256.0" y="1400.0" name="top"/>
  <outline>
    <contour>
      <point x="95.0" y="1260.0" type="line"/>
      <point x="95.0" y="15.0" type="line" smooth="yes"/>
      <point x="95.0" y="6.0"/>
      <point x="92.0" y="-3.0"/>
      <point x="83.0" y="-3.0" type="curve" smooth="yes"/>
      <point x="82.0" y="-3.0" type="line" smooth="yes"/>
      <point x="73.0" y="-3.0"/>
      <point x="70.0" y="6.0"/>
      <point x="70.0" y="15.0" type="curve" smooth="yes"/>
      <point x="70.0" y="1375.0" type="line" smooth="yes"/>
      <point x="70.0" y="1390.0"/>
      <point x="75.0" y="1403.0"/>
      <point x="88.0" y="1403.0" type="curve" smooth="yes"/>
      <point x="90.0" y="1403.0" type="line" smooth="yes"/>
      <point x="101.0" y="1403.0"/>
      <point x="106.207096653" y="1393.78254747"/>
      <point x="108.0" y="1379.0" type="curve" smooth="yes"/>
      <point x="259.0" y="134.0" type="line"/>
      <point x="405.0" y="1381.0" type="line" smooth="yes"/>
      <point x="406.630491174" y="1394.92618147"/>
      <point x="414.0" y="1403.0"/>
      <point x="424.0" y="1403.0" type="curve" smooth="yes"/>
      <point x="425.0" y="1403.0" type="line" smooth="yes"/>
      <point x="437.0" y="1403.0"/>
      <point x="443.0" y="1393.0"/>
      <point x="443.0" y="1379.0" type="curve" smooth="yes"/>
      <point x="443.0" y="15.0" type="line" smooth="yes"/>
      <point x="443.0" y="6.00000478491"/>
      <point x="440.0" y="-3.0"/>
      <point x="429.0" y="-3.0" type="curve" smooth="yes"/>
      <point x="427.0" y="-3.0" type="line" smooth="yes"/>
      <point x="416.0" y="-3.0"/>
      <point x="413.0" y="6.0"/>
      <point x="413.0" y="15.0" type="curve" smooth="yes"/>
      <point x="413.0" y="1254.0" type="line"/>
      <point x="263.0" y="5.0" type="line" smooth="yes"/>
      <point x="262.526445797" y="1.05687200198"/>
      <point x="261.0" y="-2.0"/>
      <point x="257.0" y="-2.0" type="curve" smooth="yes"/>
      <point x="256.0" y="-2.0" type="line" smooth="yes"/>
      <point x="252.0" y="-2.0"/>
      <point x="249.483555498" y="1.05933669056"/>
      <point x="249.0" y="5.0" type="curve" smooth="yes"/>
    </contour>
  </outline>
</glyph>
<glyph name="N" format="2">
  <advance height="960" width="400"/>
  <unicode hex="004E"/>
  <anchor x="196.0" y="0.0" name="bottom"/>
  <anchor x="201.0" y="1400.0" name="top"/>
  <outline>
    <contour>
      <point x="316.0" y="1403.0" type="curve" smooth="yes"/>
      <point x="318.0" y="1403.0" type="line" smooth="yes"/>
      <point x="329.0" y="1403.0"/>
      <point x="332.0" y="1394.0"/>
      <point x="332.0" y="1378.0" type="curve" smooth="yes"/>
      <point x="332.0" y="15.0" type="line" smooth="yes"/>
      <point x="332.0" y="1.0"/>
      <point x="328.0" y="-3.0"/>
      <point x="324.0" y="-3.0" type="curve" smooth="yes"/>
      <point x="323.0" y="-3.0" type="line" smooth="yes"/>
      <point x="319.0" y="-3.0"/>
      <point x="313.551222612" y="0.0943461863145"/>
      <point x="311.0" y="15.0" type="curve" smooth="yes"/>
      <point x="76.0" y="1388.0" type="line"/>
      <point x="100.0" y="1328.0" type="line"/>
      <point x="100.0" y="15.0" type="line" smooth="yes"/>
      <point x="100.0" y="6.0"/>
      <point x="97.0" y="-3.0"/>
      <point x="86.0" y="-3.0" type="curve" smooth="yes"/>
      <point x="84.0" y="-3.0" type="line" smooth="yes"/>
      <point x="73.0" y="-3.0"/>
      <point x="70.0" y="6.0"/>
      <point x="70.0" y="15.0" type="curve" smooth="yes"/>
      <point x="70.0" y="1385.0" type="line" smooth="yes"/>
      <point x="70.0" y="1396.0"/>
      <point x="75.0" y="1403.0"/>
      <point x="83.0" y="1403.0" type="curve" smooth="yes"/>
      <point x="84.0" y="1403.0" type="line" smooth="yes"/>
      <point x="92.0" y="1403.0"/>
      <point x="99.1320719961" y="1393.85058623"/>
      <point x="101.0" y="1383.0" type="curve" smooth="yes"/>
      <point x="326.0" y="76.0" type="line"/>
      <point x="302.0" y="136.0" type="line"/>
      <point x="302.0" y="1378.0" type="line" smooth="yes"/>
      <point x="302.0" y="1394.0"/>
      <point x="305.0" y="1403.0"/>
    </contour>
  </outline>
</glyph>
<glyph name="P" format="2">
  <advance height="960" width="355"/>
  <unicode hex="0050"/>
  <anchor x="88.0" y="0.0" name="bottom"/>
  <anchor x="162.0" y="1400.0" name="top"/>
  <outline>
    <contour>
      <point x="106.0" y="1370.0" type="line"/>
      <point x="106.0" y="665.0" type="line"/>
      <point x="156.0" y="665.0" type="line" smooth="yes"/>
      <point x="217.0" y="665.0"/>
      <point x="270.0" y="679.0"/>
      <point x="270.0" y="859.0" type="curve" smooth="yes"/>
      <point x="270.0" y="1161.0" type="line" smooth="yes"/>
      <point x="270.0" y="1321.0"/>
      <point x="227.0" y="1370.0"/>
      <point x="146.0" y="1370.0" type="curve" smooth="yes"/>
    </contour>
    <contour>
      <point x="121.0" y="1400.0" type="line" smooth="yes"/>
      <point x="255.0" y="1400.0"/>
      <point x="300.0" y="1351.0"/>
      <point x="300.0" y="1146.0" type="curve" smooth="yes"/>
      <point x="300.0" y="874.0" type="line" smooth="yes"/>
      <point x="300.0" y="669.0"/>
      <point x="247.0" y="635.0"/>
      <point x="141.0" y="635.0" type="curve" smooth="yes"/>
      <point x="106.0" y="635.0" type="line"/>
      <point x="106.0" y="15.0" type="line" smooth="yes"/>
      <point x="106.0" y="6.0"/>
      <point x="104.0" y="-4.0"/>
      <point x="92.0" y="-4.0" type="curve" smooth="yes"/>
      <point x="90.0" y="-4.0" type="line" smooth="yes"/>
      <point x="78.0" y="-4.0"/>
      <point x="76.0" y="6.0"/>
      <point x="76.0" y="15.0" type="curve" smooth="yes"/>
      <point x="76.0" y="1375.0" type="line" smooth="yes"/>
      <point x="76.0" y="1389.0"/>
      <point x="87.0" y="1400.0"/>
      <point x="101.0" y="1400.0" type="curve" smooth="yes"/>
    </contour>
  </outline>
</glyph>
<glyph name="S" format="2">
  <advance height="960" width="374"/>
  <unicode hex="0053"/>
  <anchor x="176.0" y="0.0" name="bottom"/>
  <anchor x="166.0" y="1400.0" name="top"/>
  <outline>
    <contour>
      <point x="69.0" y="527.0" type="curve" smooth="yes"/>
      <point x="71.0" y="527.0" type="line" smooth="yes"/>
      <point x="80.0" y="527.0"/>
      <point x="85.0" y="521.0"/>
      <point x="85.0" y="512.0" type="curve" smooth="yes"/>
      <point x="85.0" y="426.0"/>
      <point x="86.0" y="339.0"/>
      <point x="86.0" y="258.0" type="curve" smooth="yes"/>
      <point x="86.0" y="87.0"/>
      <point x="124.0" y="25.0"/>
      <point x="180.0" y="25.0" type="curve" smooth="yes"/>
      <point x="233.0" y="25.0"/>
      <point x="297.0" y="88.0"/>
      <point x="297.0" y="294.0" type="curve" smooth="yes"/>
      <point x="297.0" y="439.0"/>
      <point x="224.0" y="595.0"/>
      <point x="171.0" y="712.0" type="curve" smooth="yes"/>
      <point x="106.0" y="855.0"/>
      <point x="75.0" y="971.0"/>
      <point x="75.0" y="1166.0" type="curve" smooth="yes"/>
      <point x="75.0" y="1336.0"/>
      <point x="103.0" y="1405.0"/>
      <point x="192.0" y="1405.0" type="curve" smooth="yes"/>
      <point x="285.0" y="1405.0"/>
      <point x="301.0" y="1328.0"/>
      <point x="301.0" y="1150.0" type="curve" smooth="yes"/>
      <point x="301.0" y="915.0" type="line" smooth="yes"/>
      <point x="301.0" y="904.0"/>
      <point x="295.0" y="899.0"/>
      <point x="287.0" y="899.0" type="curve" smooth="yes"/>
      <point x="285.0" y="899.0" type="line" smooth="yes"/>
      <point x="277.0" y="899.0"/>
      <point x="271.0" y="905.0"/>
      <point x="271.0" y="915.0" type="curve" smooth="yes"/>
      <point x="271.0" y="997.0"/>
      <point x="271.0" y="1062.0"/>
      <point x="271.0" y="1146.0" type="curve" smooth="yes"/>
      <point x="271.0" y="1324.0"/>
      <point x="251.0" y="1375.0"/>
      <point x="192.0" y="1375.0" type="curve" smooth="yes"/>
      <point x="121.0" y="1375.0"/>
      <point x="105.0" y="1311.0"/>
      <point x="105.0" y="1166.0" type="curve" smooth="yes"/>
      <point x="105.0" y="976.0"/>
      <point x="133.0" y="869.0"/>
      <point x="198.0" y="732.0" type="curve" smooth="yes"/>
      <point x="255.0" y="611.0"/>
      <point x="327.0" y="472.0"/>
      <point x="327.0" y="294.0" type="curve" smooth="yes"/>
      <point x="327.0" y="71.0"/>
      <point x="255.0" y="-5.0"/>
      <point x="180.0" y="-5.0" type="curve" smooth="yes"/>
      <point x="109.0" y="-5.0"/>
      <point x="55.0" y="55.0"/>
      <point x="55.0" y="234.0" type="curve" smooth="yes"/>
      <point x="55.0" y="512.0" type="line" smooth="yes"/>
      <point x="55.0" y="520.0"/>
      <point x="61.0" y="527.0"/>
    </contour>
  </outline>
</glyph>
<glyph name="T" format="2">
  <advance height="960" width="369"/>
  <unicode hex="0054"/>
  <anchor x="184.0" y="0.0" name="bottom"/>
  <anchor x="184.0" y="1400.0" name="top"/>
  <outline>
    <contour>
      <point x="27.0" y="1400.0" type="curve" smooth="yes"/>
      <point x="342.0" y="1400.0" type="line" smooth="yes"/>
      <point x="353.0" y="1400.0"/>
      <point x="360.0" y="1395.0"/>
      <point x="360.0" y="1386.0" type="curve" smooth="yes"/>
      <point x="360.0" y="1384.0" type="line" smooth="yes"/>
      <point x="360.0" y="1375.0"/>
      <point x="353.0" y="1370.0"/>
      <point x="342.0" y="1370.0" type="curve" smooth="yes"/>
      <point x="202.0" y="1370.0" type="line"/>
      <point x="202.0" y="15.0" type="line" smooth="yes"/>
      <point x="202.0" y="4.0"/>
      <point x="196.0" y="-3.0"/>
      <point x="187.0" y="-3.0" type="curve" smooth="yes"/>
      <point x="182.0" y="-3.0" type="line" smooth="yes"/>
      <point x="173.0" y="-3.0"/>
      <point x="167.0" y="4.0"/>
      <point x="167.0" y="15.0" type="curve" smooth="yes"/>
      <point x="167.0" y="1370.0" type="line"/>
      <point x="27.0" y="1370.0" type="line" smooth="yes"/>
      <point x="16.0" y="1370.0"/>
      <point x="9.0" y="1375.0"/>
      <point x="9.0" y="1384.0" type="curve" smooth="yes"/>
      <point x="9.0" y="1386.0" type="line" smooth="yes"/>
      <point x="9.0" y="1395.0"/>
      <point x="16.0" y="1400.0"/>
    </contour>
  </outline>
</glyph>
<glyph name="U" format="2">
  <advance height="960" width="398"/>
  <unicode hex="0055"/>
  <anchor x="203.0" y="0.0" name="bottom"/>
  <anchor x="251.0" y="20.0" name="ogonek"/>
  <anchor x="203.0" y="1400.0" name="top"/>
  <outline>
    <contour>
      <point x="296.0" y="174.0" type="curve" smooth="yes"/>
      <point x="296.0" y="1385.0" type="line" smooth="yes"/>
      <point x="296.0" y="1395.0"/>
      <point x="301.0" y="1403.0"/>
      <point x="310.0" y="1403.0" type="curve" smooth="yes"/>
      <point x="312.0" y="1403.0" type="line" smooth="yes"/>
      <point x="321.0" y="1403.0"/>
      <point x="326.0" y="1395.0"/>
      <point x="326.0" y="1385.0" type="curve" smooth="yes"/>
      <point x="326.0" y="199.0" type="line" smooth="yes"/>
      <point x="326.0" y="59.0"/>
      <point x="285.0" y="-5.0"/>
      <point x="200.0" y="-5.0" type="curve" smooth="yes"/>
      <point x="125.0" y="-5.0"/>
      <point x="74.0" y="28.0"/>
      <point x="74.0" y="204.0" type="curve" smooth="yes"/>
      <point x="74.0" y="1385.0" type="line" smooth="yes"/>
      <point x="74.0" y="1393.0"/>
      <point x="82.0" y="1403.0"/>
      <point x="91.0" y="1403.0" type="curve" smooth="yes"/>
      <point x="92.0" y="1403.0" type="line" smooth="yes"/>
      <point x="101.0" y="1403.0"/>
      <point x="109.0" y="1393.0"/>
      <point x="109.0" y="1385.0" type="curve" smooth="yes"/>
      <point x="109.0" y="184.0" type="line" smooth="yes"/>
      <point x="109.0" y="64.0"/>
      <point x="145.0" y="25.0"/>
      <point x="200.0" y="25.0" type="curve" smooth="yes"/>
      <point x="260.0" y="25.0"/>
      <point x="296.0" y="84.0"/>
    </contour>
  </outline>
</glyph>
<glyph name="V" format="2">
  <advance height="960" width="390"/>
  <unicode hex="0056"/>
  <anchor x="203.0" y="0.0" name="bottom"/>
  <anchor x="202.0" y="1400.0" name="top"/>
  <outline>
    <contour>
      <point x="203.0" y="55.0" type="line"/>
      <point x="326.0" y="1380.0" type="line" smooth="yes"/>
      <point x="327.29706272" y="1393.97242361"/>
      <point x="331.0" y="1403.0"/>
      <point x="341.0" y="1403.0" type="curve" smooth="yes"/>
      <point x="342.0" y="1403.0" type="line" smooth="yes"/>
      <point x="350.0" y="1403.0"/>
      <point x="354.300888007" y="1393.97174206"/>
      <point x="353.0" y="1380.0" type="curve" smooth="yes"/>
      <point x="226.0" y="16.0" type="line" smooth="yes"/>
      <point x="224.707650435" y="2.11996215195"/>
      <point x="218.0" y="-3.0"/>
      <point x="208.0" y="-3.0" type="curve" smooth="yes"/>
      <point x="197.0" y="-3.0" type="line" smooth="yes"/>
      <point x="187.0" y="-3.0"/>
      <point x="181.128498701" y="6.01325907399"/>
      <point x="180.0" y="17.0" type="curve" smooth="yes"/>
      <point x="40.0" y="1380.0" type="line" smooth="yes"/>
      <point x="38.363274032" y="1395.93469639"/>
      <point x="48.0" y="1403.0"/>
      <point x="57.0" y="1403.0" type="curve" smooth="yes"/>
      <point x="60.0" y="1403.0" type="line" smooth="yes"/>
      <point x="69.0" y="1403.0"/>
      <point x="74.3750851419" y="1395.94005726"/>
      <point x="76.0" y="1379.0" type="curve" smooth="yes"/>
    </contour>
  </outline>
</glyph>
<glyph name="W" format="2">
  <advance height="960" width="655"/>
  <unicode hex="0057"/>
  <anchor x="337.0" y="0.0" name="bottom"/>
  <anchor x="337.0" y="1400.0" name="top"/>
  <outline>
    <contour>
      <point x="187.0" y="55.0" type="line"/>
      <point x="308.0" y="1387.0" type="line" smooth="yes"/>
      <point x="308.999255394" y="1398.00006764"/>
      <point x="312.0" y="1403.0"/>
      <point x="326.0" y="1403.0" type="curve" smooth="yes"/>
      <point x="345.0" y="1403.0" type="line" smooth="yes"/>
      <point x="359.0" y="1403.0"/>
      <point x="362.959942341" y="1396.99652714"/>
      <point x="364.0" y="1385.0" type="curve" smooth="yes"/>
      <point x="480.0" y="47.0" type="line"/>
      <point x="596.0" y="1385.0" type="line" smooth="yes"/>
      <point x="597.118647225" y="1397.90301713"/>
      <point x="602.0" y="1403.0"/>
      <point x="610.0" y="1403.0" type="curve" smooth="yes"/>
      <point x="611.0" y="1403.0" type="line" smooth="yes"/>
      <point x="620.0" y="1403.0"/>
      <point x="625.164101464" y="1398.07449496"/>
      <point x="624.0" y="1385.0" type="curve" smooth="yes"/>
      <point x="503.0" y="26.0" type="line" smooth="yes"/>
      <point x="501.409955939" y="8.14157125191"/>
      <point x="496.0" y="-3.0"/>
      <point x="485.0" y="-3.0" type="curve" smooth="yes"/>
      <point x="467.0" y="-3.0" type="line" smooth="yes"/>
      <point x="457.0" y="-3.0"/>
      <point x="450.323996694" y="7.02865276885"/>
      <point x="449.0" y="22.0" type="curve" smooth="yes"/>
      <point x="332.0" y="1345.0" type="line"/>
      <point x="210.0" y="18.0" type="line" smooth="yes"/>
      <point x="208.897624919" y="6.00941202705"/>
      <point x="203.0" y="-3.0"/>
      <point x="191.0" y="-3.0" type="curve" smooth="yes"/>
      <point x="177.0" y="-3.0" type="line" smooth="yes"/>
      <point x="165.0" y="-3.0"/>
      <point x="159.035181425" y="5.0025127156"/>
      <point x="158.0" y="17.0" type="curve" smooth="yes"/>
      <point x="41.0" y="1373.0" type="line" smooth="yes"/>
      <point x="39.2796977685" y="1392.93786176"/>
      <point x="45.0" y="1403.0"/>
      <point x="56.0" y="1403.0" type="curve" smooth="yes"/>
      <point x="57.0" y="1403.0" type="line" smooth="yes"/>
      <point x="66.0" y="1403.0"/>
      <point x="73.3054705236" y="1392.9409808"/>
      <point x="75.0" y="1373.0" type="curve" smooth="yes"/>
    </contour>
  </outline>
</glyph>
<glyph name="X" format="2">
  <advance height="960" width="387"/>
  <unicode hex="0058"/>
  <anchor x="191.0" y="0.0" name="bottom"/>
  <anchor x="190.0" y="1400.0" name="top"/>
  <outline>
    <contour>
      <point x="313.0" y="1403.0" type="curve" smooth="yes"/>
      <point x="314.0" y="1403.0" type="line" smooth="yes"/>
      <point x="324.0" y="1403.0"/>
      <point x="331.680481887" y="1395.05340919"/>
      <point x="330.0" y="1385.0" type="curve" smooth="yes"/>
      <point x="216.0" y="703.0" type="line"/>
      <point x="345.0" y="23.0" type="line" smooth="yes"/>
      <point x="347.737312673" y="8.57075490407"/>
      <point x="340.0" y="-3.0"/>
      <point x="329.0" y="-3.0" type="curve" smooth="yes"/>
      <point x="327.0" y="-3.0" type="line" smooth="yes"/>
      <point x="316.0" y="-3.0"/>
      <point x="309.587065774" y="8.27890891516"/>
      <point x="307.0" y="23.0" type="curve" smooth="yes"/>
      <point x="194.0" y="666.0" type="line"/>
      <point x="84.0" y="21.0" type="line" smooth="yes"/>
      <point x="81.5950948905" y="6.89851094891"/>
      <point x="72.0" y="-3.0"/>
      <point x="63.0" y="-3.0" type="curve" smooth="yes"/>
      <point x="60.0" y="-3.0" type="line" smooth="yes"/>
      <point x="51.0" y="-3.0"/>
      <point x="41.3217211596" y="7.32878562078"/>
      <point x="44.0" y="21.0" type="curve" smooth="yes"/>
      <point x="178.0" y="705.0" type="line"/>
      <point x="60.0" y="1379.0" type="line" smooth="yes"/>
      <point x="57.7619820589" y="1391.78325502"/>
      <point x="66.0" y="1403.0"/>
      <point x="77.0" y="1403.0" type="curve" smooth="yes"/>
      <point x="78.0" y="1403.0" type="line" smooth="yes"/>
      <point x="88.0" y="1403.0"/>
      <point x="95.655295989" y="1393.66589372"/>
      <point x="98.0" y="1379.0" type="curve" smooth="yes"/>
      <point x="200.0" y="741.0" type="line"/>
      <point x="294.0" y="1385.0" type="line" smooth="yes"/>
      <point x="295.3488427" y="1394.24100743"/>
      <point x="302.0" y="1403.0"/>
    </contour>
  </outline>
</glyph>
<glyph name="Y" format="2">
  <advance height="960" width="390"/>
  <unicode hex="0059"/>
  <anchor x="197.0" y="0.0" name="bottom"/>
  <anchor x="197.0" y="1400.0" name="top"/>
  <outline>
    <contour>
      <point x="339.0" y="1403.0" type="curve" smooth="yes"/>
      <point x="340.0" y="1403.0" type="line" smooth="yes"/>
      <point x="347.0" y="1403.0"/>
      <point x="353.332612862" y="1397.94004216"/>
      <point x="351.0" y="1385.0" type="curve" smooth="yes"/>
      <point x="214.0" y="625.0" type="line"/>
      <point x="214.0" y="20.0" type="line" smooth="yes"/>
      <point x="214.0" y="6.0"/>
      <point x="209.0" y="-3.0"/>
      <point x="198.0" y="-3.0" type="curve" smooth="yes"/>
      <point x="194.0" y="-3.0" type="line" smooth="yes"/>
      <point x="183.0" y="-3.0"/>
      <point x="178.0" y="6.0"/>
      <point x="178.0" y="20.0" type="curve" smooth="yes"/>
      <point x="178.0" y="625.0" type="line"/>
      <point x="42.0" y="1381.0" type="line" smooth="yes"/>
      <point x="39.497735716" y="1394.90964558"/>
      <point x="48.0" y="1403.0"/>
      <point x="56.0" y="1403.0" type="curve" smooth="yes"/>
      <point x="58.0" y="1403.0" type="line" smooth="yes"/>
      <point x="68.0" y="1403.0"/>
      <point x="72.5548099305" y="1394.92180798"/>
      <point x="75.0" y="1381.0" type="curve" smooth="yes"/>
      <point x="199.0" y="675.0" type="line"/>
      <point x="324.0" y="1385.0" type="line" smooth="yes"/>
      <point x="326.280051951" y="1397.95069508"/>
      <point x="333.0" y="1403.0"/>
    </contour>
  </outline>
</glyph>
<glyph name="Z" format="2">
  <advance height="960" width="366"/>
  <unicode hex="005A"/>
  <anchor x="205.0" y="0.0" name="bottom"/>
  <anchor x="204.0" y="1400.0" name="top"/>
  <outline>
    <contour>
      <point x="10.0" y="28.0" type="curve" smooth="yes"/>
      <point x="305.0" y="1370.0" type="line"/>
      <point x="77.0" y="1370.0" type="line" smooth="yes"/>
      <point x="64.0" y="1370.0"/>
      <point x="59.0" y="1375.0"/>
      <point x="59.0" y="1384.0" type="curve" smooth="yes"/>
      <point x="59.0" y="1386.0" type="line" smooth="yes"/>
      <point x="59.0" y="1395.0"/>
      <point x="64.0" y="1400.0"/>
      <point x="77.0" y="1400.0" type="curve" smooth="yes"/>
      <point x="319.0" y="1400.0" type="line" smooth="yes"/>
      <point x="334.0" y="1400.0"/>
      <point x="341.348575853" y="1389.36002029"/>
      <point x="338.0" y="1374.0" type="curve" smooth="yes"/>
      <point x="45.0" y="30.0" type="line"/>
      <point x="302.0" y="30.0" type="line" smooth="yes"/>
      <point x="323.0" y="30.0"/>
      <point x="330.0" y="25.0"/>
      <point x="330.0" y="16.0" type="curve" smooth="yes"/>
      <point x="330.0" y="14.0" type="line" smooth="yes"/>
      <point x="330.0" y="5.0"/>
      <point x="323.0" y="-2.57175827821e-15"/>
      <point x="302.0" y="0.0" type="curve" smooth="yes"/>
      <point x="29.0" y="0.0" type="line" smooth="yes"/>
      <point x="12.0" y="0.0"/>
      <point x="6.38919771249" y="11.5739095938"/>
    </contour>
  </outline>
</glyph>
<glyph name="bracketleft" format="2">
  <advance height="1920" width="275"/>
  <unicode hex="005B"/>
  <outline>
    <contour>
      <point x="105.0" y="1575.0" type="line"/>
      <point x="105.0" y="-335.0" type="line"/>
      <point x="235.0" y="-335.0" type="line" smooth="yes"/>
      <point x="245.0" y="-335.0"/>
      <point x="252.0" y="-338.0"/>
      <point x="252.0" y="-347.0" type="curve" smooth="yes"/>
      <point x="252.0" y="-348.0" type="line" smooth="yes"/>
      <point x="252.0" y="-357.0"/>
      <point x="245.0" y="-360.0"/>
      <point x="235.0" y="-360.0" type="curve" smooth="yes"/>
      <point x="100.0" y="-360.0" type="line" smooth="yes"/>
      <point x="86.0" y="-360.0"/>
      <point x="75.0" y="-349.0"/>
      <point x="75.0" y="-335.0" type="curve" smooth="yes"/>
      <point x="75.0" y="1575.0" type="line" smooth="yes"/>
      <point x="75.0" y="1589.0"/>
      <point x="86.0" y="1600.0"/>
      <point x="100.0" y="1600.0" type="curve" smooth="yes"/>
      <point x="235.0" y="1600.0" type="line" smooth="yes"/>
      <point x="247.0" y="1600.0"/>
      <point x="253.0" y="1596.0"/>
      <point x="253.0" y="1588.0" type="curve" smooth="yes"/>
      <point x="253.0" y="1587.0" type="line" smooth="yes"/>
      <point x="253.0" y="1579.0"/>
      <point x="247.0" y="1575.0"/>
      <point x="235.0" y="1575.0" type="curve" smooth="yes"/>
    </contour>
  </outline>
</glyph>
<glyph name="backslash" format="2">
  <advance height="2048" width="379"/>
  <unicode hex="005C"/>
  <outline>
    <contour>
      <point x="20.0" y="1386.0" type="line" smooth="yes"/>
      <point x="17.576171875" y="1397.70507812"/>
      <point x="24.0" y="1403.0"/>
      <point x="31.0" y="1403.0" type="curve" smooth="yes"/>
      <point x="33.0" y="1403.0" type="line" smooth="yes"/>
      <point x="40.0" y="1403.0"/>
      <point x="47.576171875" y="1397.70507812"/>
      <point x="50.0" y="1386.0" type="curve" smooth="yes"/>
      <point x="354.0" y="-82.0" type="line" smooth="yes"/>
      <point x="356.821289062" y="-95.623046875"/>
      <point x="351.0" y="-103.0"/>
      <point x="344.0" y="-103.0" type="curve" smooth="yes"/>
      <point x="342.0" y="-103.0" type="line" smooth="yes"/>
      <point x="333.0" y="-103.0"/>
      <point x="326.862304688" y="-95.822265625"/>
      <point x="324.0" y="-82.0" type="curve" smooth="yes"/>
    </contour>
  </outline>
</glyph>
<glyph name="bracketright" format="2">
  <advance height="1920" width="275"/>
  <unicode hex="005D"/>
  <outline>
    <contour>
      <point x="170.0" y="-335.0" type="line"/>
      <point x="170.0" y="1575.0" type="line"/>
      <point x="40.0" y="1575.0" type="line" smooth="yes"/>
      <point x="30.0" y="1575.0"/>
      <point x="23.0" y="1578.0"/>
      <point x="23.0" y="1587.0" type="curve" smooth="yes"/>
      <point x="23.0" y="1588.0" type="line" smooth="yes"/>
      <point x="23.0" y="1597.0"/>
      <point x="30.0" y="1600.0"/>
      <point x="40.0" y="1600.0" type="curve" smooth="yes"/>
      <point x="175.0" y="1600.0" type="line" smooth="yes"/>
      <point x="189.0" y="1600.0"/>
      <point x="200.0" y="1589.0"/>
      <point x="200.0" y="1575.0" type="curve" smooth="yes"/>
      <point x="200.0" y="-335.0" type="line" smooth="yes"/>
      <point x="200.0" y="-349.0"/>
      <point x="189.0" y="-360.0"/>
      <point x="175.0" y="-360.0" type="curve" smooth="yes"/>
      <point x="40.0" y="-360.0" type="line" smooth="yes"/>
      <point x="28.0" y="-360.0"/>
      <point x="22.0" y="-356.0"/>
      <point x="22.0" y="-348.0" type="curve" smooth="yes"/>
      <point x="22.0" y="-347.0" type="line" smooth="yes"/>
      <point x="22.0" y="-339.0"/>
      <point x="28.0" y="-335.0"/>
      <point x="40.0" y="-335.0" type="curve" smooth="yes"/>
    </contour>
  </outline>
</glyph>
<glyph name="asciicircum" format="2">
  <advance height="1920" width="386"/>
  <unicode hex="005E"/>
  <outline>
    <contour>
      <point x="192.0" y="1321.0" type="line"/>
      <point x="70.0" y="757.0" type="line" smooth="yes"/>
      <point x="64.9680221034" y="733.737413658"/>
      <point x="59.0" y="727.0"/>
      <point x="52.0" y="727.0" type="curve" smooth="yes"/>
      <point x="51.0" y="727.0" type="line" smooth="yes"/>
      <point x="45.0" y="727.0"/>
      <point x="34.7158271316" y="732.716117332"/>
      <point x="40.0" y="757.0" type="curve" smooth="yes"/>
      <point x="176.0" y="1382.0" type="line" smooth="yes"/>
      <point x="179.414607781" y="1397.69213135"/>
      <point x="184.0" y="1403.0"/>
      <point x="191.0" y="1403.0" type="curve" smooth="yes"/>
      <point x="193.0" y="1403.0" type="line" smooth="yes"/>
      <point x="200.0" y="1403.0"/>
      <point x="204.585321774" y="1396.69245508"/>
      <point x="208.0" y="1381.0" type="curve" smooth="yes"/>
      <point x="344.0" y="756.0" type="line" smooth="yes"/>
      <point x="347.667571046" y="739.145353648"/>
      <point x="346.0" y="727.0"/>
      <point x="334.0" y="727.0" type="curve" smooth="yes"/>
      <point x="332.0" y="727.0" type="line" smooth="yes"/>
      <point x="322.0" y="727.0"/>
      <point x="317.596365258" y="739.344701879"/>
      <point x="314.0" y="756.0" type="curve" smooth="yes"/>
    </contour>
  </outline>
</glyph>
<glyph name="underscore" format="2">
  <advance height="1920" width="450"/>
  <unicode hex="005F"/>
  <outline>
    <contour>
      <point x="-3.0" y="-16.0" type="curve" smooth="yes"/>
      <point x="-3.0" y="-14.0" type="line" smooth="yes"/>
      <point x="-3.0" y="-5.0"/>
      <point x="4.0" y="0.0"/>
      <point x="15.0" y="0.0" type="curve" smooth="yes"/>
      <point x="428.0" y="0.0" type="line" smooth="yes"/>
      <point x="447.0" y="-2.32682891838e-15"/>
      <point x="453.0" y="-5.0"/>
      <point x="453.0" y="-14.0" type="curve" smooth="yes"/>
      <point x="453.0" y="-15.0" type="line" smooth="yes"/>
      <point x="453.0" y="-24.0"/>
      <point x="447.0" y="-30.0"/>
      <point x="428.0" y="-30.0" type="curve" smooth="yes"/>
      <point x="15.0" y="-30.0" type="line" smooth="yes"/>
      <point x="4.0" y="-30.0"/>
      <point x="-3.0" y="-25.0"/>
    </contour>
  </outline>
</glyph>
<glyph name="grave" format="2">
  <advance width="311"/>
  <unicode hex="0060"/>
  <outline>
    <contour>
      <point x="202.0" y="1101.0" type="curve" smooth="yes"/>
      <point x="201.0" y="1101.0" type="line" smooth="yes"/>
      <point x="196.0" y="1101.0"/>
      <point x="191.315021288" y="1105.53705068"/>
      <point x="185.0" y="1121.0" type="curve" smooth="yes"/>
      <point x="78.0" y="1383.0" type="line" smooth="yes"/>
      <point x="73.1644458256" y="1394.84032891"/>
      <point x="83.0" y="1403.0"/>
      <point x="92.0" y="1403.0" type="curve" smooth="yes"/>
      <point x="93.0" y="1403.0" type="line" smooth="yes"/>
      <point x="103.0" y="1403.0"/>
      <point x="106.946692713" y="1395.88329686"/>
      <point x="112.0" y="1382.0" type="curve" smooth="yes"/>
      <point x="208.0" y="1121.0" type="line" smooth="yes"/>
      <point x="212.926800884" y="1107.6052601"/>
      <point x="207.0" y="1101.0"/>
    </contour>
  </outline>
</glyph>
<glyph name="a" format="2">
  <advance height="1104" width="318"/>
  <unicode hex="0061"/>
  <anchor x="144.0" y="0.0" name="bottom"/>
  <anchor x="245.0" y="0.0" name="ogonek"/>
  <anchor x="170.0" y="1050.0" name="top"/>
  <outline>
    <contour>
      <point x="85.0" y="288.0" type="curve" smooth="yes"/>
      <point x="85.0" y="56.0"/>
      <point x="111.0" y="23.0"/>
      <point x="150.0" y="23.0" type="curve" smooth="yes"/>
      <point x="190.0" y="23.0"/>
      <point x="226.0" y="86.0"/>
      <point x="226.0" y="288.0" type="curve"/>
      <point x="238.0" y="264.0" type="line"/>
      <point x="238.0" y="46.0"/>
      <point x="198.0" y="-5.0"/>
      <point x="142.0" y="-5.0" type="curve" smooth="yes"/>
      <point x="100.0" y="-5.0"/>
      <point x="55.0" y="19.0"/>
      <point x="55.0" y="282.0" type="curve" smooth="yes"/>
      <point x="55.0" y="467.0"/>
      <point x="97.0" y="526.0"/>
      <point x="150.0" y="594.0" type="curve" smooth="yes"/>
      <point x="187.0" y="641.0"/>
      <point x="226.0" y="679.0"/>
      <point x="226.0" y="780.0" type="curve"/>
      <point x="237.0" y="766.0" type="line"/>
      <point x="237.0" y="644.0"/>
      <point x="196.0" y="610.0"/>
      <point x="167.0" y="571.0" type="curve" smooth="yes"/>
      <point x="120.0" y="508.0"/>
      <point x="85.0" y="445.0"/>
    </contour>
    <contour>
      <point x="226.0" y="120.0" type="curve" smooth="yes"/>
      <point x="226.0" y="915.0" type="line" smooth="yes"/>
      <point x="226.0" y="997.0"/>
      <point x="207.0" y="1023.0"/>
      <point x="179.0" y="1023.0" type="curve" smooth="yes"/>
      <point x="132.0" y="1023.0"/>
      <point x="99.9375" y="975.051757812"/>
      <point x="99.0" y="736.0" type="curve" smooth="yes"/>
      <point x="98.9372558856" y="720.000969769"/>
      <point x="95.0" y="713.0"/>
      <point x="86.0" y="713.0" type="curve" smooth="yes"/>
      <point x="85.0" y="713.0" type="line" smooth="yes"/>
      <point x="76.0" y="713.0"/>
      <point x="70.9416486518" y="720.00097207"/>
      <point x="71.0" y="736.0" type="curve" smooth="yes"/>
      <point x="71.9375" y="993.047851562"/>
      <point x="109.0" y="1055.0"/>
      <point x="181.0" y="1055.0" type="curve" smooth="yes"/>
      <point x="229.0" y="1055.0"/>
      <point x="256.0" y="1011.0"/>
      <point x="256.0" y="907.0" type="curve" smooth="yes"/>
      <point x="256.0" y="120.0" type="line" smooth="yes"/>
      <point x="256.0" y="66.0"/>
      <point x="262.5390625" y="31.869140625"/>
      <point x="267.0" y="17.0" type="curve" smooth="yes"/>
      <point x="270.0" y="7.0"/>
      <point x="264.0" y="-3.0"/>
      <point x="255.0" y="-3.0" type="curve" smooth="yes"/>
      <point x="254.0" y="-3.0" type="line" smooth="yes"/>
      <point x="241.0" y="-3.0"/>
      <point x="238.821289062" y="7.4931640625"/>
      <point x="235.0" y="18.0" type="curve" smooth="yes"/>
      <point x="231.0" y="29.0"/>
      <point x="226.0" y="65.0"/>
    </contour>
  </outline>
</glyph>
<glyph name="c" format="2">
  <advance height="1104" width="317"/>
  <unicode hex="0063"/>
  <anchor x="181.0" y="0.0" name="bottom"/>
  <anchor x="167.0" y="1050.0" name="top"/>
  <outline>
    <contour>
      <point x="272.0" y="391.0" type="curve" smooth="yes"/>
      <point x="272.0" y="318.0"/>
      <point x="270.0" y="252.0"/>
      <point x="270.0" y="182.0" type="curve" smooth="yes"/>
      <point x="270.0" y="46.0"/>
      <point x="234.0" y="-5.0"/>
      <point x="162.0" y="-5.0" type="curve" smooth="yes"/>
      <point x="85.0" y="-5.0"/>
      <point x="54.0" y="55.0"/>
      <point x="54.0" y="251.0" type="curve" smooth="yes"/>
      <point x="54.0" y="801.0" type="line" smooth="yes"/>
      <point x="54.0" y="980.0"/>
      <point x="84.0" y="1054.0"/>
      <point x="166.0" y="1054.0" type="curve" smooth="yes"/>
      <point x="229.0" y="1054.0"/>
      <point x="265.0" y="1004.0"/>
      <point x="266.0" y="878.0" type="curve" smooth="yes"/>
      <point x="267.0" y="809.0"/>
      <point x="267.0" y="735.0"/>
      <point x="267.0" y="662.0" type="curve" smooth="yes"/>
      <point x="267.0" y="652.0"/>
      <point x="262.0" y="645.0"/>
      <point x="255.0" y="645.0" type="curve" smooth="yes"/>
      <point x="254.0" y="645.0" type="line" smooth="yes"/>
      <point x="247.0" y="645.0"/>
      <point x="242.0" y="651.0"/>
      <point x="242.0" y="661.0" type="curve" smooth="yes"/>
      <point x="242.0" y="736.0"/>
      <point x="242.0" y="805.0"/>
      <point x="241.0" y="874.0" type="curve" smooth="yes"/>
      <point x="240.0" y="996.0"/>
      <point x="204.0" y="1027.0"/>
      <point x="163.0" y="1027.0" type="curve" smooth="yes"/>
      <point x="101.0" y="1027.0"/>
      <point x="84.0" y="947.0"/>
      <point x="84.0" y="813.0" type="curve" smooth="yes"/>
      <point x="84.0" y="238.0" type="line" smooth="yes"/>
      <point x="84.0" y="66.0"/>
      <point x="107.0" y="23.0"/>
      <point x="166.0" y="23.0" type="curve" smooth="yes"/>
      <point x="211.0" y="23.0"/>
      <point x="248.0" y="44.0"/>
      <point x="248.0" y="184.0" type="curve" smooth="yes"/>
      <point x="248.0" y="254.0"/>
      <point x="250.0" y="318.972607879"/>
      <point x="250.0" y="392.0" type="curve" smooth="yes"/>
      <point x="250.0" y="402.0"/>
      <point x="255.0" y="406.0"/>
      <point x="261.0" y="406.0" type="curve" smooth="yes"/>
      <point x="262.0" y="406.0" type="line" smooth="yes"/>
      <point x="268.0" y="406.0"/>
      <point x="272.0" y="401.0"/>
    </contour>
  </outline>
</glyph>
<glyph name="d" format="2">
  <advance height="1104" width="344"/>
  <unicode hex="0064"/>
  <outline>
    <contour>
      <point x="254.0" y="231.0" type="line"/>
      <point x="254.0" y="70.0"/>
      <point x="226.0" y="-10.0"/>
      <point x="155.0" y="-10.0" type="curve" smooth="yes"/>
      <point x="104.0" y="-10.0"/>
      <point x="56.0" y="31.0"/>
      <point x="56.0" y="215.0" type="curve" smooth="yes"/>
      <point x="56.0" y="836.0" type="line" smooth="yes"/>
      <point x="56.0" y="998.0"/>
      <point x="91.0" y="1070.0"/>
      <point x="157.0" y="1070.0" type="curve" smooth="yes"/>
      <point x="224.0" y="1070.0"/>
      <point x="256.0" y="979.0"/>
      <point x="256.0" y="818.0" type="curve"/>
      <point x="245.0" y="815.0" type="line"/>
      <point x="245.0" y="936.0"/>
      <point x="212.0" y="1041.0"/>
      <point x="159.0" y="1041.0" type="curve" smooth="yes"/>
      <point x="109.0" y="1041.0"/>
      <point x="90.0" y="951.0"/>
      <point x="90.0" y="848.0" type="curve" smooth="yes"/>
      <point x="90.0" y="201.0" type="line" smooth="yes"/>
      <point x="90.0" y="75.0"/>
      <point x="117.0" y="19.0"/>
      <point x="167.0" y="19.0" type="curve" smooth="yes"/>
      <point x="218.0" y="19.0"/>
      <point x="245.0" y="113.0"/>
      <point x="245.0" y="234.0" type="curve"/>
    </contour>
    <contour>
      <point x="276.0" y="1434.0" type="curve" smooth="yes"/>
      <point x="276.0" y="16.0" type="line" smooth="yes"/>
      <point x="276.0" y="4.0"/>
      <point x="272.0" y="-3.0"/>
      <point x="264.0" y="-3.0" type="curve" smooth="yes"/>
      <point x="262.0" y="-3.0" type="line" smooth="yes"/>
      <point x="254.0" y="-3.0"/>
      <point x="249.0" y="4.0"/>
      <point x="249.0" y="16.0" type="curve" smooth="yes"/>
      <point x="249.0" y="149.0" type="line"/>
      <point x="245.0" y="167.0" type="line"/>
      <point x="245.0" y="1434.0" type="line" smooth="yes"/>
      <point x="245.0" y="1446.0"/>
      <point x="251.0" y="1453.0"/>
      <point x="260.0" y="1453.0" type="curve" smooth="yes"/>
      <point x="262.0" y="1453.0" type="line" smooth="yes"/>
      <point x="271.0" y="1453.0"/>
      <point x="276.0" y="1446.0"/>
    </contour>
  </outline>
</glyph>
<glyph name="e" format="2">
  <advance height="1104" width="336"/>
  <unicode hex="0065"/>
  <anchor x="176.0" y="0.0" name="bottom"/>
  <anchor x="200.0" y="15.0" name="ogonek"/>
  <anchor x="174.0" y="1050.0" name="top"/>
  <outline>
    <contour>
      <point x="273.0" y="383.0" type="curve" smooth="yes"/>
      <point x="271.666545886" y="312.955571955"/>
      <point x="270.0" y="267.0"/>
      <point x="267.0" y="208.0" type="curve" smooth="yes"/>
      <point x="257.0" y="38.0"/>
      <point x="227.0" y="-10.0"/>
      <point x="173.0" y="-10.0" type="curve" smooth="yes"/>
      <point x="100.0" y="-10.0"/>
      <point x="65.0" y="80.0"/>
      <point x="65.0" y="258.0" type="curve" smooth="yes"/>
      <point x="65.0" y="793.0" type="line" smooth="yes"/>
      <point x="65.0" y="965.0"/>
      <point x="98.0" y="1060.0"/>
      <point x="174.0" y="1060.0" type="curve" smooth="yes"/>
      <point x="246.0" y="1060.0"/>
      <point x="265.0" y="979.0"/>
      <point x="272.0" y="824.0" type="curve" smooth="yes"/>
      <point x="278.0" y="698.0"/>
      <point x="277.0" y="648.0"/>
      <point x="277.0" y="522.0" type="curve" smooth="yes"/>
      <point x="277.0" y="503.0"/>
      <point x="273.0" y="497.0"/>
      <point x="252.0" y="497.0" type="curve" smooth="yes"/>
      <point x="82.0" y="497.0" type="line"/>
      <point x="82.0" y="523.0" type="line"/>
      <point x="250.0" y="523.0" type="line"/>
      <point x="248.0" y="970.0"/>
      <point x="228.0" y="1033.0"/>
      <point x="174.0" y="1033.0" type="curve" smooth="yes"/>
      <point x="118.0" y="1033.0"/>
      <point x="95.0" y="935.0"/>
      <point x="95.0" y="805.0" type="curve" smooth="yes"/>
      <point x="95.0" y="245.0" type="line" smooth="yes"/>
      <point x="95.0" y="111.0"/>
      <point x="118.0" y="17.0"/>
      <point x="174.0" y="17.0" type="curve" smooth="yes"/>
      <point x="233.0" y="17.0"/>
      <point x="243.416025173" y="117.822154387"/>
      <point x="252.0" y="385.0" type="curve" smooth="yes"/>
      <point x="252.38527926" y="396.99189008"/>
      <point x="254.0" y="406.0"/>
      <point x="262.0" y="406.0" type="curve" smooth="yes"/>
      <point x="263.0" y="406.0" type="line" smooth="yes"/>
      <point x="271.0" y="406.0"/>
      <point x="273.285481335" y="397.99592419"/>
    </contour>
  </outline>
</glyph>
<glyph name="f" format="2">
  <advance height="1104" width="217"/>
  <unicode hex="0066"/>
  <outline>
    <contour>
      <point x="194.0" y="1025.0" type="curve" smooth="yes"/>
      <point x="51.0" y="1025.0" type="line" smooth="yes"/>
      <point x="42.0" y="1025.0"/>
      <point x="32.0" y="1028.0"/>
      <point x="32.0" y="1037.0" type="curve" smooth="yes"/>
      <point x="32.0" y="1038.0" type="line" smooth="yes"/>
      <point x="32.0" y="1047.0"/>
      <point x="42.0" y="1050.0"/>
      <point x="51.0" y="1050.0" type="curve" smooth="yes"/>
      <point x="194.0" y="1050.0" type="line" smooth="yes"/>
      <point x="209.0" y="1050.0"/>
      <point x="213.0" y="1047.0"/>
      <point x="213.0" y="1038.0" type="curve" smooth="yes"/>
      <point x="213.0" y="1037.0" type="line" smooth="yes"/>
      <point x="213.0" y="1028.0"/>
      <point x="209.0" y="1025.0"/>
    </contour>
    <contour>
      <point x="93.0" y="1315.0" type="line" smooth="yes"/>
      <point x="93.0" y="1434.0"/>
      <point x="101.340959288" y="1473.42354916"/>
      <point x="195.0" y="1462.0" type="curve" smooth="yes"/>
      <point x="205.964107954" y="1460.66271291"/>
      <point x="213.0" y="1458.0"/>
      <point x="213.0" y="1449.0" type="curve" smooth="yes"/>
      <point x="213.0" y="1448.0" type="line" smooth="yes"/>
      <point x="213.0" y="1440.0"/>
      <point x="203.987253332" y="1436.85730251"/>
      <point x="192.0" y="1438.0" type="curve" smooth="yes"/>
      <point x="122.513371326" y="1444.62388572"/>
      <point x="124.0" y="1398.0"/>
      <point x="124.0" y="1315.0" type="curve" smooth="yes"/>
      <point x="124.0" y="16.0" type="line" smooth="yes"/>
      <point x="124.0" y="1.0"/>
      <point x="118.0" y="-3.0"/>
      <point x="109.0" y="-3.0" type="curve" smooth="yes"/>
      <point x="107.0" y="-3.0" type="line" smooth="yes"/>
      <point x="98.0" y="-3.0"/>
      <point x="93.0" y="1.0"/>
      <point x="93.0" y="16.0" type="curve" smooth="yes"/>
    </contour>
  </outline>
</glyph>
<glyph name="h" format="2">
  <advance height="1104" width="336"/>
  <unicode hex="0068"/>
  <anchor x="172.0" y="0.0" name="bottom"/>
  <anchor x="87.0" y="1450.0" name="top"/>
  <outline>
    <contour>
      <point x="86.0" y="1453.0" type="curve" smooth="yes"/>
      <point x="88.0" y="1453.0" type="line" smooth="yes"/>
      <point x="97.0" y="1453.0"/>
      <point x="102.0" y="1445.0"/>
      <point x="102.0" y="1434.0" type="curve" smooth="yes"/>
      <point x="102.0" y="16.0" type="line" smooth="yes"/>
      <point x="102.0" y="4.0"/>
      <point x="97.0" y="-3.0"/>
      <point x="88.0" y="-3.0" type="curve" smooth="yes"/>
      <point x="86.0" y="-3.0" type="line" smooth="yes"/>
      <point x="77.0" y="-3.0"/>
      <point x="72.0" y="4.0"/>
      <point x="72.0" y="16.0" type="curve" smooth="yes"/>
      <point x="72.0" y="1434.0" type="line" smooth="yes"/>
      <point x="72.0" y="1445.0"/>
      <point x="77.0" y="1453.0"/>
    </contour>
    <contour>
      <point x="94.0" y="839.0" type="line"/>
      <point x="94.0" y="967.0"/>
      <point x="125.0" y="1060.0"/>
      <point x="189.0" y="1060.0" type="curve" smooth="yes"/>
      <point x="248.0" y="1060.0"/>
      <point x="267.0" y="1001.0"/>
      <point x="267.0" y="881.0" type="curve" smooth="yes"/>
      <point x="267.0" y="16.0" type="line" smooth="yes"/>
      <point x="267.0" y="4.0"/>
      <point x="262.0" y="-3.0"/>
      <point x="253.0" y="-3.0" type="curve" smooth="yes"/>
      <point x="252.0" y="-3.0" type="line" smooth="yes"/>
      <point x="243.0" y="-3.0"/>
      <point x="238.0" y="4.0"/>
      <point x="238.0" y="16.0" type="curve" smooth="yes"/>
      <point x="238.0" y="881.0" type="line" smooth="yes"/>
      <point x="238.0" y="963.0"/>
      <point x="231.0" y="1033.0"/>
      <point x="181.0" y="1033.0" type="curve" smooth="yes"/>
      <point x="133.0" y="1033.0"/>
      <point x="102.0" y="926.0"/>
      <point x="102.0" y="805.0" type="curve"/>
    </contour>
  </outline>
</glyph>
<glyph name="i" format="2">
  <advance height="1104" width="168"/>
  <unicode hex="0069"/>
  <anchor x="76.0" y="0.0" name="bottom"/>
  <anchor x="76.0" y="0.0" name="ogonek"/>
  <outline>
    <contour>
      <point x="101.0" y="1411.0" type="curve" smooth="yes"/>
      <point x="101.0" y="1229.0" type="line" smooth="yes"/>
      <point x="101.0" y="1217.0"/>
      <point x="97.0" y="1210.0"/>
      <point x="84.0" y="1210.0" type="curve" smooth="yes"/>
      <point x="83.0" y="1210.0" type="line" smooth="yes"/>
      <point x="70.0" y="1210.0"/>
      <point x="67.0" y="1217.0"/>
      <point x="67.0" y="1229.0" type="curve" smooth="yes"/>
      <point x="67.0" y="1411.0" type="line" smooth="yes"/>
      <point x="67.0" y="1423.0"/>
      <point x="70.0" y="1431.0"/>
      <point x="83.0" y="1431.0" type="curve" smooth="yes"/>
      <point x="85.0" y="1431.0" type="line" smooth="yes"/>
      <point x="98.0" y="1431.0"/>
      <point x="101.0" y="1423.0"/>
    </contour>
    <contour>
      <point x="99.0" y="1034.0" type="curve" smooth="yes"/>
      <point x="99.0" y="16.0" type="line" smooth="yes"/>
      <point x="99.0" y="3.0"/>
      <point x="96.0" y="-3.0"/>
      <point x="85.0" y="-3.0" type="curve" smooth="yes"/>
      <point x="83.0" y="-3.0" type="line" smooth="yes"/>
      <point x="72.0" y="-3.0"/>
      <point x="69.0" y="3.0"/>
      <point x="69.0" y="16.0" type="curve" smooth="yes"/>
      <point x="69.0" y="1034.0" type="line" smooth="yes"/>
      <point x="69.0" y="1047.0"/>
      <point x="72.0" y="1053.0"/>
      <point x="83.0" y="1053.0" type="curve" smooth="yes"/>
      <point x="85.0" y="1053.0" type="line" smooth="yes"/>
      <point x="96.0" y="1053.0"/>
      <point x="99.0" y="1047.0"/>
    </contour>
  </outline>
</glyph>
<glyph name="j" format="2">
  <advance height="1104" width="168"/>
  <unicode hex="006A"/>
  <outline>
    <contour>
      <point x="101.0" y="1411.0" type="curve" smooth="yes"/>
      <point x="101.0" y="1229.0" type="line" smooth="yes"/>
      <point x="101.0" y="1217.0"/>
      <point x="97.0" y="1210.0"/>
      <point x="84.0" y="1210.0" type="curve" smooth="yes"/>
      <point x="83.0" y="1210.0" type="line" smooth="yes"/>
      <point x="70.0" y="1210.0"/>
      <point x="67.0" y="1217.0"/>
      <point x="67.0" y="1229.0" type="curve" smooth="yes"/>
      <point x="67.0" y="1411.0" type="line" smooth="yes"/>
      <point x="67.0" y="1423.0"/>
      <point x="70.0" y="1431.0"/>
      <point x="83.0" y="1431.0" type="curve" smooth="yes"/>
      <point x="85.0" y="1431.0" type="line" smooth="yes"/>
      <point x="98.0" y="1431.0"/>
      <point x="101.0" y="1423.0"/>
    </contour>
    <contour>
      <point x="100.0" y="-55.0" type="line" smooth="yes"/>
      <point x="100.0" y="-174.0"/>
      <point x="86.364364733" y="-219.436436473"/>
      <point x="-16.0" y="-203.0" type="curve" smooth="yes"/>
      <point x="-25.9227748135" y="-201.406720363"/>
      <point x="-35.0" y="-198.0"/>
      <point x="-35.0" y="-189.0" type="curve" smooth="yes"/>
      <point x="-35.0" y="-188.0" type="line" smooth="yes"/>
      <point x="-35.0" y="-179.0"/>
      <point x="-24.9301635684" y="-175.499273962"/>
      <point x="-16.0" y="-177.0" type="curve" smooth="yes"/>
      <point x="60.1031823018" y="-189.789242478"/>
      <point x="70.0" y="-158.0"/>
      <point x="70.0" y="-74.0" type="curve" smooth="yes"/>
      <point x="70.0" y="1034.0" type="line" smooth="yes"/>
      <point x="70.0" y="1046.0"/>
      <point x="75.0" y="1053.0"/>
      <point x="84.0" y="1053.0" type="curve" smooth="yes"/>
      <point x="85.0" y="1053.0" type="line" smooth="yes"/>
      <point x="94.0" y="1053.0"/>
      <point x="100.0" y="1046.0"/>
      <point x="100.0" y="1034.0" type="curve" smooth="yes"/>
    </contour>
  </outline>
</glyph>
<glyph name="l" format="2">
  <advance height="1104" width="174"/>
  <unicode hex="006C"/>
  <outline>
    <contour>
      <point x="87.0" y="1453.0" type="curve" smooth="yes"/>
      <point x="88.0" y="1453.0" type="line" smooth="yes"/>
      <point x="96.0" y="1453.0"/>
      <point x="102.0" y="1446.0"/>
      <point x="102.0" y="1434.0" type="curve" smooth="yes"/>
      <point x="102.0" y="16.0" type="line" smooth="yes"/>
      <point x="102.0" y="4.0"/>
      <point x="97.0" y="-3.0"/>
      <point x="88.0" y="-3.0" type="curve" smooth="yes"/>
      <point x="87.0" y="-3.0" type="line" smooth="yes"/>
      <point x="78.0" y="-3.0"/>
      <point x="72.0" y="4.0"/>
      <point x="72.0" y="16.0" type="curve" smooth="yes"/>
      <point x="72.0" y="1434.0" type="line" smooth="yes"/>
      <point x="72.0" y="1446.0"/>
      <point x="79.0" y="1453.0"/>
    </contour>
  </outline>
</glyph>
<glyph name="m" format="2">
  <advance height="1104" width="465"/>
  <unicode hex="006D"/>
  <outline>
    <contour>
      <point x="242.0" y="839.0" type="line"/>
      <point x="242.0" y="983.0"/>
      <point x="264.0" y="1060.0"/>
      <point x="323.0" y="1060.0" type="curve" smooth="yes"/>
      <point x="371.0" y="1060.0"/>
      <point x="395.0" y="1000.0"/>
      <point x="395.0" y="885.0" type="curve" smooth="yes"/>
      <point x="395.0" y="16.0" type="line" smooth="yes"/>
      <point x="395.0" y="4.0"/>
      <point x="389.0" y="-3.0"/>
      <point x="380.0" y="-3.0" type="curve" smooth="yes"/>
      <point x="379.0" y="-3.0" type="line" smooth="yes"/>
      <point x="370.0" y="-3.0"/>
      <point x="365.0" y="4.0"/>
      <point x="365.0" y="16.0" type="curve" smooth="yes"/>
      <point x="365.0" y="885.0" type="line" smooth="yes"/>
      <point x="365.0" y="965.0"/>
      <point x="350.0" y="1031.0"/>
      <point x="313.0" y="1031.0" type="curve" smooth="yes"/>
      <point x="277.0" y="1031.0"/>
      <point x="249.0" y="939.0"/>
      <point x="249.0" y="805.0" type="curve"/>
    </contour>
    <contour>
      <point x="84.0" y="1053.0" type="curve" smooth="yes"/>
      <point x="86.0" y="1053.0" type="line" smooth="yes"/>
      <point x="95.0" y="1053.0"/>
      <point x="98.0" y="1046.0"/>
      <point x="98.0" y="1034.0" type="curve" smooth="yes"/>
      <point x="98.0" y="917.0" type="line"/>
      <point x="103.0" y="901.0" type="line"/>
      <point x="103.0" y="16.0" type="line" smooth="yes"/>
      <point x="103.0" y="4.0"/>
      <point x="98.0" y="-3.0"/>
      <point x="89.0" y="-3.0" type="curve" smooth="yes"/>
      <point x="87.0" y="-3.0" type="line" smooth="yes"/>
      <point x="78.0" y="-3.0"/>
      <point x="72.0" y="4.0"/>
      <point x="72.0" y="16.0" type="curve" smooth="yes"/>
      <point x="72.0" y="1034.0" type="line" smooth="yes"/>
      <point x="72.0" y="1046.0"/>
      <point x="75.0" y="1053.0"/>
    </contour>
    <contour>
      <point x="93.0" y="842.0" type="line"/>
      <point x="93.0" y="979.0"/>
      <point x="121.0" y="1060.0"/>
      <point x="178.0" y="1060.0" type="curve" smooth="yes"/>
      <point x="229.0" y="1060.0"/>
      <point x="249.0" y="1000.0"/>
      <point x="249.0" y="885.0" type="curve" smooth="yes"/>
      <point x="249.0" y="16.0" type="line" smooth="yes"/>
      <point x="249.0" y="4.0"/>
      <point x="244.0" y="-3.0"/>
      <point x="235.0" y="-3.0" type="curve" smooth="yes"/>
      <point x="233.0" y="-3.0" type="line" smooth="yes"/>
      <point x="224.0" y="-3.0"/>
      <point x="219.0" y="4.0"/>
      <point x="219.0" y="16.0" type="curve" smooth="yes"/>
      <point x="219.0" y="885.0" type="line" smooth="yes"/>
      <point x="219.0" y="963.0"/>
      <point x="206.0" y="1031.0"/>
      <point x="169.0" y="1031.0" type="curve" smooth="yes"/>
      <point x="133.0" y="1031.0"/>
      <point x="103.0" y="936.0"/>
      <point x="103.0" y="805.0" type="curve"/>
    </contour>
  </outline>
</glyph>
<glyph name="n" format="2">
  <advance height="1104" width="336"/>
  <unicode hex="006E"/>
  <anchor x="168.0" y="0.0" name="bottom"/>
  <anchor x="190.0" y="1050.0" name="top"/>
  <outline>
    <contour>
      <point x="85.0" y="1053.0" type="curve" smooth="yes"/>
      <point x="87.0" y="1053.0" type="line" smooth="yes"/>
      <point x="96.0" y="1053.0"/>
      <point x="99.0" y="1046.0"/>
      <point x="99.0" y="1034.0" type="curve" smooth="yes"/>
      <point x="99.0" y="902.0" type="line"/>
      <point x="102.0" y="886.0" type="line"/>
      <point x="102.0" y="16.0" type="line" smooth="yes"/>
      <point x="102.0" y="4.0"/>
      <point x="97.0" y="-3.0"/>
      <point x="88.0" y="-3.0" type="curve" smooth="yes"/>
      <point x="86.0" y="-3.0" type="line" smooth="yes"/>
      <point x="77.0" y="-3.0"/>
      <point x="72.0" y="4.0"/>
      <point x="72.0" y="16.0" type="curve" smooth="yes"/>
      <point x="72.0" y="1034.0" type="line" smooth="yes"/>
      <point x="72.0" y="1046.0"/>
      <point x="76.0" y="1053.0"/>
    </contour>
    <contour>
      <point x="94.0" y="839.0" type="line"/>
      <point x="94.0" y="967.0"/>
      <point x="117.0" y="1060.0"/>
      <point x="189.0" y="1060.0" type="curve" smooth="yes"/>
      <point x="248.0" y="1060.0"/>
      <point x="267.0" y="1001.0"/>
      <point x="267.0" y="881.0" type="curve" smooth="yes"/>
      <point x="267.0" y="16.0" type="line" smooth="yes"/>
      <point x="267.0" y="4.0"/>
      <point x="263.0" y="-3.0"/>
      <point x="254.0" y="-3.0" type="curve" smooth="yes"/>
      <point x="251.0" y="-3.0" type="line" smooth="yes"/>
      <point x="242.0" y="-3.0"/>
      <point x="238.0" y="4.0"/>
      <point x="238.0" y="16.0" type="curve" smooth="yes"/>
      <point x="238.0" y="881.0" type="line" smooth="yes"/>
      <point x="238.0" y="963.0"/>
      <point x="231.0" y="1033.0"/>
      <point x="181.0" y="1033.0" type="curve" smooth="yes"/>
      <point x="133.0" y="1033.0"/>
      <point x="102.0" y="926.0"/>
      <point x="102.0" y="805.0" type="curve"/>
    </contour>
  </outline>
</glyph>
<glyph name="p" format="2">
  <advance height="1104" width="344"/>
  <unicode hex="0070"/>
  <outline>
    <contour>
      <point x="92.0" y="829.0" type="line"/>
      <point x="92.0" y="990.0"/>
      <point x="120.0" y="1070.0"/>
      <point x="191.0" y="1070.0" type="curve" smooth="yes"/>
      <point x="242.0" y="1070.0"/>
      <point x="290.0" y="1029.0"/>
      <point x="290.0" y="845.0" type="curve" smooth="yes"/>
      <point x="290.0" y="224.0" type="line" smooth="yes"/>
      <point x="290.0" y="62.0"/>
      <point x="255.0" y="-10.0"/>
      <point x="189.0" y="-10.0" type="curve" smooth="yes"/>
      <point x="122.0" y="-10.0"/>
      <point x="90.0" y="81.0"/>
      <point x="90.0" y="242.0" type="curve"/>
      <point x="101.0" y="245.0" type="line"/>
      <point x="101.0" y="124.0"/>
      <point x="134.0" y="19.0"/>
      <point x="187.0" y="19.0" type="curve" smooth="yes"/>
      <point x="237.0" y="19.0"/>
      <point x="256.0" y="109.0"/>
      <point x="256.0" y="212.0" type="curve" smooth="yes"/>
      <point x="256.0" y="859.0" type="line" smooth="yes"/>
      <point x="256.0" y="985.0"/>
      <point x="229.0" y="1041.0"/>
      <point x="179.0" y="1041.0" type="curve" smooth="yes"/>
      <point x="128.0" y="1041.0"/>
      <point x="101.0" y="947.0"/>
      <point x="101.0" y="826.0" type="curve"/>
    </contour>
    <contour>
      <point x="70.0" y="-374.0" type="curve" smooth="yes"/>
      <point x="70.0" y="1035.0" type="line" smooth="yes"/>
      <point x="70.0" y="1047.0"/>
      <point x="74.0" y="1054.0"/>
      <point x="82.0" y="1054.0" type="curve" smooth="yes"/>
      <point x="84.0" y="1054.0" type="line" smooth="yes"/>
      <point x="92.0" y="1054.0"/>
      <point x="97.0" y="1047.0"/>
      <point x="97.0" y="1035.0" type="curve" smooth="yes"/>
      <point x="97.0" y="911.0" type="line"/>
      <point x="101.0" y="893.0" type="line"/>
      <point x="101.0" y="-374.0" type="line" smooth="yes"/>
      <point x="101.0" y="-386.0"/>
      <point x="95.0" y="-393.0"/>
      <point x="86.0" y="-393.0" type="curve" smooth="yes"/>
      <point x="84.0" y="-393.0" type="line" smooth="yes"/>
      <point x="75.0" y="-393.0"/>
      <point x="70.0" y="-386.0"/>
    </contour>
  </outline>
</glyph>
<glyph name="q" format="2">
  <advance height="1104" width="344"/>
  <unicode hex="0071"/>
  <outline>
    <contour>
      <point x="262.0" y="-401.0" type="curve" smooth="yes"/>
      <point x="260.0" y="-401.0" type="line" smooth="yes"/>
      <point x="251.0" y="-401.0"/>
      <point x="246.0" y="-393.0"/>
      <point x="246.0" y="-379.0" type="curve" smooth="yes"/>
      <point x="246.0" y="901.0" type="line"/>
      <point x="260.0" y="1046.0" type="line" smooth="yes"/>
      <point x="261.225585938" y="1058.68847656"/>
      <point x="264.0" y="1062.0"/>
      <point x="268.0" y="1062.0" type="curve" smooth="yes"/>
      <point x="269.0" y="1062.0" type="line" smooth="yes"/>
      <point x="273.0" y="1062.0"/>
      <point x="276.0" y="1059.0"/>
      <point x="276.0" y="1048.0" type="curve" smooth="yes"/>
      <point x="276.0" y="-379.0" type="line" smooth="yes"/>
      <point x="276.0" y="-393.0"/>
      <point x="271.0" y="-401.0"/>
    </contour>
    <contour>
      <point x="257.0" y="206.0" type="line"/>
      <point x="257.0" y="47.0"/>
      <point x="209.0" y="-3.0"/>
      <point x="148.0" y="-3.0" type="curve" smooth="yes"/>
      <point x="86.0" y="-3.0"/>
      <point x="56.0" y="43.0"/>
      <point x="56.0" y="191.0" type="curve" smooth="yes"/>
      <point x="56.0" y="825.0" type="line" smooth="yes"/>
      <point x="56.0" y="999.0"/>
      <point x="71.0" y="1055.0"/>
      <point x="141.0" y="1055.0" type="curve" smooth="yes"/>
      <point x="229.0" y="1055.0"/>
      <point x="258.0" y="903.0"/>
      <point x="258.0" y="758.0" type="curve"/>
      <point x="246.0" y="747.0" type="line"/>
      <point x="246.0" y="872.0"/>
      <point x="216.0" y="1027.0"/>
      <point x="143.0" y="1027.0" type="curve" smooth="yes"/>
      <point x="99.0" y="1027.0"/>
      <point x="86.0" y="972.0"/>
      <point x="86.0" y="838.0" type="curve" smooth="yes"/>
      <point x="86.0" y="179.0" type="line" smooth="yes"/>
      <point x="86.0" y="89.0"/>
      <point x="100.0" y="26.0"/>
      <point x="157.0" y="26.0" type="curve" smooth="yes"/>
      <point x="209.0" y="26.0"/>
      <point x="246.0" y="98.0"/>
      <point x="246.0" y="209.0" type="curve"/>
    </contour>
  </outline>
</glyph>
<glyph name="r" format="2">
  <advance height="1104" width="223"/>
  <unicode hex="0072"/>
  <anchor x="85.0" y="0.0" name="bottom"/>
  <anchor x="152.0" y="1050.0" name="top"/>
  <outline>
    <contour>
      <point x="82.0" y="1053.0" type="curve" smooth="yes"/>
      <point x="83.0" y="1053.0" type="line" smooth="yes"/>
      <point x="92.0" y="1053.0"/>
      <point x="96.0" y="1045.0"/>
      <point x="96.0" y="1034.0" type="curve" smooth="yes"/>
      <point x="96.0" y="746.0" type="line"/>
      <point x="100.0" y="741.0" type="line"/>
      <point x="100.0" y="16.0" type="line" smooth="yes"/>
      <point x="100.0" y="4.0"/>
      <point x="96.0" y="-3.0"/>
      <point x="86.0" y="-3.0" type="curve" smooth="yes"/>
      <point x="84.0" y="-3.0" type="line" smooth="yes"/>
      <point x="74.0" y="-3.0"/>
      <point x="70.0" y="4.0"/>
      <point x="70.0" y="16.0" type="curve" smooth="yes"/>
      <point x="70.0" y="1034.0" type="line" smooth="yes"/>
      <point x="70.0" y="1045.0"/>
      <point x="73.0" y="1053.0"/>
    </contour>
    <contour>
      <point x="88.0" y="717.0" type="line"/>
      <point x="88.0" y="898.0"/>
      <point x="121.0" y="1063.0"/>
      <point x="201.0" y="1056.0" type="curve" smooth="yes"/>
      <point x="208.0" y="1055.0"/>
      <point x="215.0" y="1052.0"/>
      <point x="215.0" y="1043.0" type="curve" smooth="yes"/>
      <point x="215.0" y="1042.0" type="line" smooth="yes"/>
      <point x="215.0" y="1033.0"/>
      <point x="208.0" y="1030.0"/>
      <point x="200.0" y="1030.0" type="curve" smooth="yes"/>
      <point x="129.0" y="1032.0"/>
      <point x="100.0" y="857.0"/>
      <point x="100.0" y="692.0" type="curve"/>
    </contour>
  </outline>
</glyph>
<glyph name="s" format="2">
  <advance height="1104" width="316"/>
  <unicode hex="0073"/>
  <anchor x="156.0" y="0.0" name="bottom"/>
  <anchor x="159.0" y="1050.0" name="top"/>
  <outline>
    <contour>
      <point x="65.0" y="396.0" type="curve" smooth="yes"/>
      <point x="67.0" y="396.0" type="line" smooth="yes"/>
      <point x="75.0" y="396.0"/>
      <point x="79.0" y="387.0"/>
      <point x="79.0" y="377.0" type="curve" smooth="yes"/>
      <point x="79.0" y="326.0"/>
      <point x="80.0" y="269.0"/>
      <point x="81.0" y="199.0" type="curve" smooth="yes"/>
      <point x="83.0" y="59.0"/>
      <point x="109.0" y="18.0"/>
      <point x="154.0" y="18.0" type="curve" smooth="yes"/>
      <point x="208.0" y="18.0"/>
      <point x="232.0" y="111.0"/>
      <point x="232.0" y="222.0" type="curve" smooth="yes"/>
      <point x="232.0" y="475.0"/>
      <point x="63.0" y="525.0"/>
      <point x="63.0" y="843.0" type="curve" smooth="yes"/>
      <point x="63.0" y="1022.0"/>
      <point x="105.0" y="1070.0"/>
      <point x="160.0" y="1070.0" type="curve" smooth="yes"/>
      <point x="225.0" y="1070.0"/>
      <point x="246.0" y="1001.0"/>
      <point x="250.0" y="842.0" type="curve" smooth="yes"/>
      <point x="251.0" y="791.0"/>
      <point x="253.0" y="755.0"/>
      <point x="253.0" y="687.0" type="curve" smooth="yes"/>
      <point x="253.0" y="676.0"/>
      <point x="250.0" y="669.0"/>
      <point x="241.0" y="669.0" type="curve" smooth="yes"/>
      <point x="239.0" y="669.0" type="line" smooth="yes"/>
      <point x="230.0" y="669.0"/>
      <point x="227.0" y="677.0"/>
      <point x="227.0" y="688.0" type="curve" smooth="yes"/>
      <point x="227.0" y="746.0"/>
      <point x="226.0" y="772.0"/>
      <point x="225.0" y="824.0" type="curve" smooth="yes"/>
      <point x="222.0" y="955.0"/>
      <point x="211.0" y="1042.0"/>
      <point x="160.0" y="1042.0" type="curve" smooth="yes"/>
      <point x="112.0" y="1042.0"/>
      <point x="92.0" y="967.0"/>
      <point x="92.0" y="843.0" type="curve" smooth="yes"/>
      <point x="92.0" y="540.0"/>
      <point x="263.0" y="481.0"/>
      <point x="263.0" y="222.0" type="curve" smooth="yes"/>
      <point x="263.0" y="62.0"/>
      <point x="216.0" y="-10.0"/>
      <point x="161.0" y="-10.0" type="curve" smooth="yes"/>
      <point x="100.0" y="-10.0"/>
      <point x="57.0" y="18.0"/>
      <point x="55.0" y="177.0" type="curve" smooth="yes"/>
      <point x="54.0" y="257.0"/>
      <point x="54.0" y="332.0"/>
      <point x="54.0" y="378.0" type="curve" smooth="yes"/>
      <point x="54.0" y="388.0"/>
      <point x="57.0" y="396.0"/>
    </contour>
  </outline>
</glyph>
<glyph name="t" format="2">
  <advance height="1104" width="215"/>
  <unicode hex="0074"/>
  <anchor x="145.0" y="0.0" name="bottom"/>
  <outline>
    <contour>
      <point x="188.0" y="1025.0" type="curve" smooth="yes"/>
      <point x="42.0" y="1025.0" type="line" smooth="yes"/>
      <point x="31.0" y="1025.0"/>
      <point x="23.0" y="1028.0"/>
      <point x="23.0" y="1037.0" type="curve" smooth="yes"/>
      <point x="23.0" y="1038.0" type="line" smooth="yes"/>
      <point x="23.0" y="1047.0"/>
      <point x="31.0" y="1050.0"/>
      <point x="42.0" y="1050.0" type="curve" smooth="yes"/>
      <point x="188.0" y="1050.0" type="line" smooth="yes"/>
      <point x="199.0" y="1050.0"/>
      <point x="207.0" y="1047.0"/>
      <point x="207.0" y="1038.0" type="curve" smooth="yes"/>
      <point x="207.0" y="1037.0" type="line" smooth="yes"/>
      <point x="207.0" y="1028.0"/>
      <point x="199.0" y="1025.0"/>
    </contour>
    <contour>
      <point x="207.0" y="11.0" type="curve" smooth="yes"/>
      <point x="207.0" y="10.0" type="line" smooth="yes"/>
      <point x="207.0" y="3.0"/>
      <point x="200.984137896" y="0.147602056968"/>
      <point x="191.0" y="-1.0" type="curve" smooth="yes"/>
      <point x="104.0" y="-11.0"/>
      <point x="89.0" y="26.0"/>
      <point x="89.0" y="146.0" type="curve" smooth="yes"/>
      <point x="89.0" y="1233.0" type="line" smooth="yes"/>
      <point x="89.0" y="1244.0"/>
      <point x="93.0" y="1252.0"/>
      <point x="102.0" y="1252.0" type="curve" smooth="yes"/>
      <point x="103.0" y="1252.0" type="line" smooth="yes"/>
      <point x="112.0" y="1252.0"/>
      <point x="118.0" y="1244.0"/>
      <point x="118.0" y="1233.0" type="curve" smooth="yes"/>
      <point x="118.0" y="146.0" type="line" smooth="yes"/>
      <point x="118.0" y="63.0"/>
      <point x="117.0" y="14.0"/>
      <point x="189.0" y="21.0" type="curve" smooth="yes"/>
      <point x="199.993526925" y="22.0688151177"/>
      <point x="207.0" y="19.0"/>
    </contour>
  </outline>
</glyph>
<glyph name="v" format="2">
  <advance height="1104" width="272"/>
  <unicode hex="0076"/>
  <outline>
    <contour>
      <point x="143.0" y="73.0" type="line"/>
      <point x="223.0" y="1032.0" type="line" smooth="yes"/>
      <point x="224.249566723" y="1046.97918109"/>
      <point x="230.0" y="1053.0"/>
      <point x="237.0" y="1053.0" type="curve" smooth="yes"/>
      <point x="238.0" y="1053.0" type="line" smooth="yes"/>
      <point x="245.0" y="1053.0"/>
      <point x="250.275083345" y="1046.89062849"/>
      <point x="249.0" y="1032.0" type="curve" smooth="yes"/>
      <point x="162.0" y="16.0" type="line" smooth="yes"/>
      <point x="160.710321934" y="0.938932009292"/>
      <point x="152.0" y="-3.0"/>
      <point x="143.0" y="-3.0" type="curve" smooth="yes"/>
      <point x="136.0" y="-3.0" type="line" smooth="yes"/>
      <point x="127.0" y="-3.0"/>
      <point x="118.284977059" y="1.93433714167"/>
      <point x="117.0" y="16.0" type="curve" smooth="yes"/>
      <point x="24.0" y="1034.0" type="line" smooth="yes"/>
      <point x="23.0034135988" y="1044.9088705"/>
      <point x="28.0" y="1053.0"/>
      <point x="36.0" y="1053.0" type="curve" smooth="yes"/>
      <point x="37.0" y="1053.0" type="line" smooth="yes"/>
      <point x="45.0" y="1053.0"/>
      <point x="48.9453608247" y="1044.89793814"/>
      <point x="50.0" y="1034.0" type="curve" smooth="yes"/>
    </contour>
  </outline>
</glyph>
<glyph name="w" format="2">
  <advance height="1104" width="440"/>
  <unicode hex="0077"/>
  <outline>
    <contour>
      <point x="317.0" y="56.0" type="line"/>
      <point x="386.0" y="1032.0" type="line" smooth="yes"/>
      <point x="386.919459919" y="1045.00569392"/>
      <point x="391.0" y="1053.0"/>
      <point x="399.0" y="1053.0" type="curve" smooth="yes"/>
      <point x="401.0" y="1053.0" type="line" smooth="yes"/>
      <point x="409.0" y="1053.0"/>
      <point x="412.960804356" y="1045.00288562"/>
      <point x="412.0" y="1032.0" type="curve" smooth="yes"/>
      <point x="337.0" y="17.0" type="line" smooth="yes"/>
      <point x="335.96570308" y="3.00251501258"/>
      <point x="330.0" y="-3.0"/>
      <point x="319.0" y="-3.0" type="curve" smooth="yes"/>
      <point x="311.0" y="-3.0" type="line" smooth="yes"/>
      <point x="301.0" y="-3.0"/>
      <point x="293.067719487" y="1.00482191111"/>
      <point x="292.0" y="16.0" type="curve" smooth="yes"/>
      <point x="224.0" y="971.0" type="line"/>
      <point x="159.0" y="18.0" type="line" smooth="yes"/>
      <point x="157.9770219" y="3.00156723664"/>
      <point x="152.0" y="-3.0"/>
      <point x="141.0" y="-3.0" type="curve" smooth="yes"/>
      <point x="131.0" y="-3.0" type="line" smooth="yes"/>
      <point x="120.0" y="-3.0"/>
      <point x="114.223891734" y="2.01838552518"/>
      <point x="113.0" y="17.0" type="curve" smooth="yes"/>
      <point x="30.0" y="1033.0" type="line" smooth="yes"/>
      <point x="28.8572533083" y="1046.98832095"/>
      <point x="33.0" y="1053.0"/>
      <point x="41.0" y="1053.0" type="curve" smooth="yes"/>
      <point x="42.0" y="1053.0" type="line" smooth="yes"/>
      <point x="50.0" y="1053.0"/>
      <point x="53.8120016476" y="1046.9840288"/>
      <point x="55.0" y="1033.0" type="curve" smooth="yes"/>
      <point x="138.0" y="56.0" type="line"/>
      <point x="205.0" y="1032.0" type="line" smooth="yes"/>
      <point x="205.961248191" y="1046.00266022"/>
      <point x="211.0" y="1053.0"/>
      <point x="222.0" y="1053.0" type="curve" smooth="yes"/>
      <point x="224.0" y="1053.0" type="line" smooth="yes"/>
      <point x="234.0" y="1053.0"/>
      <point x="239.914208362" y="1043.91527704"/>
      <point x="241.0" y="1030.0" type="curve" smooth="yes"/>
    </contour>
  </outline>
</glyph>
<glyph name="x" format="2">
  <advance height="1104" width="286"/>
  <unicode hex="0078"/>
  <outline>
    <contour>
      <point x="46.0" y="-3.0" type="curve" smooth="yes"/>
      <point x="45.0" y="-3.0" type="line" smooth="yes"/>
      <point x="35.0" y="-3.0"/>
      <point x="30.3819904045" y="8.28792433809"/>
      <point x="33.0" y="23.0" type="curve" smooth="yes"/>
      <point x="125.0" y="540.0" type="line"/>
      <point x="34.0" y="1033.0" type="line" smooth="yes"/>
      <point x="31.8250228783" y="1044.78311781"/>
      <point x="38.0" y="1053.0"/>
      <point x="48.0" y="1053.0" type="curve" smooth="yes"/>
      <point x="49.0" y="1053.0" type="line" smooth="yes"/>
      <point x="57.0" y="1053.0"/>
      <point x="62.0488955271" y="1043.82862982"/>
      <point x="64.0" y="1033.0" type="curve" smooth="yes"/>
      <point x="144.0" y="589.0" type="line"/>
      <point x="220.0" y="1033.0" type="line" smooth="yes"/>
      <point x="222.522945908" y="1047.73931557"/>
      <point x="228.0" y="1053.0"/>
      <point x="237.0" y="1053.0" type="curve" smooth="yes"/>
      <point x="238.0" y="1053.0" type="line" smooth="yes"/>
      <point x="245.0" y="1053.0"/>
      <point x="253.66677642" y="1047.69757459"/>
      <point x="251.0" y="1033.0" type="curve" smooth="yes"/>
      <point x="163.0" y="548.0" type="line"/>
      <point x="247.0" y="18.0" type="line" smooth="yes"/>
      <point x="249.034394144" y="5.16394171332"/>
      <point x="242.0" y="-3.0"/>
      <point x="233.0" y="-3.0" type="curve" smooth="yes"/>
      <point x="232.0" y="-3.0" type="line" smooth="yes"/>
      <point x="223.0" y="-3.0"/>
      <point x="215.094767141" y="3.15447634512"/>
      <point x="213.0" y="18.0" type="curve" smooth="yes"/>
      <point x="144.0" y="507.0" type="line"/>
      <point x="63.0" y="23.0" type="line" smooth="yes"/>
      <point x="60.530818007" y="8.24587549882"/>
      <point x="55.0" y="-3.0"/>
    </contour>
  </outline>
</glyph>
<glyph name="y" format="2">
  <advance height="1104" width="300"/>
  <unicode hex="0079"/>
  <anchor x="169.0" y="1050.0" name="top"/>
  <outline>
    <contour>
      <point x="163.0" y="58.0" type="line"/>
      <point x="243.0" y="1033.0" type="line" smooth="yes"/>
      <point x="243.984718268" y="1045.00125389"/>
      <point x="247.0" y="1053.0"/>
      <point x="256.0" y="1053.0" type="curve" smooth="yes"/>
      <point x="257.0" y="1053.0" type="line" smooth="yes"/>
      <point x="266.0" y="1053.0"/>
      <point x="270.038906035" y="1044.99663074"/>
      <point x="269.0" y="1033.0" type="curve" smooth="yes"/>
      <point x="174.0" y="-64.0" type="line" smooth="yes"/>
      <point x="160.285065866" y="-222.371397318"/>
      <point x="133.0" y="-217.0"/>
      <point x="64.0" y="-210.0" type="curve" smooth="yes"/>
      <point x="52.0198969527" y="-208.784627227"/>
      <point x="42.0" y="-203.0"/>
      <point x="42.0" y="-194.0" type="curve" smooth="yes"/>
      <point x="42.0" y="-193.0" type="line" smooth="yes"/>
      <point x="42.0" y="-184.0"/>
      <point x="52.1656963718" y="-177.929620289"/>
      <point x="62.0" y="-180.0" type="curve" smooth="yes"/>
      <point x="119.0" y="-192.0"/>
      <point x="135.0" y="-198.0"/>
      <point x="152.0" y="-54.0" type="curve"/>
      <point x="46.0" y="1034.0" type="line" smooth="yes"/>
      <point x="44.83247251" y="1045.98367839"/>
      <point x="50.0" y="1053.0"/>
      <point x="58.0" y="1053.0" type="curve" smooth="yes"/>
      <point x="59.0" y="1053.0" type="line" smooth="yes"/>
      <point x="67.0" y="1053.0"/>
      <point x="70.8821718528" y="1045.98901397"/>
      <point x="72.0" y="1034.0" type="curve" smooth="yes"/>
    </contour>
  </outline>
</glyph>
<glyph name="z" format="2">
  <advance height="1104" width="269"/>
  <unicode hex="007A"/>
  <anchor x="153.0" y="1050.0" name="top"/>
  <outline>
    <contour>
      <point x="39.0" y="24.0" type="curve" smooth="yes"/>
      <point x="206.0" y="1022.0" type="line"/>
      <point x="78.0" y="1022.0" type="line" smooth="yes"/>
      <point x="66.0" y="1022.0"/>
      <point x="59.0" y="1025.0"/>
      <point x="59.0" y="1035.0" type="curve" smooth="yes"/>
      <point x="59.0" y="1036.0" type="line" smooth="yes"/>
      <point x="59.0" y="1044.0"/>
      <point x="66.0" y="1050.0"/>
      <point x="78.0" y="1050.0" type="curve" smooth="yes"/>
      <point x="213.0" y="1050.0" type="line" smooth="yes"/>
      <point x="232.0" y="1050.0"/>
      <point x="237.26712117" y="1038.62252776"/>
      <point x="234.0" y="1019.0" type="curve" smooth="yes"/>
      <point x="69.0" y="28.0" type="line"/>
      <point x="218.0" y="28.0" type="line" smooth="yes"/>
      <point x="230.0" y="28.0"/>
      <point x="238.0" y="24.0"/>
      <point x="238.0" y="15.0" type="curve" smooth="yes"/>
      <point x="238.0" y="14.0" type="line" smooth="yes"/>
      <point x="238.0" y="5.0"/>
      <point x="230.0" y="-0.0"/>
      <point x="218.0" y="0.0" type="curve" smooth="yes"/>
      <point x="60.0" y="0.0" type="line" smooth="yes"/>
      <point x="43.0" y="0.0"/>
      <point x="36.0427798608" y="6.32751078482"/>
    </contour>
  </outline>
</glyph>
<glyph name="braceleft" format="2">
  <advance height="2048" width="288"/>
  <unicode hex="007B"/>
  <outline>
    <contour>
      <point x="118.0" y="1439.0" type="line" smooth="yes"/>
      <point x="118.0" y="1553.0"/>
      <point x="127.995117188" y="1594.0"/>
      <point x="222.0" y="1600.0" type="curve" smooth="yes"/>
      <point x="232.977662225" y="1600.70066545"/>
      <point x="241.0" y="1598.0"/>
      <point x="241.0" y="1589.0" type="curve" smooth="yes"/>
      <point x="241.0" y="1588.0" type="line" smooth="yes"/>
      <point x="241.0" y="1579.0"/>
      <point x="232.921748078" y="1576.30974002"/>
      <point x="222.0" y="1575.0" type="curve" smooth="yes"/>
      <point x="171.966796875" y="1569.0"/>
      <point x="148.0" y="1556.0"/>
      <point x="148.0" y="1439.0" type="curve" smooth="yes"/>
      <point x="148.0" y="788.0" type="line" smooth="yes"/>
      <point x="148.0" y="696.0"/>
      <point x="131.0" y="644.0"/>
      <point x="73.0" y="620.0" type="curve"/>
      <point x="131.0" y="596.0"/>
      <point x="148.0" y="544.0"/>
      <point x="148.0" y="452.0" type="curve" smooth="yes"/>
      <point x="148.0" y="-199.0" type="line" smooth="yes"/>
      <point x="148.0" y="-305.0"/>
      <point x="172.922465617" y="-327.0"/>
      <point x="221.0" y="-335.0" type="curve" smooth="yes"/>
      <point x="232.837242623" y="-336.969692128"/>
      <point x="241.0" y="-340.0"/>
      <point x="241.0" y="-349.0" type="curve" smooth="yes"/>
      <point x="241.0" y="-350.0" type="line" smooth="yes"/>
      <point x="241.0" y="-359.0"/>
      <point x="232.976690974" y="-360.715720105"/>
      <point x="222.0" y="-360.0" type="curve" smooth="yes"/>
      <point x="129.980584354" y="-354.0"/>
      <point x="118.0" y="-313.0"/>
      <point x="118.0" y="-199.0" type="curve" smooth="yes"/>
      <point x="118.0" y="452.0" type="line" smooth="yes"/>
      <point x="118.0" y="538.0"/>
      <point x="98.6142578125" y="587.077148438"/>
      <point x="56.0" y="604.0" type="curve" smooth="yes"/>
      <point x="46.521965706" y="607.763889733"/>
      <point x="42.0" y="613.0"/>
      <point x="42.0" y="620.0" type="curve" smooth="yes"/>
      <point x="42.0" y="621.0" type="line" smooth="yes"/>
      <point x="42.0" y="628.0"/>
      <point x="45.6078497858" y="632.424036584"/>
      <point x="55.0" y="636.0" type="curve" smooth="yes"/>
      <point x="100.237304688" y="653.223632812"/>
      <point x="118.0" y="701.0"/>
      <point x="118.0" y="788.0" type="curve" smooth="yes"/>
    </contour>
  </outline>
</glyph>
<glyph name="bar" format="2">
  <advance height="1920" width="285"/>
  <unicode hex="007C"/>
  <outline>
    <contour>
      <point x="142.0" y="1603.0" type="curve" smooth="yes"/>
      <point x="144.0" y="1603.0" type="line" smooth="yes"/>
      <point x="155.0" y="1603.0"/>
      <point x="158.0" y="1593.0"/>
      <point x="158.0" y="1580.0" type="curve" smooth="yes"/>
      <point x="158.0" y="-340.0" type="line" smooth="yes"/>
      <point x="158.0" y="-353.0"/>
      <point x="155.0" y="-363.0"/>
      <point x="144.0" y="-363.0" type="curve" smooth="yes"/>
      <point x="142.0" y="-363.0" type="line" smooth="yes"/>
      <point x="131.0" y="-363.0"/>
      <point x="128.0" y="-353.0"/>
      <point x="128.0" y="-340.0" type="curve" smooth="yes"/>
      <point x="128.0" y="1580.0" type="line" smooth="yes"/>
      <point x="128.0" y="1593.0"/>
      <point x="131.0" y="1603.0"/>
    </contour>
  </outline>
</glyph>
<glyph name="braceright" format="2">
  <advance height="2048" width="288"/>
  <unicode hex="007D"/>
  <outline>
    <contour>
      <point x="170.0" y="-199.0" type="line" smooth="yes"/>
      <point x="170.0" y="-313.0"/>
      <point x="160.004882812" y="-354.0"/>
      <point x="66.0" y="-360.0" type="curve" smooth="yes"/>
      <point x="55.0224609375" y="-360.700195312"/>
      <point x="47.0" y="-358.0"/>
      <point x="47.0" y="-349.0" type="curve" smooth="yes"/>
      <point x="47.0" y="-348.0" type="line" smooth="yes"/>
      <point x="47.0" y="-339.0"/>
      <point x="55.078125" y="-336.309570312"/>
      <point x="66.0" y="-335.0" type="curve" smooth="yes"/>
      <point x="116.033203125" y="-329.0"/>
      <point x="140.0" y="-316.0"/>
      <point x="140.0" y="-199.0" type="curve" smooth="yes"/>
      <point x="140.0" y="452.0" type="line" smooth="yes"/>
      <point x="140.0" y="544.0"/>
      <point x="157.0" y="596.0"/>
      <point x="215.0" y="620.0" type="curve"/>
      <point x="157.0" y="644.0"/>
      <point x="140.0" y="696.0"/>
      <point x="140.0" y="788.0" type="curve" smooth="yes"/>
      <point x="140.0" y="1439.0" type="line" smooth="yes"/>
      <point x="140.0" y="1545.0"/>
      <point x="115.077148438" y="1567.0"/>
      <point x="67.0" y="1575.0" type="curve" smooth="yes"/>
      <point x="55.1630859375" y="1576.96972656"/>
      <point x="47.0" y="1580.0"/>
      <point x="47.0" y="1589.0" type="curve" smooth="yes"/>
      <point x="47.0" y="1590.0" type="line" smooth="yes"/>
      <point x="47.0" y="1599.0"/>
      <point x="55.0234375" y="1600.71582031"/>
      <point x="66.0" y="1600.0" type="curve" smooth="yes"/>
      <point x="158.01953125" y="1594.0"/>
      <point x="170.0" y="1553.0"/>
      <point x="170.0" y="1439.0" type="curve" smooth="yes"/>
      <point x="170.0" y="788.0" type="line" smooth="yes"/>
      <point x="170.0" y="702.0"/>
      <point x="189.385742188" y="652.922851562"/>
      <point x="232.0" y="636.0" type="curve" smooth="yes"/>
      <point x="241.478515625" y="632.236328125"/>
      <point x="246.0" y="627.0"/>
      <point x="246.0" y="620.0" type="curve" smooth="yes"/>
      <point x="246.0" y="619.0" type="line" smooth="yes"/>
      <point x="246.0" y="612.0"/>
      <point x="242.392578125" y="607.576171875"/>
      <point x="233.0" y="604.0" type="curve" smooth="yes"/>
      <point x="187.762695312" y="586.776367188"/>
      <point x="170.0" y="539.0"/>
      <point x="170.0" y="452.0" type="curve" smooth="yes"/>
    </contour>
  </outline>
</glyph>
<glyph name="asciitilde" format="2">
  <advance height="2048" width="664"/>
  <unicode hex="007E"/>
  <outline>
    <contour>
      <point x="207.0" y="677.0" type="curve" smooth="yes"/>
      <point x="151.0" y="677.0"/>
      <point x="122.0" y="617.0"/>
      <point x="120.0" y="536.0" type="curve" smooth="yes"/>
      <point x="119.753161652" y="526.003046923"/>
      <point x="112.0" y="518.0"/>
      <point x="105.0" y="518.0" type="curve" smooth="yes"/>
      <point x="103.0" y="518.0" type="line" smooth="yes"/>
      <point x="95.0" y="518.0"/>
      <point x="89.5749396285" y="526.0090379"/>
      <point x="90.0" y="536.0" type="curve" smooth="yes"/>
      <point x="94.0" y="630.019228992"/>
      <point x="125.0" y="707.0"/>
      <point x="210.0" y="707.0" type="curve" smooth="yes"/>
      <point x="325.0" y="707.0"/>
      <point x="361.0" y="534.0"/>
      <point x="457.0" y="534.0" type="curve" smooth="yes"/>
      <point x="513.0" y="534.0"/>
      <point x="543.0" y="593.0"/>
      <point x="545.0" y="674.0" type="curve" smooth="yes"/>
      <point x="545.271522182" y="684.996648385"/>
      <point x="550.0" y="692.0"/>
      <point x="558.0" y="692.0" type="curve" smooth="yes"/>
      <point x="560.0" y="692.0" type="line" smooth="yes"/>
      <point x="569.0" y="692.0"/>
      <point x="574.467566409" y="684.99005831"/>
      <point x="574.0" y="674.0" type="curve" smooth="yes"/>
      <point x="570.0" y="579.980771008"/>
      <point x="539.0" y="504.0"/>
      <point x="454.0" y="504.0" type="curve" smooth="yes"/>
      <point x="339.0" y="504.0"/>
      <point x="303.0" y="677.0"/>
    </contour>
  </outline>
</glyph>
<glyph name="exclamdown" format="2">
  <advance height="1920" width="275"/>
  <unicode hex="00A1"/>
  <outline>
    <contour>
      <point x="134.0" y="1053.0" type="curve" smooth="yes"/>
      <point x="138.0" y="1053.0" type="line" smooth="yes"/>
      <point x="151.0" y="1053.0"/>
      <point x="160.0" y="1044.0"/>
      <point x="160.0" y="1032.0" type="curve" smooth="yes"/>
      <point x="160.0" y="858.0" type="line" smooth="yes"/>
      <point x="160.0" y="846.0"/>
      <point x="151.0" y="837.0"/>
      <point x="138.0" y="837.0" type="curve" smooth="yes"/>
      <point x="134.0" y="837.0" type="line" smooth="yes"/>
      <point x="121.0" y="837.0"/>
      <point x="114.0" y="846.0"/>
      <point x="114.0" y="858.0" type="curve" smooth="yes"/>
      <point x="114.0" y="1032.0" type="line" smooth="yes"/>
      <point x="114.0" y="1044.0"/>
      <point x="121.0" y="1053.0"/>
    </contour>
    <contour>
      <point x="152.0" y="100.0" type="curve" smooth="yes"/>
      <point x="152.0" y="-385.0" type="line" smooth="yes"/>
      <point x="152.0" y="-394.0"/>
      <point x="148.0" y="-403.0"/>
      <point x="138.0" y="-403.0" type="curve" smooth="yes"/>
      <point x="136.0" y="-403.0" type="line" smooth="yes"/>
      <point x="126.0" y="-403.0"/>
      <point x="122.0" y="-394.0"/>
      <point x="122.0" y="-385.0" type="curve" smooth="yes"/>
      <point x="122.0" y="100.0" type="line" smooth="yes"/>
      <point x="122.0" y="107.0"/>
      <point x="121.931640625" y="192.991210938"/>
      <point x="122.0" y="200.0" type="curve" smooth="yes"/>
      <point x="126.0" y="610.0" type="line" smooth="yes"/>
      <point x="126.0" y="617.0"/>
      <point x="130.0" y="623.0"/>
      <point x="137.0" y="623.0" type="curve" smooth="yes"/>
      <point x="138.0" y="623.0" type="line" smooth="yes"/>
      <point x="145.0" y="623.0"/>
      <point x="148.0" y="617.0"/>
      <point x="148.0" y="610.0" type="curve" smooth="yes"/>
      <point x="150.0" y="200.0" type="line" smooth="yes"/>
      <point x="150.034179688" y="193.0"/>
      <point x="152.0" y="107.0"/>
    </contour>
  </outline>
</glyph>
<glyph name="cent" format="2">
  <advance height="1920" width="317"/>
  <unicode hex="00A2"/>
  <outline>
    <contour>
      <point x="158.0" y="1240.0" type="curve" smooth="yes"/>
      <point x="168.0" y="1240.0" type="line" smooth="yes"/>
      <point x="172.0" y="1240.0"/>
      <point x="173.0" y="1240.0"/>
      <point x="173.0" y="1236.0" type="curve" smooth="yes"/>
      <point x="173.0" y="-186.0" type="line" smooth="yes"/>
      <point x="173.0" y="-190.0"/>
      <point x="172.0" y="-190.0"/>
      <point x="168.0" y="-190.0" type="curve" smooth="yes"/>
      <point x="158.0" y="-190.0" type="line" smooth="yes"/>
      <point x="154.0" y="-190.0"/>
      <point x="153.0" y="-190.0"/>
      <point x="153.0" y="-186.0" type="curve" smooth="yes"/>
      <point x="153.0" y="1236.0" type="line" smooth="yes"/>
      <point x="153.0" y="1240.0"/>
      <point x="154.0" y="1240.0"/>
    </contour>
    <component base="c"/>
  </outline>
</glyph>
<glyph name="sterling" format="2">
  <advance height="1920" width="470"/>
  <unicode hex="00A3"/>
  <outline>
    <contour>
      <point x="62.0" y="699.0" type="curve" smooth="yes"/>
      <point x="62.0" y="700.0" type="line" smooth="yes"/>
      <point x="62.0" y="709.0"/>
      <point x="71.0" y="715.0"/>
      <point x="80.0" y="715.0" type="curve" smooth="yes"/>
      <point x="300.0" y="715.0" type="line" smooth="yes"/>
      <point x="309.0" y="715.0"/>
      <point x="318.0" y="709.0"/>
      <point x="318.0" y="700.0" type="curve" smooth="yes"/>
      <point x="318.0" y="699.0" type="line" smooth="yes"/>
      <point x="318.0" y="690.0"/>
      <point x="309.0" y="685.0"/>
      <point x="300.0" y="685.0" type="curve" smooth="yes"/>
      <point x="80.0" y="685.0" type="line" smooth="yes"/>
      <point x="71.0" y="685.0"/>
      <point x="62.0" y="690.0"/>
    </contour>
    <contour>
      <point x="86.0" y="34.0" type="curve" smooth="yes"/>
      <point x="138.868412023" y="88.5338320067"/>
      <point x="204.0" y="362.0"/>
      <point x="204.0" y="597.0" type="curve" smooth="yes"/>
      <point x="204.0" y="796.0"/>
      <point x="110.0" y="907.0"/>
      <point x="110.0" y="1141.0" type="curve" smooth="yes"/>
      <point x="110.0" y="1306.0"/>
      <point x="124.0" y="1417.0"/>
      <point x="238.0" y="1417.0" type="curve" smooth="yes"/>
      <point x="355.0" y="1417.0"/>
      <point x="364.0" y="1285.0"/>
      <point x="365.0" y="977.0" type="curve" smooth="yes"/>
      <point x="365.035714097" y="966.000057977"/>
      <point x="359.0" y="957.0"/>
      <point x="350.0" y="957.0" type="curve" smooth="yes"/>
      <point x="348.0" y="957.0" type="line" smooth="yes"/>
      <point x="340.0" y="957.0"/>
      <point x="333.136914178" y="966.000852101"/>
      <point x="333.0" y="977.0" type="curve" smooth="yes"/>
      <point x="330.0" y="1218.00823031"/>
      <point x="335.0" y="1387.0"/>
      <point x="238.0" y="1387.0" type="curve" smooth="yes"/>
      <point x="151.0" y="1387.0"/>
      <point x="140.0" y="1281.0"/>
      <point x="140.0" y="1151.0" type="curve" smooth="yes"/>
      <point x="140.0" y="915.0"/>
      <point x="234.0" y="810.0"/>
      <point x="234.0" y="597.0" type="curve" smooth="yes"/>
      <point x="234.0" y="376.0"/>
      <point x="168.0" y="73.0"/>
      <point x="109.0" y="30.0" type="curve"/>
      <point x="405.0" y="30.0" type="line" smooth="yes"/>
      <point x="416.0" y="30.0"/>
      <point x="423.0" y="24.0"/>
      <point x="423.0" y="15.0" type="curve" smooth="yes"/>
      <point x="423.0" y="14.0" type="line" smooth="yes"/>
      <point x="423.0" y="5.0"/>
      <point x="416.0" y="-1.34711147906e-15"/>
      <point x="405.0" y="0.0" type="curve" smooth="yes"/>
      <point x="95.0" y="0.0" type="line" smooth="yes"/>
      <point x="86.0" y="0.0"/>
      <point x="77.0" y="6.0"/>
      <point x="77.0" y="15.0" type="curve" smooth="yes"/>
      <point x="77.0" y="16.0" type="line" smooth="yes"/>
      <point x="77.0" y="22.0"/>
      <point x="80.9326180888" y="28.7729893279"/>
    </contour>
  </outline>
</glyph>
<glyph name="currency" format="2">
  <advance width="1112"/>
  <unicode hex="00A4"/>
  <outline>
    <contour>
      <point x="777.0" y="936.0" type="curve" smooth="yes"/>
      <point x="778.0" y="935.0" type="line" smooth="yes"/>
      <point x="782.5" y="930.5"/>
      <point x="783.420203602" y="920.516992952"/>
      <point x="778.0" y="915.0" type="curve" smooth="yes"/>
      <point x="722.0" y="858.0" type="line" smooth="yes"/>
      <point x="720.0" y="856.0"/>
      <point x="717.0" y="856.0"/>
      <point x="715.0" y="858.0" type="curve" smooth="yes"/>
      <point x="701.0" y="872.0" type="line" smooth="yes"/>
      <point x="699.0" y="874.0"/>
      <point x="699.0" y="878.0"/>
      <point x="701.0" y="880.0" type="curve" smooth="yes"/>
      <point x="757.0" y="936.0" type="line" smooth="yes"/>
      <point x="762.5" y="941.5"/>
      <point x="772.5" y="940.5"/>
    </contour>
    <contour>
      <point x="385.0" y="557.0" type="curve" smooth="yes"/>
      <point x="399.0" y="543.0" type="line" smooth="yes"/>
      <point x="401.0" y="541.0"/>
      <point x="401.0" y="537.0"/>
      <point x="399.0" y="535.0" type="curve" smooth="yes"/>
      <point x="348.0" y="484.0" type="line" smooth="yes"/>
      <point x="339.5" y="475.5"/>
      <point x="328.0" y="474.0"/>
      <point x="323.0" y="479.0" type="curve" smooth="yes"/>
      <point x="322.0" y="480.0" type="line" smooth="yes"/>
      <point x="317.0" y="485.0"/>
      <point x="318.607351555" y="496.442789821"/>
      <point x="327.0" y="505.0" type="curve" smooth="yes"/>
      <point x="378.0" y="557.0" type="line" smooth="yes"/>
      <point x="380.0" y="559.0"/>
      <point x="383.0" y="559.0"/>
    </contour>
    <contour>
      <point x="323.0" y="936.0" type="curve" smooth="yes"/>
      <point x="324.0" y="937.0" type="line" smooth="yes"/>
      <point x="328.5" y="941.5"/>
      <point x="337.5" y="941.5"/>
      <point x="343.0" y="936.0" type="curve" smooth="yes"/>
      <point x="399.0" y="880.0" type="line" smooth="yes"/>
      <point x="401.0" y="878.0"/>
      <point x="401.0" y="874.0"/>
      <point x="399.0" y="872.0" type="curve" smooth="yes"/>
      <point x="385.0" y="858.0" type="line" smooth="yes"/>
      <point x="383.0" y="856.0"/>
      <point x="380.0" y="856.0"/>
      <point x="378.0" y="858.0" type="curve" smooth="yes"/>
      <point x="322.0" y="915.0" type="line" smooth="yes"/>
      <point x="316.518402506" y="920.579483164"/>
      <point x="318.5" y="931.5"/>
    </contour>
    <contour>
      <point x="701.0" y="543.0" type="curve" smooth="yes"/>
      <point x="715.0" y="557.0" type="line" smooth="yes"/>
      <point x="717.0" y="559.0"/>
      <point x="720.0" y="559.0"/>
      <point x="722.0" y="557.0" type="curve" smooth="yes"/>
      <point x="778.0" y="500.0" type="line" smooth="yes"/>
      <point x="783.420203602" y="494.483007048"/>
      <point x="782.5" y="484.5"/>
      <point x="778.0" y="480.0" type="curve" smooth="yes"/>
      <point x="777.0" y="479.0" type="line" smooth="yes"/>
      <point x="772.5" y="474.5"/>
      <point x="762.5" y="473.5"/>
      <point x="757.0" y="479.0" type="curve" smooth="yes"/>
      <point x="701.0" y="535.0" type="line" smooth="yes"/>
      <point x="699.0" y="537.0"/>
      <point x="699.0" y="541.0"/>
    </contour>
    <contour>
      <point x="306.0" y="709.0" type="curve" smooth="yes"/>
      <point x="306.0" y="843.0"/>
      <point x="418.0" y="954.0"/>
      <point x="552.0" y="954.0" type="curve" smooth="yes"/>
      <point x="686.0" y="954.0"/>
      <point x="796.0" y="843.0"/>
      <point x="796.0" y="709.0" type="curve" smooth="yes"/>
      <point x="796.0" y="575.0"/>
      <point x="686.0" y="464.0"/>
      <point x="552.0" y="464.0" type="curve" smooth="yes"/>
      <point x="418.0" y="464.0"/>
      <point x="306.0" y="575.0"/>
    </contour>
    <contour>
      <point x="336.0" y="709.0" type="curve" smooth="yes"/>
      <point x="336.0" y="595.0"/>
      <point x="428.0" y="494.0"/>
      <point x="552.0" y="494.0" type="curve" smooth="yes"/>
      <point x="676.0" y="494.0"/>
      <point x="766.0" y="595.0"/>
      <point x="766.0" y="709.0" type="curve" smooth="yes"/>
      <point x="766.0" y="823.0"/>
      <point x="676.0" y="924.0"/>
      <point x="552.0" y="924.0" type="curve" smooth="yes"/>
      <point x="428.0" y="924.0"/>
      <point x="336.0" y="823.0"/>
    </contour>
  </outline>
</glyph>
<glyph name="yen" format="2">
  <advance height="1920" width="390"/>
  <unicode hex="00A5"/>
  <outline>
    <contour>
      <point x="7.0" y="499.0" type="curve" smooth="yes"/>
      <point x="7.0" y="500.0" type="line" smooth="yes"/>
      <point x="7.0" y="509.0"/>
      <point x="14.0" y="514.0"/>
      <point x="25.0" y="514.0" type="curve" smooth="yes"/>
      <point x="365.0" y="514.0" type="line" smooth="yes"/>
      <point x="376.0" y="514.0"/>
      <point x="383.0" y="508.0"/>
      <point x="383.0" y="499.0" type="curve" smooth="yes"/>
      <point x="383.0" y="498.0" type="line" smooth="yes"/>
      <point x="383.0" y="489.0"/>
      <point x="376.0" y="484.0"/>
      <point x="365.0" y="484.0" type="curve" smooth="yes"/>
      <point x="25.0" y="484.0" type="line" smooth="yes"/>
      <point x="14.0" y="484.0"/>
      <point x="7.0" y="490.0"/>
    </contour>
    <contour>
      <point x="7.0" y="626.0" type="curve" smooth="yes"/>
      <point x="7.0" y="627.0" type="line" smooth="yes"/>
      <point x="7.0" y="636.0"/>
      <point x="14.0" y="641.0"/>
      <point x="25.0" y="641.0" type="curve" smooth="yes"/>
      <point x="365.0" y="641.0" type="line" smooth="yes"/>
      <point x="376.0" y="641.0"/>
      <point x="383.0" y="635.0"/>
      <point x="383.0" y="626.0" type="curve" smooth="yes"/>
      <point x="383.0" y="625.0" type="line" smooth="yes"/>
      <point x="383.0" y="616.0"/>
      <point x="376.0" y="611.0"/>
      <point x="365.0" y="611.0" type="curve" smooth="yes"/>
      <point x="25.0" y="611.0" type="line" smooth="yes"/>
      <point x="14.0" y="611.0"/>
      <point x="7.0" y="617.0"/>
    </contour>
    <component base="Y"/>
  </outline>
</glyph>
<glyph name="brokenbar" format="2">
  <advance height="1920" width="365"/>
  <unicode hex="00A6"/>
  <outline>
    <contour>
      <point x="182.0" y="433.0" type="curve" smooth="yes"/>
      <point x="184.0" y="433.0" type="line" smooth="yes"/>
      <point x="193.0" y="433.0"/>
      <point x="198.0" y="424.0"/>
      <point x="198.0" y="410.0" type="curve" smooth="yes"/>
      <point x="198.0" y="-340.0" type="line" smooth="yes"/>
      <point x="198.0" y="-354.0"/>
      <point x="193.0" y="-363.0"/>
      <point x="184.0" y="-363.0" type="curve" smooth="yes"/>
      <point x="182.0" y="-363.0" type="line" smooth="yes"/>
      <point x="173.0" y="-363.0"/>
      <point x="168.0" y="-354.0"/>
      <point x="168.0" y="-340.0" type="curve" smooth="yes"/>
      <point x="168.0" y="410.0" type="line" smooth="yes"/>
      <point x="168.0" y="424.0"/>
      <point x="173.0" y="433.0"/>
    </contour>
    <contour>
      <point x="182.0" y="1603.0" type="curve" smooth="yes"/>
      <point x="184.0" y="1603.0" type="line" smooth="yes"/>
      <point x="193.0" y="1603.0"/>
      <point x="198.0" y="1593.0"/>
      <point x="198.0" y="1580.0" type="curve" smooth="yes"/>
      <point x="198.0" y="830.0" type="line" smooth="yes"/>
      <point x="198.0" y="816.0"/>
      <point x="193.0" y="807.0"/>
      <point x="184.0" y="807.0" type="curve" smooth="yes"/>
      <point x="182.0" y="807.0" type="line" smooth="yes"/>
      <point x="173.0" y="807.0"/>
      <point x="168.0" y="816.0"/>
      <point x="168.0" y="830.0" type="curve" smooth="yes"/>
      <point x="168.0" y="1580.0" type="line" smooth="yes"/>
      <point x="168.0" y="1593.0"/>
      <point x="173.0" y="1603.0"/>
    </contour>
  </outline>
</glyph>
<glyph name="section" format="2">
  <advance height="1920" width="568"/>
  <unicode hex="00A7"/>
  <outline>
    <contour>
      <point x="254.0" y="890.0" type="line"/>
      <point x="182.0" y="890.0"/>
      <point x="119.0" y="776.0"/>
      <point x="119.0" y="598.0" type="curve" smooth="yes"/>
      <point x="119.0" y="431.0"/>
      <point x="167.0" y="344.0"/>
      <point x="258.0" y="241.0" type="curve" smooth="yes"/>
      <point x="378.0" y="105.0"/>
      <point x="410.0" y="47.0"/>
      <point x="410.0" y="-93.0" type="curve" smooth="yes"/>
      <point x="410.0" y="-265.0"/>
      <point x="363.0" y="-370.0"/>
      <point x="269.0" y="-370.0" type="curve" smooth="yes"/>
      <point x="172.0" y="-370.0"/>
      <point x="140.0" y="-267.116634277"/>
      <point x="132.0" y="-67.0" type="curve" smooth="yes"/>
      <point x="131.56060741" y="-56.0087792238"/>
      <point x="139.0" y="-45.0"/>
      <point x="148.0" y="-45.0" type="curve" smooth="yes"/>
      <point x="149.0" y="-45.0" type="line" smooth="yes"/>
      <point x="158.0" y="-45.0"/>
      <point x="163.436368468" y="-56.0132439962"/>
      <point x="164.0" y="-68.0" type="curve" smooth="yes"/>
      <point x="172.0" y="-238.136059688"/>
      <point x="197.0" y="-340.0"/>
      <point x="269.0" y="-340.0" type="curve" smooth="yes"/>
      <point x="343.0" y="-340.0"/>
      <point x="380.0" y="-243.0"/>
      <point x="380.0" y="-93.0" type="curve" smooth="yes"/>
      <point x="380.0" y="45.0"/>
      <point x="324.0" y="121.0"/>
      <point x="242.0" y="212.0" type="curve" smooth="yes"/>
      <point x="120.0" y="347.0"/>
      <point x="90.0" y="456.0"/>
      <point x="90.0" y="593.0" type="curve" smooth="yes"/>
      <point x="90.0" y="795.0"/>
      <point x="158.0" y="900.0"/>
      <point x="260.0" y="900.0" type="curve"/>
    </contour>
    <contour>
      <point x="314.0" y="145.0" type="line"/>
      <point x="386.0" y="145.0"/>
      <point x="449.0" y="259.0"/>
      <point x="449.0" y="437.0" type="curve" smooth="yes"/>
      <point x="449.0" y="604.0"/>
      <point x="401.0" y="691.0"/>
      <point x="310.0" y="794.0" type="curve" smooth="yes"/>
      <point x="190.0" y="930.0"/>
      <point x="158.0" y="988.0"/>
      <point x="158.0" y="1128.0" type="curve" smooth="yes"/>
      <point x="158.0" y="1300.0"/>
      <point x="205.0" y="1405.0"/>
      <point x="299.0" y="1405.0" type="curve" smooth="yes"/>
      <point x="396.0" y="1405.0"/>
      <point x="428.181292591" y="1302.08193038"/>
      <point x="436.0" y="1102.0" type="curve" smooth="yes"/>
      <point x="436.429465871" y="1091.00990203"/>
      <point x="430.0" y="1080.0"/>
      <point x="421.0" y="1080.0" type="curve" smooth="yes"/>
      <point x="420.0" y="1080.0" type="line" smooth="yes"/>
      <point x="411.0" y="1080.0"/>
      <point x="404.569592348" y="1091.01573146"/>
      <point x="404.0" y="1103.0" type="curve" smooth="yes"/>
      <point x="395.915916826" y="1273.08975613"/>
      <point x="371.0" y="1375.0"/>
      <point x="299.0" y="1375.0" type="curve" smooth="yes"/>
      <point x="225.0" y="1375.0"/>
      <point x="188.0" y="1278.0"/>
      <point x="188.0" y="1128.0" type="curve" smooth="yes"/>
      <point x="188.0" y="990.0"/>
      <point x="244.0" y="914.0"/>
      <point x="326.0" y="823.0" type="curve" smooth="yes"/>
      <point x="448.0" y="688.0"/>
      <point x="478.0" y="579.0"/>
      <point x="478.0" y="442.0" type="curve" smooth="yes"/>
      <point x="478.0" y="240.0"/>
      <point x="410.0" y="135.0"/>
      <point x="308.0" y="135.0" type="curve"/>
    </contour>
  </outline>
</glyph>
<glyph name="copyright" format="2">
  <advance width="844"/>
  <unicode hex="00A9"/>
  <outline>
    <contour>
      <point x="512.0" y="606.0" type="curve" smooth="yes"/>
      <point x="512.0" y="324.393435406"/>
      <point x="509.369094254" y="247.0"/>
      <point x="414.0" y="247.0" type="curve" smooth="yes"/>
      <point x="331.0" y="247.0"/>
      <point x="327.0" y="327.0"/>
      <point x="327.0" y="465.0" type="curve" smooth="yes"/>
      <point x="327.0" y="875.0" type="line" smooth="yes"/>
      <point x="327.0" y="1025.0"/>
      <point x="349.0" y="1093.0"/>
      <point x="423.0" y="1093.0" type="curve" smooth="yes"/>
      <point x="501.991317978" y="1093.0"/>
      <point x="509.0" y="996.848045545"/>
      <point x="509.0" y="782.0" type="curve" smooth="yes"/>
      <point x="509.0" y="774.0"/>
      <point x="507.0" y="765.0"/>
      <point x="500.0" y="765.0" type="curve" smooth="yes"/>
      <point x="499.0" y="765.0" type="line" smooth="yes"/>
      <point x="492.0" y="765.0"/>
      <point x="491.0" y="774.0"/>
      <point x="491.0" y="782.0" type="curve" smooth="yes"/>
      <point x="489.0" y="988.0"/>
      <point x="482.0" y="1075.0"/>
      <point x="423.0" y="1075.0" type="curve" smooth="yes"/>
      <point x="352.0" y="1075.0"/>
      <point x="345.0" y="995.0"/>
      <point x="345.0" y="878.0" type="curve" smooth="yes"/>
      <point x="345.0" y="462.0" type="line" smooth="yes"/>
      <point x="345.0" y="351.0"/>
      <point x="347.0" y="265.0"/>
      <point x="414.0" y="265.0" type="curve" smooth="yes"/>
      <point x="490.0" y="265.0"/>
      <point x="494.0" y="332.0"/>
      <point x="494.0" y="606.0" type="curve" smooth="yes"/>
      <point x="494.0" y="613.0"/>
      <point x="497.0" y="617.0"/>
      <point x="502.0" y="617.0" type="curve" smooth="yes"/>
      <point x="503.0" y="617.0" type="line" smooth="yes"/>
      <point x="508.0" y="617.0"/>
      <point x="512.0" y="613.0"/>
    </contour>
    <contour>
      <point x="769.0" y="668.0" type="curve" smooth="yes"/>
      <point x="769.0" y="284.0"/>
      <point x="735.0" y="-28.0"/>
      <point x="421.0" y="-28.0" type="curve" smooth="yes"/>
      <point x="107.0" y="-28.0"/>
      <point x="75.0" y="284.0"/>
      <point x="75.0" y="668.0" type="curve" smooth="yes"/>
      <point x="75.0" y="1052.0"/>
      <point x="107.0" y="1366.0"/>
      <point x="421.0" y="1366.0" type="curve" smooth="yes"/>
      <point x="735.0" y="1366.0"/>
      <point x="769.0" y="1052.0"/>
    </contour>
    <contour>
      <point x="739.0" y="668.0" type="curve" smooth="yes"/>
      <point x="739.0" y="1006.0"/>
      <point x="729.0" y="1336.0"/>
      <point x="421.0" y="1336.0" type="curve" smooth="yes"/>
      <point x="113.0" y="1336.0"/>
      <point x="105.0" y="1006.0"/>
      <point x="105.0" y="668.0" type="curve" smooth="yes"/>
      <point x="105.0" y="330.0"/>
      <point x="113.0" y="2.0"/>
      <point x="421.0" y="2.0" type="curve" smooth="yes"/>
      <point x="729.0" y="2.0"/>
      <point x="739.0" y="330.0"/>
    </contour>
  </outline>
</glyph>
<glyph name="ordfeminine" format="2">
  <advance height="1920" width="364"/>
  <unicode hex="00AA"/>
  <outline>
    <contour>
      <point x="105.0" y="834.0" type="curve" smooth="yes"/>
      <point x="105.0" y="730.0"/>
      <point x="119.0" y="669.0"/>
      <point x="153.0" y="669.0" type="curve" smooth="yes"/>
      <point x="195.0" y="669.0"/>
      <point x="229.0" y="806.0"/>
      <point x="229.0" y="952.0" type="curve"/>
      <point x="239.0" y="902.0" type="line"/>
      <point x="239.0" y="759.0"/>
      <point x="209.0" y="639.0"/>
      <point x="153.0" y="639.0" type="curve" smooth="yes"/>
      <point x="101.0" y="639.0"/>
      <point x="75.0" y="699.0"/>
      <point x="75.0" y="834.0" type="curve" smooth="yes"/>
      <point x="75.0" y="985.0"/>
      <point x="91.0" y="1035.0"/>
      <point x="160.0" y="1096.0" type="curve" smooth="yes"/>
      <point x="196.0" y="1128.0"/>
      <point x="229.0" y="1159.0"/>
      <point x="229.0" y="1242.0" type="curve"/>
      <point x="239.0" y="1202.0" type="line"/>
      <point x="239.0" y="1139.0"/>
      <point x="212.0" y="1113.0"/>
      <point x="168.0" y="1071.0" type="curve" smooth="yes"/>
      <point x="129.0" y="1034.0"/>
      <point x="105.0" y="964.0"/>
    </contour>
    <contour>
      <point x="229.0" y="852.0" type="curve" smooth="yes"/>
      <point x="229.0" y="1262.0" type="line" smooth="yes"/>
      <point x="229.0" y="1342.0"/>
      <point x="227.0" y="1459.0"/>
      <point x="179.0" y="1459.0" type="curve" smooth="yes"/>
      <point x="129.0" y="1459.0"/>
      <point x="131.0" y="1362.0"/>
      <point x="131.0" y="1236.0" type="curve" smooth="yes"/>
      <point x="131.0" y="1223.0"/>
      <point x="125.0" y="1214.0"/>
      <point x="116.0" y="1214.0" type="curve" smooth="yes"/>
      <point x="114.0" y="1214.0" type="line" smooth="yes"/>
      <point x="105.0" y="1214.0"/>
      <point x="100.006191774" y="1223.03804239"/>
      <point x="101.0" y="1236.0" type="curve" smooth="yes"/>
      <point x="112.0" y="1379.46986675"/>
      <point x="91.0" y="1489.0"/>
      <point x="179.0" y="1489.0" type="curve" smooth="yes"/>
      <point x="254.0" y="1489.0"/>
      <point x="259.0" y="1395.0"/>
      <point x="259.0" y="1187.0" type="curve" smooth="yes"/>
      <point x="259.0" y="852.0" type="line" smooth="yes"/>
      <point x="259.0" y="758.0"/>
      <point x="268.799690205" y="705.013129165"/>
      <point x="284.0" y="661.0" type="curve" smooth="yes"/>
      <point x="287.662194014" y="650.395964928"/>
      <point x="282.0" y="641.0"/>
      <point x="274.0" y="641.0" type="curve" smooth="yes"/>
      <point x="273.0" y="641.0" type="line" smooth="yes"/>
      <point x="263.0" y="641.0"/>
      <point x="257.357537454" y="650.232807916"/>
      <point x="254.0" y="660.0" type="curve" smooth="yes"/>
      <point x="238.504944414" y="705.075650333"/>
      <point x="229.0" y="757.0"/>
    </contour>
  </outline>
</glyph>
<glyph name="logicalnot" format="2">
  <advance height="2048" width="600"/>
  <unicode hex="00AC"/>
  <outline>
    <contour>
      <point x="75.0" y="675.0" type="curve" smooth="yes"/>
      <point x="75.0" y="685.0" type="line" smooth="yes"/>
      <point x="75.0" y="692.0"/>
      <point x="76.0" y="695.0"/>
      <point x="80.0" y="695.0" type="curve" smooth="yes"/>
      <point x="480.0" y="695.0" type="line" smooth="yes"/>
      <point x="484.0" y="695.0"/>
      <point x="485.0" y="692.0"/>
      <point x="485.0" y="685.0" type="curve" smooth="yes"/>
      <point x="485.0" y="325.0" type="line" smooth="yes"/>
      <point x="485.0" y="318.0"/>
      <point x="484.0" y="315.0"/>
      <point x="480.0" y="315.0" type="curve" smooth="yes"/>
      <point x="460.0" y="315.0" type="line" smooth="yes"/>
      <point x="456.0" y="315.0"/>
      <point x="455.0" y="318.0"/>
      <point x="455.0" y="325.0" type="curve" smooth="yes"/>
      <point x="455.0" y="665.0" type="line"/>
      <point x="80.0" y="665.0" type="line" smooth="yes"/>
      <point x="76.0" y="665.0"/>
      <point x="75.0" y="668.0"/>
    </contour>
  </outline>
</glyph>
<glyph name="registered" format="2">
  <advance width="844"/>
  <unicode hex="00AE"/>
  <outline>
    <contour>
      <point x="365.0" y="1102.0" type="line"/>
      <point x="365.0" y="712.0" type="line"/>
      <point x="404.0" y="712.0" type="line" smooth="yes"/>
      <point x="443.0" y="712.0"/>
      <point x="476.0" y="748.0"/>
      <point x="476.0" y="826.0" type="curve" smooth="yes"/>
      <point x="476.0" y="977.0" type="line" smooth="yes"/>
      <point x="476.0" y="1049.0"/>
      <point x="467.0" y="1102.0"/>
      <point x="404.0" y="1102.0" type="curve" smooth="yes"/>
    </contour>
    <contour>
      <point x="404.0" y="1120.0" type="line" smooth="yes"/>
      <point x="478.0" y="1120.0"/>
      <point x="494.0" y="1073.0"/>
      <point x="494.0" y="971.0" type="curve" smooth="yes"/>
      <point x="494.0" y="838.0" type="line" smooth="yes"/>
      <point x="494.0" y="730.0"/>
      <point x="445.0" y="703.0"/>
      <point x="404.0" y="703.0" type="curve"/>
      <point x="404.0" y="706.0" type="line"/>
      <point x="445.0" y="706.0"/>
      <point x="490.0" y="689.0"/>
      <point x="490.0" y="617.0" type="curve" smooth="yes"/>
      <point x="490.0" y="421.0" type="line" smooth="yes"/>
      <point x="490.0" y="350.0"/>
      <point x="500.0" y="318.0"/>
      <point x="514.0" y="298.0" type="curve" smooth="yes"/>
      <point x="516.0" y="294.0"/>
      <point x="518.0" y="291.0"/>
      <point x="518.0" y="286.0" type="curve" smooth="yes"/>
      <point x="518.0" y="285.0" type="line" smooth="yes"/>
      <point x="518.0" y="281.0"/>
      <point x="515.0" y="279.0"/>
      <point x="511.0" y="279.0" type="curve" smooth="yes"/>
      <point x="510.0" y="279.0" type="line" smooth="yes"/>
      <point x="505.0" y="279.0"/>
      <point x="503.0" y="281.0"/>
      <point x="501.0" y="283.0" type="curve" smooth="yes"/>
      <point x="484.0" y="307.0"/>
      <point x="472.0" y="335.0"/>
      <point x="472.0" y="421.0" type="curve" smooth="yes"/>
      <point x="472.0" y="626.0" type="line" smooth="yes"/>
      <point x="472.0" y="668.0"/>
      <point x="449.0" y="697.0"/>
      <point x="404.0" y="697.0" type="curve" smooth="yes"/>
      <point x="365.0" y="697.0" type="line"/>
      <point x="365.0" y="289.0" type="line" smooth="yes"/>
      <point x="365.0" y="284.0"/>
      <point x="363.0" y="279.0"/>
      <point x="357.0" y="279.0" type="curve" smooth="yes"/>
      <point x="355.0" y="279.0" type="line" smooth="yes"/>
      <point x="349.0" y="279.0"/>
      <point x="347.0" y="284.0"/>
      <point x="347.0" y="289.0" type="curve" smooth="yes"/>
      <point x="347.0" y="1105.0" type="line" smooth="yes"/>
      <point x="347.0" y="1115.0"/>
      <point x="352.0" y="1120.0"/>
      <point x="362.0" y="1120.0" type="curve" smooth="yes"/>
    </contour>
    <contour>
      <point x="769.0" y="668.0" type="curve" smooth="yes"/>
      <point x="769.0" y="284.0"/>
      <point x="735.0" y="-28.0"/>
      <point x="421.0" y="-28.0" type="curve" smooth="yes"/>
      <point x="107.0" y="-28.0"/>
      <point x="75.0" y="284.0"/>
      <point x="75.0" y="668.0" type="curve" smooth="yes"/>
      <point x="75.0" y="1052.0"/>
      <point x="107.0" y="1366.0"/>
      <point x="421.0" y="1366.0" type="curve" smooth="yes"/>
      <point x="735.0" y="1366.0"/>
      <point x="769.0" y="1052.0"/>
    </contour>
    <contour>
      <point x="739.0" y="668.0" type="curve" smooth="yes"/>
      <point x="739.0" y="1006.0"/>
      <point x="729.0" y="1336.0"/>
      <point x="421.0" y="1336.0" type="curve" smooth="yes"/>
      <point x="113.0" y="1336.0"/>
      <point x="105.0" y="1006.0"/>
      <point x="105.0" y="668.0" type="curve" smooth="yes"/>
      <point x="105.0" y="330.0"/>
      <point x="113.0" y="2.0"/>
      <point x="421.0" y="2.0" type="curve" smooth="yes"/>
      <point x="729.0" y="2.0"/>
      <point x="739.0" y="330.0"/>
    </contour>
  </outline>
</glyph>
<glyph name="degree" format="2">
  <advance height="2048" width="440"/>
  <unicode hex="00B0"/>
  <outline>
    <contour>
      <point x="50.0" y="1241.0" type="curve" smooth="yes"/>
      <point x="50.0" y="1258.0" type="line" smooth="yes"/>
      <point x="50.0" y="1353.0"/>
      <point x="130.0" y="1417.0"/>
      <point x="218.0" y="1417.0" type="curve" smooth="yes"/>
      <point x="306.0" y="1417.0"/>
      <point x="390.0" y="1353.0"/>
      <point x="390.0" y="1258.0" type="curve" smooth="yes"/>
      <point x="390.0" y="1241.0" type="line" smooth="yes"/>
      <point x="390.0" y="1146.0"/>
      <point x="306.0" y="1081.0"/>
      <point x="218.0" y="1081.0" type="curve" smooth="yes"/>
      <point x="130.0" y="1081.0"/>
      <point x="50.0" y="1146.0"/>
    </contour>
    <contour>
      <point x="80.0" y="1235.0" type="line" smooth="yes"/>
      <point x="80.0" y="1165.0"/>
      <point x="140.0" y="1111.0"/>
      <point x="218.0" y="1111.0" type="curve" smooth="yes"/>
      <point x="296.0" y="1111.0"/>
      <point x="360.0" y="1165.0"/>
      <point x="360.0" y="1235.0" type="curve" smooth="yes"/>
      <point x="360.0" y="1263.0" type="line" smooth="yes"/>
      <point x="360.0" y="1333.0"/>
      <point x="296.0" y="1387.0"/>
      <point x="218.0" y="1387.0" type="curve" smooth="yes"/>
      <point x="140.0" y="1387.0"/>
      <point x="80.0" y="1333.0"/>
      <point x="80.0" y="1263.0" type="curve" smooth="yes"/>
    </contour>
  </outline>
</glyph>
<glyph name="plusminus" format="2">
  <advance width="576"/>
  <unicode hex="00B1"/>
  <outline>
    <contour>
      <point x="47.0" y="555.0" type="curve" smooth="yes"/>
      <point x="47.0" y="556.0" type="line" smooth="yes"/>
      <point x="47.0" y="565.0"/>
      <point x="55.0" y="570.0"/>
      <point x="66.0" y="570.0" type="curve" smooth="yes"/>
      <point x="510.0" y="570.0" type="line" smooth="yes"/>
      <point x="521.0" y="570.0"/>
      <point x="529.0" y="565.0"/>
      <point x="529.0" y="556.0" type="curve" smooth="yes"/>
      <point x="529.0" y="555.0" type="line" smooth="yes"/>
      <point x="529.0" y="546.0"/>
      <point x="521.0" y="540.0"/>
      <point x="510.0" y="540.0" type="curve" smooth="yes"/>
      <point x="66.0" y="540.0" type="line" smooth="yes"/>
      <point x="55.0" y="540.0"/>
      <point x="47.0" y="546.0"/>
    </contour>
    <contour>
      <point x="47.0" y="945.0" type="curve" smooth="yes"/>
      <point x="47.0" y="946.0" type="line" smooth="yes"/>
      <point x="47.0" y="955.0"/>
      <point x="52.0" y="960.0"/>
      <point x="66.0" y="960.0" type="curve" smooth="yes"/>
      <point x="510.0" y="960.0" type="line" smooth="yes"/>
      <point x="521.0" y="960.0"/>
      <point x="529.0" y="954.0"/>
      <point x="529.0" y="946.0" type="curve" smooth="yes"/>
      <point x="529.0" y="945.0" type="line" smooth="yes"/>
      <point x="529.0" y="936.0"/>
      <point x="521.0" y="930.0"/>
      <point x="510.0" y="930.0" type="curve" smooth="yes"/>
      <point x="66.0" y="930.0" type="line" smooth="yes"/>
      <point x="52.0" y="930.0"/>
      <point x="47.0" y="936.0"/>
    </contour>
    <contour>
      <point x="292.0" y="1171.0" type="curve" smooth="yes"/>
      <point x="294.0" y="1171.0" type="line" smooth="yes"/>
      <point x="303.0" y="1171.0"/>
      <point x="311.0" y="1163.0"/>
      <point x="311.0" y="1152.0" type="curve" smooth="yes"/>
      <point x="311.0" y="722.0" type="line" smooth="yes"/>
      <point x="311.0" y="711.0"/>
      <point x="303.0" y="705.0"/>
      <point x="294.0" y="705.0" type="curve" smooth="yes"/>
      <point x="292.0" y="705.0" type="line" smooth="yes"/>
      <point x="283.0" y="705.0"/>
      <point x="275.0" y="711.0"/>
      <point x="275.0" y="722.0" type="curve" smooth="yes"/>
      <point x="275.0" y="1152.0" type="line" smooth="yes"/>
      <point x="275.0" y="1163.0"/>
      <point x="283.0" y="1171.0"/>
    </contour>
  </outline>
</glyph>
<glyph name="acute" format="2">
  <advance width="311"/>
  <unicode hex="00B4"/>
  <outline>
    <contour>
      <point x="83.0" y="1101.0" type="line" smooth="yes"/>
      <point x="78.0" y="1101.0"/>
      <point x="72.0" y="1108.0"/>
      <point x="77.0" y="1121.0" type="curve" smooth="yes"/>
      <point x="173.0" y="1382.0" type="line" smooth="yes"/>
      <point x="178.0" y="1396.0"/>
      <point x="182.0" y="1403.0"/>
      <point x="192.0" y="1403.0" type="curve" smooth="yes"/>
      <point x="193.0" y="1403.0" type="line" smooth="yes"/>
      <point x="202.0" y="1403.0"/>
      <point x="212.0" y="1395.0"/>
      <point x="207.0" y="1383.0" type="curve" smooth="yes"/>
      <point x="100.0" y="1121.0" type="line" smooth="yes"/>
      <point x="94.0" y="1106.0"/>
      <point x="89.0" y="1101.0"/>
      <point x="84.0" y="1101.0" type="curve" smooth="yes"/>
    </contour>
  </outline>
</glyph>
<glyph name="mu" format="2">
  <advance height="1104" width="336"/>
  <unicode hex="00B5"/>
  <outline>
    <contour>
      <point x="86.0" y="1053.0" type="curve" smooth="yes"/>
      <point x="87.0" y="1053.0" type="line" smooth="yes"/>
      <point x="97.0" y="1053.0"/>
      <point x="101.0" y="1045.0"/>
      <point x="101.0" y="1034.0" type="curve" smooth="yes"/>
      <point x="101.0" y="-344.0" type="line" smooth="yes"/>
      <point x="101.0" y="-355.0"/>
      <point x="97.0" y="-363.0"/>
      <point x="87.0" y="-363.0" type="curve" smooth="yes"/>
      <point x="86.0" y="-363.0" type="line" smooth="yes"/>
      <point x="76.0" y="-363.0"/>
      <point x="72.0" y="-355.0"/>
      <point x="72.0" y="-344.0" type="curve" smooth="yes"/>
      <point x="72.0" y="1034.0" type="line" smooth="yes"/>
      <point x="72.0" y="1045.0"/>
      <point x="76.0" y="1053.0"/>
    </contour>
    <contour>
      <point x="253.0" y="-3.0" type="curve" smooth="yes"/>
      <point x="251.0" y="-3.0" type="line" smooth="yes"/>
      <point x="242.0" y="-3.0"/>
      <point x="239.0" y="4.0"/>
      <point x="239.0" y="13.0" type="curve" smooth="yes"/>
      <point x="239.0" y="148.0" type="line"/>
      <point x="236.0" y="164.0" type="line"/>
      <point x="236.0" y="1034.0" type="line" smooth="yes"/>
      <point x="236.0" y="1045.0"/>
      <point x="242.0" y="1053.0"/>
      <point x="251.0" y="1053.0" type="curve" smooth="yes"/>
      <point x="252.0" y="1053.0" type="line" smooth="yes"/>
      <point x="261.0" y="1053.0"/>
      <point x="267.0" y="1045.0"/>
      <point x="267.0" y="1034.0" type="curve" smooth="yes"/>
      <point x="267.0" y="13.0" type="line" smooth="yes"/>
      <point x="267.0" y="4.0"/>
      <point x="262.0" y="-3.0"/>
    </contour>
    <contour>
      <point x="244.0" y="211.0" type="line"/>
      <point x="244.0" y="83.0"/>
      <point x="211.0" y="-10.0"/>
      <point x="159.0" y="-10.0" type="curve" smooth="yes"/>
      <point x="100.0" y="-10.0"/>
      <point x="92.0" y="49.0"/>
      <point x="92.0" y="169.0" type="curve" smooth="yes"/>
      <point x="92.0" y="974.0" type="line" smooth="yes"/>
      <point x="92.0" y="978.0"/>
      <point x="89.0" y="990.0"/>
      <point x="93.0" y="990.0" type="curve" smooth="yes"/>
      <point x="96.0" y="990.0" type="line" smooth="yes"/>
      <point x="100.0" y="990.0"/>
      <point x="101.0" y="978.0"/>
      <point x="101.0" y="974.0" type="curve" smooth="yes"/>
      <point x="101.0" y="169.0" type="line" smooth="yes"/>
      <point x="101.0" y="87.0"/>
      <point x="107.0" y="17.0"/>
      <point x="157.0" y="17.0" type="curve" smooth="yes"/>
      <point x="205.0" y="17.0"/>
      <point x="236.0" y="124.0"/>
      <point x="236.0" y="245.0" type="curve"/>
    </contour>
  </outline>
</glyph>
